<?xml version="1.0" encoding="utf-8"?>
<!-- Generator: Adobe Illustrator 23.0.2, SVG Export Plug-In . SVG Version: 6.00 Build 0)  -->
<svg version="1.1" id="Layer_1" xmlns="http://www.w3.org/2000/svg" xmlns:xlink="http://www.w3.org/1999/xlink" x="0px" y="0px"
	 viewBox="0 0 119 118" style="enable-background:new 0 0 119 118;" xml:space="preserve">
<style type="text/css">
	.st0{fill:url(#SVGID_1_);}
	.st1{fill:#FFFFFF;}
</style>
<g transform="translate(-717 -442)">
	
		<linearGradient id="SVGID_1_" gradientUnits="userSpaceOnUse" x1="198.5951" y1="5.4943" x2="199.8869" y2="7.205" gradientTransform="matrix(119 0 0 118 -22901 -206)">
		<stop  offset="0" style="stop-color:#F24D94"/>
		<stop  offset="1" style="stop-color:#FF3A46"/>
	</linearGradient>
	<path class="st0" d="M717,442h119v118H717V442z"/>
	<g transform="translate(429 891.009)">
		<path class="st1" d="M360.6-377.5c-5.4,2.4-13.2,1.5-17.6-5.5c-2.7-4.3-2.7-9.7,0-14c3.7-5.8,11.1-8.2,17.6-5.5
			c5.1,2.4,11,1.5,14.3-2.4c4.9-4.8,5.1-12.7,0.3-17.4c-1.2-1.2-2.4-2.1-3.9-2.7c-17.6-8.6-38.1-2.7-49.1,13.7
			c-11.8,18-6.9,42.1,11.1,54c11.5,7.5,26,8.6,38.3,2.6c6.2-2.9,8.9-10.4,5.9-16.8c-0.7-1.4-1.5-2.6-2.5-3.6
			C371.4-379,365.5-379.9,360.6-377.5z M368.3-361.9c-14,6.7-30.7,2.1-39.3-10.9c-7.1-10.4-7.1-23.9,0-34.4
			c8.4-13,25.3-17.6,39.3-10.9c2.4,1.2,3.4,4.1,2.2,6.3c-0.3,0.5-0.7,1-1,1.4c-1.5,1.5-3.9,1.9-5.9,0.9c-10.8-5-23.5-0.3-28.5,10.4
			c-3,6.5-2.5,14.2,1.2,20.4c5.7,9.2,17.4,12.8,27.2,8.2c1.9-0.9,4.2-0.7,5.9,0.9c1.9,1.9,2,4.8,0.2,6.8
			C369.4-362.6,368.9-362.1,368.3-361.9z"/>
	</g>
</g>
</svg>
