<svg xmlns="http://www.w3.org/2000/svg" xmlns:xlink="http://www.w3.org/1999/xlink" width="119" height="118" viewBox="0 0 119 118"><defs><linearGradient id="a" x1="0.128" x2="1.42" y2="1.711" gradientUnits="objectBoundingBox"><stop offset="0" stop-color="#f24d94"/><stop offset="1" stop-color="#ff3a46"/></linearGradient></defs><g transform="translate(-717 -442)"><path d="M0,0H119V118H0Z" transform="translate(717 442)" fill="url(#a)"/><g transform="translate(429 891.009)"><path d="M46.557,51.452C41.1,53.789,33.312,53.01,29.026,46a13.044,13.044,0,0,1,0-14.025,14.252,14.252,0,0,1,17.531-5.454c5.065,2.338,10.908,1.558,14.415-2.338A12.387,12.387,0,0,0,57.466,3.922C39.935-4.649,19.287,1.2,8.378,17.558a38.947,38.947,0,0,0,49.477,56.49,12.576,12.576,0,0,0,3.506-20.258A13,13,0,0,0,46.557,51.452Zm7.792,15.583A31.267,31.267,0,0,1,15,56.127a30.564,30.564,0,0,1,0-34.283A30.953,30.953,0,0,1,54.349,10.935a4.789,4.789,0,0,1,1.169,7.792,4.646,4.646,0,0,1-5.844.779A21.466,21.466,0,0,0,22.4,50.283a21.3,21.3,0,0,0,27.271,8.181,5.335,5.335,0,0,1,5.844.779A4.789,4.789,0,0,1,54.349,67.035Z" transform="translate(314 -429)" fill="#fff"/></g></g></svg>