<svg xmlns="http://www.w3.org/2000/svg" xmlns:xlink="http://www.w3.org/1999/xlink" width="200.479" height="160.359" viewBox="0 0 200.479 160.359">
  <defs>
    <filter id="Path_859" x="89.381" y="90.192" width="39.413" height="67.203" filterUnits="userSpaceOnUse">
      <feOffset dy="3" input="SourceAlpha"/>
      <feGaussianBlur stdDeviation="3" result="blur"/>
      <feFlood flood-opacity="0.161"/>
      <feComposite operator="in" in2="blur"/>
      <feComposite in="SourceGraphic"/>
    </filter>
    <filter id="Path_860" x="99.9" y="81.439" width="49.455" height="78.92" filterUnits="userSpaceOnUse">
      <feOffset dy="3" input="SourceAlpha"/>
      <feGaussianBlur stdDeviation="3" result="blur-2"/>
      <feFlood flood-opacity="0.161"/>
      <feComposite operator="in" in2="blur-2"/>
      <feComposite in="SourceGraphic"/>
    </filter>
    <filter id="Path_865" x="99.867" y="48.692" width="36.795" height="53.838" filterUnits="userSpaceOnUse">
      <feOffset dy="3" input="SourceAlpha"/>
      <feGaussianBlur stdDeviation="3" result="blur-3"/>
      <feFlood flood-opacity="0.161"/>
      <feComposite operator="in" in2="blur-3"/>
      <feComposite in="SourceGraphic"/>
    </filter>
    <filter id="Path_874" x="116.799" y="0" width="45.411" height="67.196" filterUnits="userSpaceOnUse">
      <feOffset dy="3" input="SourceAlpha"/>
      <feGaussianBlur stdDeviation="3" result="blur-4"/>
      <feFlood flood-opacity="0.161"/>
      <feComposite operator="in" in2="blur-4"/>
      <feComposite in="SourceGraphic"/>
    </filter>
  </defs>
  <g id="Group_83" data-name="Group 83" transform="translate(-281.407 -229.756)">
    <g id="Group_80" data-name="Group 80" transform="translate(281.407 235.756)">
      <g id="undraw_directions_x53j_2_" data-name="undraw_directions_x53j (2)" transform="translate(0)">
        <path id="Path_837" data-name="Path 837" d="M874.7,586.326l-21.217-36.749a.675.675,0,0,0-1.172,0l-21.217,36.749a.675.675,0,0,0,.585,1.023h6.329a.679.679,0,0,1,.677.677v7.843a.677.677,0,0,0,.675.677h8.258a.677.677,0,0,0,.677-.677v-3.79a.675.675,0,0,1,.675-.675h7.851a.677.677,0,0,1,.677.675v3.79a.677.677,0,0,0,.677.677h8.256a.677.677,0,0,0,.677-.677v-7.851a.677.677,0,0,1,.677-.677h6.329a.677.677,0,0,0,.585-1.015Zm-29.587,4.067a.674.674,0,0,1-.479.2h-2.972a.677.677,0,1,1,0-1.354h2.978a.677.677,0,0,1,.479,1.156Zm19.49,0a.674.674,0,0,1-.479.2h-2.97a.677.677,0,1,1,0-1.354h2.982a.677.677,0,0,1,.479,1.156Z" transform="translate(-674.312 -454.289)" fill="#2840f1" opacity="0.1"/>
        <path id="Path_839" data-name="Path 839" d="M491.956,355.2H465.7v-5.678a1.358,1.358,0,0,0-1.358-1.358h-7.71v-6.049a.855.855,0,0,0-.855-.855h-9.931a.855.855,0,0,0-.855.855v6.047h-9.064a1.358,1.358,0,0,0-1.358,1.358V355.2H409.534a.276.276,0,0,0-.274.276V430.86a.276.276,0,0,0,.274.276h16.639a.276.276,0,0,0,.276-.276V420.718a.278.278,0,0,1,.276-.276h7.029a.278.278,0,0,1,.276.276V430.86a.276.276,0,0,0,.274.276h32.883a.278.278,0,0,0,.276-.276V420.718a.276.276,0,0,1,.274-.276h7.029a.276.276,0,0,1,.276.276V430.86a.278.278,0,0,0,.276.276h16.639a.278.278,0,0,0,.276-.276V355.477A.278.278,0,0,0,491.956,355.2ZM423.471,416.92a.274.274,0,0,1-.274.274H412.919a.274.274,0,0,1-.276-.274v-3.5a.276.276,0,0,1,.276-.276H423.2a.276.276,0,0,1,.274.276Zm0-9.07a.274.274,0,0,1-.274.276H412.919a.274.274,0,0,1-.276-.276v-3.508a.274.274,0,0,1,.276-.276H423.2a.274.274,0,0,1,.274.276Zm0-9.068a.276.276,0,0,1-.274.276H412.919a.276.276,0,0,1-.276-.276v-3.51a.276.276,0,0,1,.276-.276H423.2a.276.276,0,0,1,.274.276Zm0-9.07a.274.274,0,0,1-.274.276H412.919a.274.274,0,0,1-.276-.276v-3.5a.274.274,0,0,1,.276-.276H423.2a.274.274,0,0,1,.274.276Zm0-9.068a.276.276,0,0,1-.274.276H412.919a.276.276,0,0,1-.276-.276v-3.51a.274.274,0,0,1,.276-.274H423.2a.274.274,0,0,1,.274.274Zm0-9.068a.274.274,0,0,1-.274.274H412.919a.274.274,0,0,1-.276-.274v-3.51a.276.276,0,0,1,.276-.276H423.2a.276.276,0,0,1,.274.276Zm0-9.07a.274.274,0,0,1-.274.276H412.919a.274.274,0,0,1-.276-.276V359a.274.274,0,0,1,.276-.276H423.2a.274.274,0,0,1,.274.276Zm24.365,54.412a.274.274,0,0,1-.276.274H437.282a.276.276,0,0,1-.276-.274v-3.5a.278.278,0,0,1,.276-.276h10.277a.276.276,0,0,1,.276.276Zm0-9.07a.274.274,0,0,1-.276.276H437.282a.276.276,0,0,1-.276-.276v-3.506a.276.276,0,0,1,.276-.276h10.277a.274.274,0,0,1,.276.276Zm0-9.068a.276.276,0,0,1-.276.276H437.282a.278.278,0,0,1-.276-.276v-3.508a.278.278,0,0,1,.276-.276h10.277a.276.276,0,0,1,.276.276Zm0-9.07a.274.274,0,0,1-.276.276H437.282a.276.276,0,0,1-.276-.276v-3.5a.276.276,0,0,1,.276-.276h10.277a.274.274,0,0,1,.276.276Zm0-9.068a.276.276,0,0,1-.276.276H437.282a.278.278,0,0,1-.276-.276v-3.508a.276.276,0,0,1,.276-.274h10.277a.274.274,0,0,1,.276.274Zm0-9.068a.274.274,0,0,1-.276.274H437.282a.276.276,0,0,1-.276-.274v-3.508a.278.278,0,0,1,.276-.276h10.277a.276.276,0,0,1,.276.276Zm0-9.07a.274.274,0,0,1-.276.276H437.282a.276.276,0,0,1-.276-.276V359a.276.276,0,0,1,.276-.276h10.277a.274.274,0,0,1,.276.276Zm16.649,54.412a.274.274,0,0,1-.276.274H453.931a.276.276,0,0,1-.276-.274v-3.5a.278.278,0,0,1,.276-.276h10.277a.276.276,0,0,1,.276.276Zm0-9.07a.274.274,0,0,1-.276.276H453.931a.276.276,0,0,1-.276-.276v-3.5a.276.276,0,0,1,.276-.276h10.277a.274.274,0,0,1,.276.276Zm0-9.068a.276.276,0,0,1-.276.276H453.931a.278.278,0,0,1-.276-.276v-3.506a.278.278,0,0,1,.276-.276h10.277a.276.276,0,0,1,.276.276Zm0-9.07a.274.274,0,0,1-.276.276H453.931a.276.276,0,0,1-.276-.276v-3.5a.276.276,0,0,1,.276-.276h10.277a.274.274,0,0,1,.276.276Zm0-9.068a.276.276,0,0,1-.276.276H453.931a.278.278,0,0,1-.276-.276v-3.506a.276.276,0,0,1,.276-.274h10.277a.274.274,0,0,1,.276.274Zm0-9.068a.274.274,0,0,1-.276.274H453.931a.276.276,0,0,1-.276-.274v-3.506a.278.278,0,0,1,.276-.276h10.277a.276.276,0,0,1,.276.276Zm0-9.07a.274.274,0,0,1-.276.276H453.931a.276.276,0,0,1-.276-.276V359a.276.276,0,0,1,.276-.276h10.277a.274.274,0,0,1,.276.276Zm24.365,54.412a.276.276,0,0,1-.276.274H478.3a.274.274,0,0,1-.276-.274v-3.5a.276.276,0,0,1,.276-.276h10.279a.278.278,0,0,1,.276.276Zm0-9.07a.276.276,0,0,1-.276.276H478.3a.274.274,0,0,1-.276-.276v-3.5a.274.274,0,0,1,.276-.276h10.279a.276.276,0,0,1,.276.276Zm0-9.068a.278.278,0,0,1-.276.276H478.3a.276.276,0,0,1-.276-.276v-3.5A.276.276,0,0,1,478.3,395h10.279a.278.278,0,0,1,.276.276Zm0-9.07a.276.276,0,0,1-.276.276H478.3a.274.274,0,0,1-.276-.276v-3.5a.274.274,0,0,1,.276-.276h10.279a.276.276,0,0,1,.276.276Zm0-9.068a.278.278,0,0,1-.276.276H478.3a.276.276,0,0,1-.276-.276v-3.5a.274.274,0,0,1,.276-.274h10.279a.276.276,0,0,1,.276.274Zm0-9.068a.276.276,0,0,1-.274.28H478.3a.274.274,0,0,1-.276-.274v-3.51a.276.276,0,0,1,.276-.276h10.279a.278.278,0,0,1,.276.276Zm0-9.07a.276.276,0,0,1-.276.276H478.3a.274.274,0,0,1-.276-.276V359a.274.274,0,0,1,.276-.276h10.279a.276.276,0,0,1,.276.276Z" transform="translate(-338.843 -288.855)" fill="#2840f1" opacity="0.1"/>
        <path id="Path_840" data-name="Path 840" d="M379,278.858a5.909,5.909,0,0,0-3.43.372,5.055,5.055,0,0,1-4.138-.01,5.772,5.772,0,0,0-4.844.1,3.017,3.017,0,0,1-1.4.348c-1.964,0-3.6-1.978-3.938-4.588a3.765,3.765,0,0,0,.982-1.058,5.515,5.515,0,0,1,9.847-.035,3.786,3.786,0,0,0,3.263,1.792h.051C376.972,275.775,378.326,277.029,379,278.858Z" transform="translate(-300.654 -232.943)" fill="#2840f1" opacity="0.1"/>
        <path id="Path_841" data-name="Path 841" d="M384.96,242.324l-3.175,2.013,1.927-3.5a3.138,3.138,0,0,0-1.921-.685h-.051a3.711,3.711,0,0,1-.659-.049l-1.072.683.462-.839a3.825,3.825,0,0,1-1.882-1.432l-1.927,1.227,1.213-2.217a5.637,5.637,0,0,0-4.314-2.181,5.913,5.913,0,0,0-4.938,3.046,3.692,3.692,0,0,1-3.273,1.761h-.108c-2.211,0-4,2.506-4,5.6s1.792,5.6,4,5.6a2.988,2.988,0,0,0,1.4-.35,5.773,5.773,0,0,1,4.844-.094,5.055,5.055,0,0,0,4.12,0,5.77,5.77,0,0,1,4.8.092,3,3,0,0,0,1.379.342c2.211,0,4-2.508,4-5.6A7.11,7.11,0,0,0,384.96,242.324Z" transform="translate(-300.646 -204.601)" fill="#2840f1" opacity="0.1"/>
        <path id="Path_842" data-name="Path 842" d="M860.748,470.555a4.155,4.155,0,0,0-2.4.26,3.533,3.533,0,0,1-2.884,0,4.042,4.042,0,0,0-3.392.068,2.1,2.1,0,0,1-.976.243c-1.375,0-2.518-1.385-2.755-3.212a2.674,2.674,0,0,0,.687-.741,3.864,3.864,0,0,1,6.9-.025,2.647,2.647,0,0,0,2.283,1.254h.037A2.891,2.891,0,0,1,860.748,470.555Z" transform="translate(-688.106 -387.314)" fill="#2840f1" opacity="0.1"/>
        <path id="Path_843" data-name="Path 843" d="M864.894,444.973l-2.221,1.409,1.348-2.455a2.2,2.2,0,0,0-1.344-.479h-.035a2.631,2.631,0,0,1-.46-.035l-.755.477.323-.585a2.7,2.7,0,0,1-1.317-1l-1.352.851.851-1.549a3.927,3.927,0,0,0-3.019-1.528,4.131,4.131,0,0,0-3.457,2.134,2.582,2.582,0,0,1-2.285,1.227H851.1c-1.547,0-2.8,1.753-2.8,3.917s1.256,3.919,2.8,3.919a2.1,2.1,0,0,0,.976-.243,4.034,4.034,0,0,1,3.392-.065,3.553,3.553,0,0,0,2.884,0,4.04,4.04,0,0,1,3.361.065,2.117,2.117,0,0,0,.965.237c1.549,0,2.8-1.753,2.8-3.919A4.981,4.981,0,0,0,864.894,444.973Z" transform="translate(-688.074 -367.46)" fill="#2840f1" opacity="0.1"/>
        <path id="Path_844" data-name="Path 844" d="M315.62,406.523a4.156,4.156,0,0,1,2.4.26,3.527,3.527,0,0,0,2.882,0,4.042,4.042,0,0,1,3.392.068,2.109,2.109,0,0,0,.976.243c1.375,0,2.52-1.385,2.757-3.212a2.645,2.645,0,0,1-.687-.741,3.864,3.864,0,0,0-6.9-.033,2.659,2.659,0,0,1-2.287,1.258h-.035A2.877,2.877,0,0,0,315.62,406.523Z" transform="translate(-264.357 -336.374)" fill="#2840f1" opacity="0.1"/>
        <path id="Path_845" data-name="Path 845" d="M292.857,380.965l2.222,1.4-1.35-2.455a2.2,2.2,0,0,1,1.344-.479h.037a2.654,2.654,0,0,0,.46-.035l.753.477-.323-.585a2.7,2.7,0,0,0,1.319-1l1.348.855-.853-1.549a3.947,3.947,0,0,1,3.021-1.528,4.131,4.131,0,0,1,3.457,2.134,2.579,2.579,0,0,0,2.285,1.227h.074c1.548,0,2.8,1.753,2.8,3.917s-1.254,3.919-2.8,3.919a2.115,2.115,0,0,1-.976-.243,4.034,4.034,0,0,0-3.392-.065,3.549,3.549,0,0,1-2.882,0,4.044,4.044,0,0,0-3.363.066,2.112,2.112,0,0,1-.965.237c-1.547,0-2.8-1.753-2.8-3.919A4.981,4.981,0,0,1,292.857,380.965Z" transform="translate(-245.784 -316.544)" fill="#2840f1" opacity="0.1"/>
        <path id="Path_846" data-name="Path 846" d="M295.68,784.661c2.77,1.759,6.761-.02,9.549,1.712.72.446,1.3,1.1,2.046,1.508a6.61,6.61,0,0,0,2.962.614c8.514.329,17.171-2.046,25.471-.127,2.322.536,4.592,1.407,6.971,1.534,4.11.223,8.047-1.782,12.161-1.892,6.239-.168,12.37,4.007,18.39,2.361,1.98-.542,3.8-1.7,5.84-1.892,2.277-.2,4.465.788,6.679,1.366,7.849,2.046,16.023-1.268,24.138-1.516,5.292-.162,10.533.992,15.82,1.258a94.476,94.476,0,0,0,11.283-.338,8.491,8.491,0,0,0,4.13-1.008c1.2-.786,1.935-2.473,1.195-3.7Z" transform="translate(-248.496 -641.458)" fill="#3f3d56"/>
        <path id="Path_847" data-name="Path 847" d="M295.68,784.661c2.77,1.759,6.761-.02,9.549,1.712.72.446,1.3,1.1,2.046,1.508a6.61,6.61,0,0,0,2.962.614c8.514.329,17.171-2.046,25.471-.127,2.322.536,4.592,1.407,6.971,1.534,4.11.223,8.047-1.782,12.161-1.892,6.239-.168,12.37,4.007,18.39,2.361,1.98-.542,3.8-1.7,5.84-1.892,2.277-.2,4.465.788,6.679,1.366,7.849,2.046,16.023-1.268,24.138-1.516,5.292-.162,10.533.992,15.82,1.258a94.476,94.476,0,0,0,11.283-.338,8.491,8.491,0,0,0,4.13-1.008c1.2-.786,1.935-2.473,1.195-3.7Z" transform="translate(-248.496 -641.458)" opacity="0.1"/>
        <path id="Path_848" data-name="Path 848" d="M278.681,779.526c-.092.047-4.117,4.654,8.7,3.186,2.822.39,7.176-.7,8.84.123.859.424,4.162-.508,5.05-.123a9.625,9.625,0,0,0,3.535.584c10.16.313,20.491-1.947,30.4-.121,2.771.51,5.48,1.339,8.319,1.46,4.9.212,9.6-1.7,14.512-1.8,7.445-.16,14.761,3.814,21.945,2.246,2.363-.516,4.531-1.616,6.969-1.8,2.717-.195,5.329.75,7.97,1.3,9.367,1.947,19.121-1.207,28.8-1.442,6.315-.154,12.569.944,18.879,1.2,4.487.179,8.983-.072,13.465-.321a12.247,12.247,0,0,0,4.929-.96c1.43-.747,2.309-2.354,1.426-3.521l-176.717-.007Z" transform="translate(-268.667 -637.174)" fill="#3f3d56"/>
        <g id="Group_77" data-name="Group 77" transform="translate(0 59.125)" opacity="0.1">
          <path id="Path_849" data-name="Path 849" d="M174.73,621.087a5,5,0,0,1-.661,2.532,5.183,5.183,0,0,1,0,5.065,4.655,4.655,0,0,1,.5,1.227c-2.233-2.943,1.722,3.188-.145,0H168.7c.045-.76-.018-10.705.362-11.365a5,5,0,0,1-.661-2.532,5.209,5.209,0,0,1,.3-1.761,4.377,4.377,0,0,1,.362-.771,2.752,2.752,0,0,1,5.01,0,4.562,4.562,0,0,1,.354.747,5.243,5.243,0,0,1,.307,1.786,5.2,5.2,0,0,0,0,5.073Z" transform="translate(-156.323 -546.692)" fill="#3f3d56"/>
          <ellipse id="Ellipse_94" data-name="Ellipse 94" cx="3.164" cy="4.144" rx="3.164" ry="4.144" transform="translate(12.076 60.124)" fill="#3f3d56"/>
          <ellipse id="Ellipse_95" data-name="Ellipse 95" cx="3.164" cy="4.144" rx="3.164" ry="4.144" transform="translate(12.076 55.059)" fill="#3f3d56"/>
          <path id="Path_850" data-name="Path 850" d="M139.7,327.147a15.092,15.092,0,0,1-3.246,9.375,15.164,15.164,0,0,1-9,24.254c-.364.074-.734.131-1.109.176a15.32,15.32,0,0,1-3.477.018q-.577-.061-1.139-.17a14.994,14.994,0,0,1-4.7-1.72,151.074,151.074,0,0,1-7.121-17.14,15.094,15.094,0,0,1,2.719-5.411,15.176,15.176,0,0,1-2.455-14.239l11.512,3.864-10.8-5.609a15.224,15.224,0,0,1,1.729-2.766,15.164,15.164,0,1,1,25.044-16.968l-11.13,8.182,12.069-6.259a15.182,15.182,0,0,1-.29,12.014l-9-.068,8.317,1.366a15.223,15.223,0,0,1-1.18,1.735,15.1,15.1,0,0,1,3.261,9.365Z" transform="translate(-109.367 -293.239)" fill="#2840f1"/>
          <path id="Path_851" data-name="Path 851" d="M139.745,476.889a15.167,15.167,0,0,1-12.234,14.879c-.367.074-.737.131-1.111.176a15.325,15.325,0,0,1-3.477.018q-.577-.061-1.139-.17a14.992,14.992,0,0,1-4.7-1.72,151.063,151.063,0,0,1-7.131-17.148,15.1,15.1,0,0,1,2.719-5.411,15.1,15.1,0,0,1-3.246-9.383c0-1.7,29.113,6.8,27.079,9.375A15.092,15.092,0,0,1,139.745,476.889Z" transform="translate(-109.409 -424.224)" opacity="0.1"/>
        </g>
        <circle id="Ellipse_96" data-name="Ellipse 96" cx="7.313" cy="7.313" r="7.313" transform="translate(107.1 30.688)" fill="#3f3d56"/>
        <path id="Path_858" data-name="Path 858" d="M557.753,530.683c.755,5.3-.166,10.7-1.6,15.849a11.765,11.765,0,0,1-1.058,2.788,29.705,29.705,0,0,1-1.788,2.412,20.939,20.939,0,0,0-2.62,5.654,159.464,159.464,0,0,0-4.668,16.635,1.141,1.141,0,0,0,0,.71c.178.409.718.462,1.162.46l5.74-.031c.2-.393-.174-.818-.409-1.195-.818-1.272-.033-2.925.689-4.257a45.766,45.766,0,0,0,4.046-10.228,27.727,27.727,0,0,1,1.35-4.445,44.636,44.636,0,0,1,2.962-4.793,40.142,40.142,0,0,0,2.8-5.918,38.339,38.339,0,0,0,2.772-8.683,34.691,34.691,0,0,0-.061-8.552.54.54,0,0,0-.626-.614l-7.7-.4c-1.587-.082-1.964-.43-1.722,1.129C557.188,528.371,557.585,529.5,557.753,530.683Z" transform="translate(-447.582 -435.795)" fill="#3f3d56"/>
        <g transform="matrix(1, 0, 0, 1, 0, -6)" filter="url(#Path_859)">
          <path id="Path_859-2" data-name="Path 859" d="M557.753,530.683c.755,5.3-.166,10.7-1.6,15.849a11.765,11.765,0,0,1-1.058,2.788,29.705,29.705,0,0,1-1.788,2.412,20.939,20.939,0,0,0-2.62,5.654,159.464,159.464,0,0,0-4.668,16.635,1.141,1.141,0,0,0,0,.71c.178.409.718.462,1.162.46l5.74-.031c.2-.393-.174-.818-.409-1.195-.818-1.272-.033-2.925.689-4.257a45.766,45.766,0,0,0,4.046-10.228,27.727,27.727,0,0,1,1.35-4.445,44.636,44.636,0,0,1,2.962-4.793,40.142,40.142,0,0,0,2.8-5.918,38.339,38.339,0,0,0,2.772-8.683,34.691,34.691,0,0,0-.061-8.552.54.54,0,0,0-.626-.614l-7.7-.4c-1.587-.082-1.964-.43-1.722,1.129C557.188,528.371,557.585,529.5,557.753,530.683Z" transform="translate(-447.58 -429.79)" fill="#5c63ab" opacity="0.798"/>
        </g>
        <g transform="matrix(1, 0, 0, 1, 0, -6)" filter="url(#Path_860)">
          <path id="Path_860-2" data-name="Path 860" d="M600.175,483.768c-1.565,2.25-3.205,4.84-2.686,7.534.395,2.046,1.953,3.631,3.424,5.114,5.879,5.9,11.66,12.462,13.66,20.552.515,2.091.765,4.236,1.209,6.341a70.028,70.028,0,0,0,3.682,11.118l3.837,9.686a5.8,5.8,0,0,0,5.544-3.682,2.429,2.429,0,0,1-1.454-.935c-1.636-2.264-1.972-5.177-2.391-7.939-.464-3.052-1.084-6.079-1.706-9.1l-2.749-13.386c-.317-1.544-.634-3.091-1.047-4.613-1.6-5.9-4.631-11.455-5.1-17.551a4.122,4.122,0,0,0-.72-2.545,3.739,3.739,0,0,0-2.633-.873C607.213,483.238,603.908,482.864,600.175,483.768Z" transform="translate(-488.49 -395.76)" fill="#5c63ab"/>
        </g>
        <path id="Path_861" data-name="Path 861" d="M542.318,755.963a6.114,6.114,0,0,0-1.272-.164,2.643,2.643,0,0,0-2.078,1.135,5.167,5.167,0,0,0-.558,1.227l-.554,1.591a1.77,1.77,0,0,0-.08,1.432,1.518,1.518,0,0,0,.745.575,13.826,13.826,0,0,0,4.316.773c1.42.139,2.827.389,4.228.651.483.092.964.184,1.452.233a17.306,17.306,0,0,0,3.285-.1l1.127-.108a4.057,4.057,0,0,0,1.109-.2,1.4,1.4,0,0,0,.818-.734,1.327,1.327,0,0,0-1.049-1.649c-.3-.057-.614-.031-.9-.069a4.274,4.274,0,0,1-.99-.3,19.742,19.742,0,0,1-4.167-2.031c-.352-.248-.72-.593-.681-1.023a2.085,2.085,0,0,1,.182-.53,1.936,1.936,0,0,0,.016-1.369c-.07-.188-.2-.386-.395-.409-.54-.066-.475.722-.554,1.023-.108.409-.3.446-.689.409C544.519,756.227,543.414,756.171,542.318,755.963Z" transform="translate(-440.969 -617.875)" fill="#f2f2f2"/>
        <path id="Path_862" data-name="Path 862" d="M718.255,758.653a3.61,3.61,0,0,0,.781,2.2,1.71,1.71,0,0,0,.556.448,2.234,2.234,0,0,0,1.023.162,8.194,8.194,0,0,0,2.841-.575,8.116,8.116,0,0,1,.982-.37,11.029,11.029,0,0,1,1.276-.184c1.692-.243,3.177-1.242,4.811-1.747a10.121,10.121,0,0,0,1.432-.471,6.563,6.563,0,0,0,1.684-1.315,3.021,3.021,0,0,0,1.1-2.786.529.529,0,0,0-.049-.288.429.429,0,0,0-.184-.145,2.669,2.669,0,0,0-1.636-.027,29.086,29.086,0,0,1-6.043.223.878.878,0,0,1-.929-.53l-.767-1.227c-.219-.352-.567-.755-.964-.634a.785.785,0,0,0-.434.818,4.373,4.373,0,0,1,.051.99,1.352,1.352,0,0,1-.655.851,4.178,4.178,0,0,1-1.023.393,7.856,7.856,0,0,0-3.316,1.512C718.157,756.538,718.216,757.857,718.255,758.653Z" transform="translate(-584.614 -615.068)" fill="#f2f2f2"/>
        <path id="Path_863" data-name="Path 863" d="M685.73,355.674a4.739,4.739,0,0,0,1.117-1.215,4.954,4.954,0,0,0,.477-1.679l.321-2.029a6.114,6.114,0,0,1,1.133-3.156,2.1,2.1,0,0,1,2.993-.315,2.626,2.626,0,0,1,.544,1.358,9.888,9.888,0,0,1-2.418,8.182c-.918,1.006-2.046,1.806-3.017,2.757-.847.818-1.581,1.757-2.363,2.647a32.612,32.612,0,0,1-6.437,5.625,28.892,28.892,0,0,0,0-4.666c-.166-1.092-.614-1.681.444-2.4A81.148,81.148,0,0,0,685.73,355.674Z" transform="translate(-552.485 -293.245)" fill="#fbbebe"/>
        <path id="Path_864" data-name="Path 864" d="M609.992,304.64a3.742,3.742,0,0,1-1.432,2.829q3.823,1.338,7.542,2.95a2.613,2.613,0,0,1-.646-1.829,9.232,9.232,0,0,1,1.411-4.93,1.2,1.2,0,0,0,.231-.651c-.029-.483-.6-.706-1.072-.818a26.358,26.358,0,0,0-4.893-.71c-.706-.022-1.542-.245-1.383.653A9.876,9.876,0,0,1,609.992,304.64Z" transform="translate(-497.375 -257.181)" fill="#fbbebe"/>
        <circle id="Ellipse_97" data-name="Ellipse 97" cx="5.979" cy="5.979" r="5.979" transform="translate(111.568 36.084)" fill="#fbbebe"/>
        <g transform="matrix(1, 0, 0, 1, 0, -6)" filter="url(#Path_865)">
          <path id="Path_865-2" data-name="Path 865" d="M611.827,332.627a7.226,7.226,0,0,0-.759-1.272,26.468,26.468,0,0,0-3.588-4.4,22.336,22.336,0,0,0-3.406-2.5,7.732,7.732,0,0,0-2.131-1.023,8.34,8.34,0,0,0-1.368-.186l-1.553-.127a1.273,1.273,0,0,0-.409.012.882.882,0,0,0-.524,1.054,2.593,2.593,0,0,0,.691,1.088c.07,3.169-1.34,6.294-1.53,9.459-.333,5.533,3.044,10.68,3.314,16.217a1.75,1.75,0,0,1-.078.743c-.045.115-.113.219-.164.331a3.239,3.239,0,0,0-.182,1.125,5.716,5.716,0,0,1-1.683,3.6,2.5,2.5,0,0,0,.949.724,17.1,17.1,0,0,0,2.125.507,16.5,16.5,0,0,0,5.542.947,4.89,4.89,0,0,0,.427-1.61c.266-.166.573.188.614.5s-.018.673.2.9a.842.842,0,0,0,.777.156,34.361,34.361,0,0,0,3.375-.792,6.3,6.3,0,0,1,3.422-.012.916.916,0,0,0-.053-1,4.48,4.48,0,0,1-.538-.919,2.065,2.065,0,0,1-.065-.6c0-1.749.36-3.516.018-5.233-.1-.5-.26-.994-.362-1.5a12.929,12.929,0,0,1-.147-2.991c.027-1-.094-2.082-.115-3.1a9.857,9.857,0,0,0-.082-1.254c-.07-.436-.2-.861-.241-1.3-.11-1.117.34-2.226.272-3.347C614.468,335.121,612.489,334.2,611.827,332.627Z" transform="translate(-488.36 -268.41)" fill="#ff4133"/>
        </g>
        <path id="Path_866" data-name="Path 866" d="M571.246,365.527a65.841,65.841,0,0,0-2.864,11.962l-1.636,9.5a45.988,45.988,0,0,0-.912,8.113,8.686,8.686,0,0,1-.151,2.283,12.333,12.333,0,0,1-1.405,2.659,8.751,8.751,0,0,0-.941,5.918c.168.849.626,1.812,1.487,1.911a2.06,2.06,0,0,0,1.733-1.066,13.725,13.725,0,0,0,1.841-4.523,102.3,102.3,0,0,0,2.837-15.769,15.347,15.347,0,0,1,.284-2,14.22,14.22,0,0,1,.691-2q.939-2.328,1.88-4.656a74.368,74.368,0,0,1,4.887-10.506c-1.964-.565-4.007-1.227-5.971-1.786A5.393,5.393,0,0,0,571.246,365.527Z" transform="translate(-461.274 -308.116)" fill="#fbbebe"/>
        <path id="Path_867" data-name="Path 867" d="M600.073,362.341a22.473,22.473,0,0,0-4.2-.239.906.906,0,0,1-.565-.147c-.284-.243-.164-.7-.021-1.045l.679-1.636a2.381,2.381,0,0,1,.544-.9,2.308,2.308,0,0,1,1.291-.438,11.7,11.7,0,0,1,4.472.174,5.348,5.348,0,0,1,3.453,2.676,1.821,1.821,0,0,1,.037,1.79c-.532.763-1.724,1.616-2.614,1.2A13.625,13.625,0,0,0,600.073,362.341Z" transform="translate(-486.696 -302.011)" fill="#ff4133"/>
        <path id="Path_868" data-name="Path 868" d="M581.853,229.039a6.038,6.038,0,0,0-3.334.961,7.313,7.313,0,0,0-7.18-1.681,4.179,4.179,0,1,0-4.828,4.836,7.313,7.313,0,1,0,14.037,4.11,6.548,6.548,0,0,0,1.311.133c2.884,0,5.224-1.872,5.224-4.179S584.734,229.039,581.853,229.039Z" transform="translate(-461.168 -196.263)" fill="#3f3d56"/>
        <path id="Path_869" data-name="Path 869" d="M651.268,269.561a6.363,6.363,0,0,1-1.311-.133,7.274,7.274,0,0,1-.957,2.1,6.563,6.563,0,0,0,1.227.119c2.7,0,4.909-1.636,5.194-3.731A5.763,5.763,0,0,1,651.268,269.561Z" transform="translate(-529.542 -230.517)" opacity="0.1"/>
        <path id="Path_870" data-name="Path 870" d="M574.544,245.751a7.323,7.323,0,0,1-6.992-9.467,4.179,4.179,0,0,1-3.455-4.116,4.117,4.117,0,0,1,.067-.749,4.179,4.179,0,0,0,2.344,6.955,7.313,7.313,0,1,0,13.969,4.333A7.3,7.3,0,0,1,574.544,245.751Z" transform="translate(-461.176 -201.483)" opacity="0.1"/>
        <rect id="Rectangle_192" data-name="Rectangle 192" width="0.137" height="1.133" rx="0.069" transform="matrix(0.814, 0.581, -0.581, 0.814, 139.973, 56.462)" fill="#3a3768"/>
        <rect id="Rectangle_193" data-name="Rectangle 193" width="0.078" height="0.372" rx="0.039" transform="matrix(0.814, 0.581, -0.581, 0.814, 136.77, 53.085)" fill="#3a3768"/>
        <rect id="Rectangle_194" data-name="Rectangle 194" width="0.086" height="0.648" rx="0.043" transform="matrix(0.814, 0.581, -0.581, 0.814, 136.369, 53.642)" fill="#3a3768"/>
        <rect id="Rectangle_195" data-name="Rectangle 195" width="0.082" height="0.655" rx="0.041" transform="matrix(0.814, 0.581, -0.581, 0.814, 135.863, 54.356)" fill="#3a3768"/>
        <rect id="Rectangle_196" data-name="Rectangle 196" width="4.598" height="9.346" rx="2.299" transform="matrix(0.814, 0.581, -0.581, 0.814, 137.712, 52.49)" fill="#3a3768"/>
        <rect id="Rectangle_197" data-name="Rectangle 197" width="4.598" height="9.346" rx="2.299" transform="matrix(0.814, 0.581, -0.581, 0.814, 137.712, 52.49)" opacity="0.1"/>
        <rect id="Rectangle_198" data-name="Rectangle 198" width="4.598" height="9.346" rx="2.299" transform="matrix(0.814, 0.581, -0.581, 0.814, 137.522, 52.108)" fill="#3a3768"/>
        <path id="Path_871" data-name="Path 871" d="M721.248,344.279l-.428-.307-.037.051a.3.3,0,0,1-.409.072l-1.366-.976a.3.3,0,0,1-.07-.419l.037-.051-.409-.286a.364.364,0,0,0-.509.084l-4.721,6.617a.366.366,0,0,0,.084.509l2.688,1.917a.364.364,0,0,0,.509-.086l4.721-6.615a.364.364,0,0,0-.09-.509Z" transform="translate(-580.663 -289.677)" fill="#ff4133"/>
        <rect id="Rectangle_199" data-name="Rectangle 199" width="0.642" height="0.131" rx="0.065" transform="matrix(0.814, 0.581, -0.581, 0.814, 138.869, 53.415)" fill="#e6e8ec"/>
        <circle id="Ellipse_98" data-name="Ellipse 98" cx="0.074" cy="0.074" r="0.074" transform="translate(139.41 53.872)" fill="#e6e8ec"/>
        <g transform="matrix(1, 0, 0, 1, 0, -6)" filter="url(#Path_874)">
          <path id="Path_874-2" data-name="Path 874" d="M693.705,85.07A13.705,13.705,0,0,0,680,98.775c0,7.569,14.36,35.491,14.36,35.491s13.051-27.918,13.051-35.489A13.706,13.706,0,0,0,693.7,85.07Zm0,22.845a7.18,7.18,0,1,1,7.18-7.18A7.18,7.18,0,0,1,693.705,107.915Z" transform="translate(-554.2 -79.07)" fill="#ff4133"/>
        </g>
        <path id="Path_875" data-name="Path 875" d="M874.7,586.326l-21.217-36.749a.675.675,0,0,0-1.172,0l-21.217,36.749a.675.675,0,0,0,.585,1.023h6.329a.679.679,0,0,1,.677.677v7.843a.677.677,0,0,0,.675.677h8.258a.677.677,0,0,0,.677-.677v-3.79a.675.675,0,0,1,.675-.675h7.851a.677.677,0,0,1,.677.675v3.79a.677.677,0,0,0,.677.677h8.256a.677.677,0,0,0,.677-.677v-7.851a.677.677,0,0,1,.677-.677h6.329a.677.677,0,0,0,.585-1.015Zm-29.587,4.067a.674.674,0,0,1-.479.2h-2.972a.677.677,0,1,1,0-1.354h2.978a.677.677,0,0,1,.479,1.156Zm19.49,0a.674.674,0,0,1-.479.2h-2.97a.677.677,0,1,1,0-1.354h2.982a.677.677,0,0,1,.479,1.156Z" transform="translate(-805.587 -454.289)" fill="#2840f1" opacity="0.1"/>
        <path id="Path_856" data-name="Path 856" d="M358.115,725.794l3.915-2.3a9.436,9.436,0,0,0-2-2.4l-7.387,2.3,5.789-3.4a9.41,9.41,0,0,0-13.93,8.254c0,5.2,4.212,5.376,9.41,5.376s9.41-.18,9.41-5.376a9.366,9.366,0,0,0-.808-3.819Z" transform="translate(-287.33 -589.193)" fill="#c2ccd3"/>
        <path id="Path_857" data-name="Path 857" d="M359.088,754.292A7.315,7.315,0,0,0,357.7,753.2a6.459,6.459,0,0,0-2.285-1.115,17.132,17.132,0,0,0-2.25-.065,5.249,5.249,0,0,1-3.439-1.575,10.735,10.735,0,0,0-1.6-1.655,3.514,3.514,0,0,0-2.4-.44,5.947,5.947,0,0,0-.708.145,9.379,9.379,0,0,0-.556,3.193c0,5.2,4.212,5.376,9.41,5.376a19.786,19.786,0,0,0,6.5-.679l-.282-.528A7.448,7.448,0,0,0,359.088,754.292Z" transform="translate(-287.306 -612.641)" opacity="0.1"/>
      </g>
      <rect id="Rectangle_200" data-name="Rectangle 200" width="10.368" height="4.03" transform="translate(41.843 115.234)" fill="#fff"/>
    </g>
    <g id="noun_eat_1641218" transform="translate(417.447 245.76)">
      <g id="Group_56" data-name="Group 56" transform="translate(0 0)">
        <path id="Path_433" data-name="Path 433" d="M29.036,6.575V9.426a.2.2,0,1,1-.392,0l-.116-2.851h-.218l-.058,2.851a.2.2,0,1,1-.392,0L27.8,6.575h-.217L27.47,9.426a.2.2,0,1,1-.392,0V6.575h-.22l-.174,3.636a.58.58,0,0,0,.58.58h.3V17.56a.489.489,0,1,0,.978,0V10.792h.3a.58.58,0,0,0,.58-.58l-.174-3.636Z" transform="translate(-26.684 -6.575)" fill="#ff4133"/>
        <path id="Path_434" data-name="Path 434" d="M53.771,6.575h-.425A1.13,1.13,0,0,0,52.217,7.7v4.014a.7.7,0,0,0,.7.7H53.5V17.56a.489.489,0,1,0,.978,0V7.278A.7.7,0,0,0,53.771,6.575Z" transform="translate(-47.636 -6.575)" fill="#ff4133"/>
      </g>
    </g>
  </g>
</svg>
