<svg xmlns="http://www.w3.org/2000/svg" xmlns:xlink="http://www.w3.org/1999/xlink" width="200.226" height="160.18" viewBox="0 0 200.226 160.18">
  <defs>
    <filter id="Path_859" x="89.256" y="90.079" width="39.385" height="67.141" filterUnits="userSpaceOnUse">
      <feOffset dy="3" input="SourceAlpha"/>
      <feGaussianBlur stdDeviation="3" result="blur"/>
      <feFlood flood-opacity="0.161"/>
      <feComposite operator="in" in2="blur"/>
      <feComposite in="SourceGraphic"/>
    </filter>
    <filter id="Path_860" x="99.763" y="81.336" width="49.415" height="78.843" filterUnits="userSpaceOnUse">
      <feOffset dy="3" input="SourceAlpha"/>
      <feGaussianBlur stdDeviation="3" result="blur-2"/>
      <feFlood flood-opacity="0.161"/>
      <feComposite operator="in" in2="blur-2"/>
      <feComposite in="SourceGraphic"/>
    </filter>
    <filter id="Path_865" x="99.73" y="48.63" width="36.771" height="53.793" filterUnits="userSpaceOnUse">
      <feOffset dy="3" input="SourceAlpha"/>
      <feGaussianBlur stdDeviation="3" result="blur-3"/>
      <feFlood flood-opacity="0.161"/>
      <feComposite operator="in" in2="blur-3"/>
      <feComposite in="SourceGraphic"/>
    </filter>
    <filter id="Path_874" x="116.64" y="0" width="45.376" height="67.134" filterUnits="userSpaceOnUse">
      <feOffset dy="3" input="SourceAlpha"/>
      <feGaussianBlur stdDeviation="3" result="blur-4"/>
      <feFlood flood-opacity="0.161"/>
      <feComposite operator="in" in2="blur-4"/>
      <feComposite in="SourceGraphic"/>
    </filter>
  </defs>
  <g id="Group_80" data-name="Group 80" transform="translate(-233.407 -248)">
    <g id="direction" transform="translate(233.407 254)">
      <path id="Path_837" data-name="Path 837" d="M874.645,586.28l-21.19-36.7a.674.674,0,0,0-1.171,0l-21.19,36.7a.674.674,0,0,0,.584,1.021H838a.678.678,0,0,1,.676.676v7.833a.676.676,0,0,0,.674.676H847.6a.676.676,0,0,0,.676-.676v-3.786a.674.674,0,0,1,.674-.674h7.841a.676.676,0,0,1,.676.674v3.786a.676.676,0,0,0,.676.676h8.245a.676.676,0,0,0,.676-.676v-7.841a.676.676,0,0,1,.676-.676h6.321a.676.676,0,0,0,.584-1.013Zm-29.55,4.061a.674.674,0,0,1-.478.2h-2.969a.676.676,0,1,1,0-1.352h2.975a.676.676,0,0,1,.478,1.154Zm19.466,0a.674.674,0,0,1-.478.2h-2.966a.676.676,0,1,1,0-1.352H864.1a.676.676,0,0,1,.478,1.154Z" transform="translate(-674.509 -454.409)" fill="#2840f1" opacity="0.1"/>
      <path id="Path_839" data-name="Path 839" d="M491.852,355.183H465.63v-5.671a1.357,1.357,0,0,0-1.357-1.357h-7.7v-6.041a.854.854,0,0,0-.854-.854H445.8a.854.854,0,0,0-.854.854v6.039h-9.052a1.357,1.357,0,0,0-1.357,1.357v5.671h-25a.276.276,0,0,0-.274.276v75.29a.276.276,0,0,0,.274.276h16.618a.276.276,0,0,0,.276-.276V420.618a.278.278,0,0,1,.276-.276h7.02a.278.278,0,0,1,.276.276v10.129a.276.276,0,0,0,.274.276h32.841a.278.278,0,0,0,.276-.276V420.618a.276.276,0,0,1,.274-.276h7.02a.276.276,0,0,1,.276.276v10.129a.278.278,0,0,0,.276.276h16.618a.278.278,0,0,0,.276-.276V355.459A.278.278,0,0,0,491.852,355.183Zm-68.4,61.641a.274.274,0,0,1-.274.274H412.915a.274.274,0,0,1-.276-.274v-3.5a.276.276,0,0,1,.276-.276h10.264a.276.276,0,0,1,.274.276Zm0-9.059a.274.274,0,0,1-.274.276H412.915a.274.274,0,0,1-.276-.276v-3.5a.274.274,0,0,1,.276-.276h10.264a.274.274,0,0,1,.274.276Zm0-9.057a.276.276,0,0,1-.274.276H412.915a.276.276,0,0,1-.276-.276V395.2a.276.276,0,0,1,.276-.276h10.264a.276.276,0,0,1,.274.276Zm0-9.059a.274.274,0,0,1-.274.276H412.915a.274.274,0,0,1-.276-.276v-3.5a.274.274,0,0,1,.276-.276h10.264a.274.274,0,0,1,.274.276Zm0-9.057a.276.276,0,0,1-.274.276H412.915a.276.276,0,0,1-.276-.276v-3.506a.274.274,0,0,1,.276-.274h10.264a.274.274,0,0,1,.274.274Zm0-9.057a.274.274,0,0,1-.274.274H412.915a.274.274,0,0,1-.276-.274v-3.506a.276.276,0,0,1,.276-.276h10.264a.276.276,0,0,1,.274.276Zm0-9.059a.274.274,0,0,1-.274.276H412.915a.274.274,0,0,1-.276-.276v-3.5a.274.274,0,0,1,.276-.276h10.264a.274.274,0,0,1,.274.276Zm24.334,54.344a.274.274,0,0,1-.276.274H437.247a.276.276,0,0,1-.276-.274v-3.5a.278.278,0,0,1,.276-.276h10.264a.276.276,0,0,1,.276.276Zm0-9.059a.274.274,0,0,1-.276.276H437.247a.276.276,0,0,1-.276-.276v-3.5a.276.276,0,0,1,.276-.276h10.264a.274.274,0,0,1,.276.276Zm0-9.057a.276.276,0,0,1-.276.276H437.247a.278.278,0,0,1-.276-.276v-3.5a.278.278,0,0,1,.276-.276h10.264a.276.276,0,0,1,.276.276Zm0-9.059a.274.274,0,0,1-.276.276H437.247a.276.276,0,0,1-.276-.276v-3.5a.276.276,0,0,1,.276-.276h10.264a.274.274,0,0,1,.276.276Zm0-9.057a.276.276,0,0,1-.276.276H437.247a.278.278,0,0,1-.276-.276v-3.5a.276.276,0,0,1,.276-.274h10.264a.274.274,0,0,1,.276.274Zm0-9.057a.274.274,0,0,1-.276.274H437.247a.276.276,0,0,1-.276-.274v-3.5a.278.278,0,0,1,.276-.276h10.264a.276.276,0,0,1,.276.276Zm0-9.059a.274.274,0,0,1-.276.276H437.247a.276.276,0,0,1-.276-.276v-3.5a.276.276,0,0,1,.276-.276h10.264a.274.274,0,0,1,.276.276Zm16.628,54.344a.274.274,0,0,1-.276.274H453.875a.276.276,0,0,1-.276-.274v-3.5a.278.278,0,0,1,.276-.276h10.264a.276.276,0,0,1,.276.276Zm0-9.059a.274.274,0,0,1-.276.276H453.875a.276.276,0,0,1-.276-.276v-3.5a.276.276,0,0,1,.276-.276h10.264a.274.274,0,0,1,.276.276Zm0-9.057a.276.276,0,0,1-.276.276H453.875a.278.278,0,0,1-.276-.276v-3.5a.278.278,0,0,1,.276-.276h10.264a.276.276,0,0,1,.276.276Zm0-9.059a.274.274,0,0,1-.276.276H453.875a.276.276,0,0,1-.276-.276v-3.493a.276.276,0,0,1,.276-.276h10.264a.274.274,0,0,1,.276.276Zm0-9.057a.276.276,0,0,1-.276.276H453.875a.278.278,0,0,1-.276-.276v-3.5a.276.276,0,0,1,.276-.274h10.264a.274.274,0,0,1,.276.274Zm0-9.057a.274.274,0,0,1-.276.274H453.875a.276.276,0,0,1-.276-.274v-3.5a.278.278,0,0,1,.276-.276h10.264a.276.276,0,0,1,.276.276Zm0-9.059a.274.274,0,0,1-.276.276H453.875a.276.276,0,0,1-.276-.276v-3.493a.276.276,0,0,1,.276-.276h10.264a.274.274,0,0,1,.276.276Zm24.334,54.343a.276.276,0,0,1-.276.274H478.209a.274.274,0,0,1-.276-.274v-3.493a.276.276,0,0,1,.276-.276h10.266a.278.278,0,0,1,.276.276Zm0-9.059a.276.276,0,0,1-.276.276H478.209a.274.274,0,0,1-.276-.276v-3.5a.274.274,0,0,1,.276-.276h10.266a.276.276,0,0,1,.276.276Zm0-9.057a.278.278,0,0,1-.276.276H478.209a.276.276,0,0,1-.276-.276v-3.5a.276.276,0,0,1,.276-.276h10.266a.278.278,0,0,1,.276.276Zm0-9.059a.276.276,0,0,1-.276.276H478.209a.274.274,0,0,1-.276-.276v-3.491a.274.274,0,0,1,.276-.276h10.266a.276.276,0,0,1,.276.276Zm0-9.057a.278.278,0,0,1-.276.276H478.209a.276.276,0,0,1-.276-.276v-3.5a.274.274,0,0,1,.276-.274h10.266a.276.276,0,0,1,.276.274Zm0-9.057a.276.276,0,0,1-.274.28H478.209a.274.274,0,0,1-.276-.274v-3.506a.276.276,0,0,1,.276-.276h10.266a.278.278,0,0,1,.276.276Zm0-9.059a.276.276,0,0,1-.276.276H478.209a.274.274,0,0,1-.276-.276v-3.491a.274.274,0,0,1,.276-.276h10.266a.276.276,0,0,1,.276.276Z" transform="translate(-338.932 -288.921)" fill="#2840f1" opacity="0.1"/>
      <path id="Path_840" data-name="Path 840" d="M378.973,278.848a5.9,5.9,0,0,0-3.426.372,5.048,5.048,0,0,1-4.133-.01,5.765,5.765,0,0,0-4.838.1,3.014,3.014,0,0,1-1.393.347c-1.961,0-3.594-1.976-3.933-4.582a3.76,3.76,0,0,0,.981-1.056,5.508,5.508,0,0,1,9.835-.035,3.781,3.781,0,0,0,3.259,1.79h.051C376.952,275.769,378.3,277.021,378.973,278.848Z" transform="translate(-300.73 -232.991)" fill="#2840f1" opacity="0.1"/>
      <path id="Path_841" data-name="Path 841" d="M384.931,242.315l-3.171,2.01,1.924-3.5a3.134,3.134,0,0,0-1.918-.684h-.051a3.71,3.71,0,0,1-.658-.049l-1.071.682.462-.838a3.82,3.82,0,0,1-1.88-1.43l-1.924,1.226,1.211-2.215a5.63,5.63,0,0,0-4.309-2.178,5.906,5.906,0,0,0-4.932,3.042,3.688,3.688,0,0,1-3.269,1.759h-.108c-2.208,0-4,2.5-4,5.592s1.79,5.592,4,5.592a2.985,2.985,0,0,0,1.393-.349,5.765,5.765,0,0,1,4.838-.094,5.048,5.048,0,0,0,4.115,0,5.763,5.763,0,0,1,4.8.092,2.993,2.993,0,0,0,1.377.341c2.208,0,4-2.5,4-5.592A7.1,7.1,0,0,0,384.931,242.315Z" transform="translate(-300.722 -204.64)" fill="#2840f1" opacity="0.1"/>
      <path id="Path_842" data-name="Path 842" d="M860.733,470.548a4.15,4.15,0,0,0-2.4.259,3.528,3.528,0,0,1-2.881,0,4.037,4.037,0,0,0-3.387.067,2.1,2.1,0,0,1-.974.243c-1.373,0-2.515-1.383-2.752-3.207a2.669,2.669,0,0,0,.686-.74,3.859,3.859,0,0,1,6.889-.025,2.644,2.644,0,0,0,2.28,1.252h.037A2.887,2.887,0,0,1,860.733,470.548Z" transform="translate(-688.308 -387.413)" fill="#2840f1" opacity="0.1"/>
      <path id="Path_843" data-name="Path 843" d="M864.873,444.967l-2.219,1.408L864,443.923a2.194,2.194,0,0,0-1.342-.478h-.035a2.63,2.63,0,0,1-.46-.035l-.754.476.323-.584a2.7,2.7,0,0,1-1.316-1l-1.35.85.85-1.547a3.922,3.922,0,0,0-3.015-1.526,4.126,4.126,0,0,0-3.453,2.131,2.578,2.578,0,0,1-2.282,1.226H851.1c-1.545,0-2.8,1.751-2.8,3.912s1.254,3.914,2.8,3.914a2.1,2.1,0,0,0,.974-.243,4.029,4.029,0,0,1,3.387-.065,3.549,3.549,0,0,0,2.881,0,4.035,4.035,0,0,1,3.357.065,2.114,2.114,0,0,0,.964.237c1.547,0,2.8-1.751,2.8-3.914a4.975,4.975,0,0,0-.589-2.376Z" transform="translate(-688.276 -367.552)" fill="#2840f1" opacity="0.1"/>
      <path id="Path_844" data-name="Path 844" d="M315.62,406.516a4.151,4.151,0,0,1,2.4.259,3.522,3.522,0,0,0,2.879,0,4.037,4.037,0,0,1,3.387.067,2.106,2.106,0,0,0,.975.243c1.373,0,2.517-1.383,2.754-3.207a2.642,2.642,0,0,1-.686-.74,3.859,3.859,0,0,0-6.893-.033,2.656,2.656,0,0,1-2.284,1.256h-.035A2.874,2.874,0,0,0,315.62,406.516Z" transform="translate(-264.422 -336.456)" fill="#2840f1" opacity="0.1"/>
      <path id="Path_845" data-name="Path 845" d="M292.856,380.959l2.219,1.4-1.348-2.452a2.2,2.2,0,0,1,1.342-.478h.037a2.65,2.65,0,0,0,.46-.035l.752.476-.323-.584a2.7,2.7,0,0,0,1.318-1l1.346.854-.852-1.547a3.942,3.942,0,0,1,3.017-1.526,4.126,4.126,0,0,1,3.453,2.131,2.576,2.576,0,0,0,2.282,1.226h.074c1.547,0,2.8,1.751,2.8,3.912s-1.252,3.914-2.8,3.914a2.112,2.112,0,0,1-.974-.243,4.029,4.029,0,0,0-3.387-.065,3.544,3.544,0,0,1-2.879,0,4.039,4.039,0,0,0-3.359.065,2.109,2.109,0,0,1-.964.237c-1.545,0-2.8-1.751-2.8-3.914A4.974,4.974,0,0,1,292.856,380.959Z" transform="translate(-245.842 -316.619)" fill="#2840f1" opacity="0.1"/>
      <path id="Path_846" data-name="Path 846" d="M295.68,784.66c2.766,1.757,6.752-.02,9.537,1.71.719.445,1.3,1.1,2.043,1.506a6.6,6.6,0,0,0,2.958.613c8.5.329,17.149-2.043,25.439-.127,2.319.535,4.587,1.406,6.963,1.532,4.1.223,8.037-1.779,12.146-1.89,6.231-.168,12.354,4,18.366,2.358,1.978-.541,3.792-1.7,5.833-1.89,2.274-.2,4.46.786,6.67,1.365,7.839,2.043,16-1.267,24.107-1.514,5.285-.161,10.519.991,15.8,1.256a94.365,94.365,0,0,0,11.269-.337,8.48,8.48,0,0,0,4.125-1.007c1.2-.785,1.933-2.47,1.193-3.7Z" transform="translate(-248.556 -641.639)" fill="#3f3d56"/>
      <path id="Path_847" data-name="Path 847" d="M295.68,784.66c2.766,1.757,6.752-.02,9.537,1.71.719.445,1.3,1.1,2.043,1.506a6.6,6.6,0,0,0,2.958.613c8.5.329,17.149-2.043,25.439-.127,2.319.535,4.587,1.406,6.963,1.532,4.1.223,8.037-1.779,12.146-1.89,6.231-.168,12.354,4,18.366,2.358,1.978-.541,3.792-1.7,5.833-1.89,2.274-.2,4.46.786,6.67,1.365,7.839,2.043,16-1.267,24.107-1.514,5.285-.161,10.519.991,15.8,1.256a94.365,94.365,0,0,0,11.269-.337,8.48,8.48,0,0,0,4.125-1.007c1.2-.785,1.933-2.47,1.193-3.7Z" transform="translate(-248.556 -641.639)" opacity="0.1"/>
      <path id="Path_848" data-name="Path 848" d="M278.68,779.526c-.092.047-4.111,4.648,8.694,3.182,2.819.389,7.167-.7,8.829.122.858.424,4.157-.507,5.044-.122a9.615,9.615,0,0,0,3.53.583c10.147.313,20.465-1.944,30.358-.12,2.767.509,5.473,1.338,8.309,1.458,4.9.212,9.591-1.693,14.494-1.8,7.436-.159,14.743,3.809,21.918,2.244,2.36-.515,4.525-1.614,6.96-1.8,2.714-.194,5.322.749,7.96,1.3,9.355,1.944,19.1-1.205,28.769-1.441,6.307-.153,12.553.943,18.856,1.2,4.481.179,8.972-.072,13.448-.321a12.229,12.229,0,0,0,4.922-.958c1.429-.747,2.306-2.35,1.424-3.517L285.7,779.526Z" transform="translate(-268.678 -637.354)" fill="#3f3d56"/>
      <g id="Group_77" data-name="Group 77" transform="translate(0 59.051)" opacity="0.1">
        <path id="Path_849" data-name="Path 849" d="M174.722,621.076a5,5,0,0,1-.66,2.529,5.177,5.177,0,0,1,0,5.058,4.648,4.648,0,0,1,.5,1.226c-2.23-2.94,1.719,3.184-.145,0H168.7c.045-.76-.018-10.692.362-11.351a5,5,0,0,1-.66-2.529,5.2,5.2,0,0,1,.3-1.759,4.369,4.369,0,0,1,.362-.77,2.749,2.749,0,0,1,5,0,4.551,4.551,0,0,1,.353.746,5.235,5.235,0,0,1,.306,1.784,5.193,5.193,0,0,0,0,5.067Z" transform="translate(-156.339 -546.774)" fill="#3f3d56"/>
        <ellipse id="Ellipse_94" data-name="Ellipse 94" cx="3.161" cy="4.139" rx="3.161" ry="4.139" transform="translate(12.06 60.048)" fill="#3f3d56"/>
        <ellipse id="Ellipse_95" data-name="Ellipse 95" cx="3.161" cy="4.139" rx="3.161" ry="4.139" transform="translate(12.06 54.989)" fill="#3f3d56"/>
        <path id="Path_850" data-name="Path 850" d="M139.665,327.1a15.073,15.073,0,0,1-3.242,9.363,15.145,15.145,0,0,1-8.989,24.224c-.364.074-.733.131-1.107.176a15.3,15.3,0,0,1-3.473.018q-.576-.061-1.138-.17a14.976,14.976,0,0,1-4.7-1.718,150.885,150.885,0,0,1-7.112-17.118,15.075,15.075,0,0,1,2.715-5.4,15.157,15.157,0,0,1-2.452-14.221l11.5,3.859-10.783-5.6a15.206,15.206,0,0,1,1.726-2.762A15.145,15.145,0,1,1,137.622,300.8l-11.116,8.172,12.054-6.252a15.163,15.163,0,0,1-.29,12l-8.989-.067,8.307,1.365a15.2,15.2,0,0,1-1.179,1.732A15.077,15.077,0,0,1,139.665,327.1Z" transform="translate(-109.367 -293.239)" fill="#2840f1"/>
        <path id="Path_851" data-name="Path 851" d="M139.707,476.865a15.148,15.148,0,0,1-12.219,14.86c-.366.074-.736.131-1.11.176a15.306,15.306,0,0,1-3.473.018q-.576-.061-1.138-.17a14.974,14.974,0,0,1-4.7-1.718,150.876,150.876,0,0,1-7.122-17.126,15.075,15.075,0,0,1,2.715-5.4,15.084,15.084,0,0,1-3.242-9.371c0-1.7,29.076,6.787,27.045,9.363A15.073,15.073,0,0,1,139.707,476.865Z" transform="translate(-109.409 -424.266)" opacity="0.1"/>
      </g>
      <circle id="Ellipse_96" data-name="Ellipse 96" cx="7.304" cy="7.304" r="7.304" transform="translate(106.965 30.649)" fill="#3f3d56"/>
      <path id="Path_858" data-name="Path 858" d="M557.738,530.677c.754,5.289-.165,10.683-1.6,15.829a11.758,11.758,0,0,1-1.056,2.785A29.7,29.7,0,0,1,553.3,551.7a20.912,20.912,0,0,0-2.617,5.647,159.254,159.254,0,0,0-4.662,16.614,1.138,1.138,0,0,0,0,.709c.178.409.717.462,1.16.46l5.733-.031c.2-.392-.174-.817-.409-1.193-.817-1.271-.033-2.922.688-4.251a45.708,45.708,0,0,0,4.041-10.215A27.7,27.7,0,0,1,558.582,555a44.577,44.577,0,0,1,2.958-4.787,40.091,40.091,0,0,0,2.8-5.91,38.288,38.288,0,0,0,2.768-8.672,34.643,34.643,0,0,0-.061-8.542.539.539,0,0,0-.625-.613l-7.692-.4c-1.585-.082-1.961-.429-1.72,1.128C557.174,528.368,557.571,529.5,557.738,530.677Z" transform="translate(-447.706 -435.908)" fill="#3f3d56"/>
      <g transform="matrix(1, 0, 0, 1, 0, -6)" filter="url(#Path_859)">
        <path id="Path_859-2" data-name="Path 859" d="M557.738,530.677c.754,5.289-.165,10.683-1.6,15.829a11.758,11.758,0,0,1-1.056,2.785A29.7,29.7,0,0,1,553.3,551.7a20.912,20.912,0,0,0-2.617,5.647,159.254,159.254,0,0,0-4.662,16.614,1.138,1.138,0,0,0,0,.709c.178.409.717.462,1.16.46l5.733-.031c.2-.392-.174-.817-.409-1.193-.817-1.271-.033-2.922.688-4.251a45.708,45.708,0,0,0,4.041-10.215A27.7,27.7,0,0,1,558.582,555a44.577,44.577,0,0,1,2.958-4.787,40.091,40.091,0,0,0,2.8-5.91,38.288,38.288,0,0,0,2.768-8.672,34.643,34.643,0,0,0-.061-8.542.539.539,0,0,0-.625-.613l-7.692-.4c-1.585-.082-1.961-.429-1.72,1.128C557.174,528.368,557.571,529.5,557.738,530.677Z" transform="translate(-447.71 -429.91)" fill="#5c63ab" opacity="0.798"/>
      </g>
      <g transform="matrix(1, 0, 0, 1, 0, -6)" filter="url(#Path_860)">
        <path id="Path_860-2" data-name="Path 860" d="M600.171,483.768c-1.563,2.247-3.2,4.834-2.682,7.524.394,2.043,1.951,3.626,3.42,5.107,5.872,5.9,11.645,12.446,13.643,20.526.515,2.088.764,4.231,1.207,6.333a69.937,69.937,0,0,0,3.677,11.1l3.833,9.674a5.794,5.794,0,0,0,5.537-3.677,2.425,2.425,0,0,1-1.453-.934c-1.634-2.262-1.969-5.171-2.388-7.929-.464-3.048-1.083-6.072-1.7-9.093l-2.746-13.369c-.317-1.543-.633-3.087-1.046-4.607-1.6-5.888-4.625-11.441-5.093-17.529a4.117,4.117,0,0,0-.719-2.541,3.734,3.734,0,0,0-2.629-.872C607.2,483.238,603.9,482.865,600.171,483.768Z" transform="translate(-488.63 -395.86)" fill="#5c63ab"/>
      </g>
      <path id="Path_861" data-name="Path 861" d="M542.312,755.961a6.1,6.1,0,0,0-1.271-.163,2.64,2.64,0,0,0-2.076,1.134,5.157,5.157,0,0,0-.558,1.226l-.554,1.589a1.768,1.768,0,0,0-.08,1.43,1.516,1.516,0,0,0,.744.574,13.806,13.806,0,0,0,4.311.772c1.418.139,2.823.388,4.223.65.482.092.962.184,1.451.233a17.282,17.282,0,0,0,3.281-.1l1.126-.108a4.054,4.054,0,0,0,1.107-.2,1.4,1.4,0,0,0,.817-.733,1.325,1.325,0,0,0-1.048-1.647c-.3-.057-.613-.031-.9-.069a4.268,4.268,0,0,1-.989-.3,19.717,19.717,0,0,1-4.161-2.029c-.351-.247-.719-.592-.68-1.022a2.083,2.083,0,0,1,.182-.529,1.933,1.933,0,0,0,.016-1.367c-.07-.188-.2-.386-.394-.409-.539-.065-.474.721-.554,1.022-.108.409-.3.445-.688.409C544.51,756.225,543.407,756.17,542.312,755.961Z" transform="translate(-441.091 -618.047)" fill="#f2f2f2"/>
      <path id="Path_862" data-name="Path 862" d="M718.255,758.644a3.606,3.606,0,0,0,.78,2.2,1.708,1.708,0,0,0,.556.447,2.231,2.231,0,0,0,1.022.161,8.184,8.184,0,0,0,2.838-.574,8.109,8.109,0,0,1,.981-.37,11.027,11.027,0,0,1,1.275-.184c1.69-.243,3.173-1.24,4.805-1.745a10.1,10.1,0,0,0,1.43-.47,6.555,6.555,0,0,0,1.681-1.314,3.017,3.017,0,0,0,1.1-2.783.528.528,0,0,0-.049-.288.428.428,0,0,0-.184-.145,2.667,2.667,0,0,0-1.634-.027,29.05,29.05,0,0,1-6.035.223.876.876,0,0,1-.927-.529l-.766-1.226c-.219-.351-.566-.754-.962-.633a.784.784,0,0,0-.433.817,4.365,4.365,0,0,1,.051.989,1.35,1.35,0,0,1-.654.85,4.178,4.178,0,0,1-1.021.392,7.845,7.845,0,0,0-3.312,1.51C718.157,756.531,718.216,757.849,718.255,758.644Z" transform="translate(-584.782 -615.24)" fill="#f2f2f2"/>
      <path id="Path_863" data-name="Path 863" d="M685.72,355.663a4.735,4.735,0,0,0,1.115-1.214,4.947,4.947,0,0,0,.476-1.677l.321-2.027a6.107,6.107,0,0,1,1.132-3.152,2.1,2.1,0,0,1,2.989-.315,2.622,2.622,0,0,1,.544,1.357,9.876,9.876,0,0,1-2.415,8.172c-.917,1.005-2.043,1.8-3.013,2.754-.846.817-1.579,1.755-2.36,2.644a32.573,32.573,0,0,1-6.429,5.618,28.854,28.854,0,0,0,0-4.66c-.166-1.091-.613-1.679.443-2.392A81.042,81.042,0,0,0,685.72,355.663Z" transform="translate(-552.643 -293.313)" fill="#fbbebe"/>
      <path id="Path_864" data-name="Path 864" d="M609.99,304.636a3.737,3.737,0,0,1-1.43,2.825q3.818,1.336,7.532,2.946a2.61,2.61,0,0,1-.646-1.826,9.219,9.219,0,0,1,1.41-4.924,1.2,1.2,0,0,0,.231-.65c-.029-.482-.6-.7-1.071-.817a26.322,26.322,0,0,0-4.887-.709c-.7-.022-1.54-.245-1.381.652A9.865,9.865,0,0,1,609.99,304.636Z" transform="translate(-497.515 -257.237)" fill="#fbbebe"/>
      <circle id="Ellipse_97" data-name="Ellipse 97" cx="5.972" cy="5.972" r="5.972" transform="translate(111.427 36.038)" fill="#fbbebe"/>
      <g transform="matrix(1, 0, 0, 1, 0, -6)" filter="url(#Path_865)">
        <path id="Path_865-2" data-name="Path 865" d="M611.808,332.615a7.226,7.226,0,0,0-.758-1.271,26.438,26.438,0,0,0-3.583-4.394,22.31,22.31,0,0,0-3.4-2.5,7.721,7.721,0,0,0-2.129-1.021,8.331,8.331,0,0,0-1.367-.186l-1.551-.127a1.27,1.27,0,0,0-.409.012.881.881,0,0,0-.523,1.052,2.591,2.591,0,0,0,.691,1.087c.069,3.165-1.338,6.286-1.528,9.447-.333,5.526,3.04,10.666,3.31,16.2a1.748,1.748,0,0,1-.078.742c-.045.114-.112.219-.164.331a3.233,3.233,0,0,0-.182,1.124,5.708,5.708,0,0,1-1.681,3.6,2.5,2.5,0,0,0,.948.723,17.093,17.093,0,0,0,2.123.507,16.478,16.478,0,0,0,5.534.946,4.881,4.881,0,0,0,.427-1.608c.266-.165.572.188.613.5s-.018.672.2.9a.841.841,0,0,0,.776.155,34.324,34.324,0,0,0,3.371-.791,6.288,6.288,0,0,1,3.418-.012.914.914,0,0,0-.053-1,4.474,4.474,0,0,1-.537-.917,2.062,2.062,0,0,1-.065-.6c0-1.747.36-3.512.018-5.226-.1-.5-.259-.993-.362-1.5a12.917,12.917,0,0,1-.147-2.987c.027-1-.094-2.08-.114-3.093a9.866,9.866,0,0,0-.082-1.252c-.07-.435-.2-.86-.241-1.3-.11-1.115.339-2.223.272-3.342C614.446,335.105,612.47,334.182,611.808,332.615Z" transform="translate(-488.5 -268.48)" fill="#ff4133"/>
      </g>
      <path id="Path_866" data-name="Path 866" d="M571.236,365.527a65.761,65.761,0,0,0-2.86,11.947l-1.634,9.492a45.924,45.924,0,0,0-.911,8.1,8.677,8.677,0,0,1-.151,2.28,12.322,12.322,0,0,1-1.4,2.656,8.74,8.74,0,0,0-.94,5.91c.168.848.625,1.81,1.485,1.908a2.058,2.058,0,0,0,1.73-1.064,13.708,13.708,0,0,0,1.839-4.517,102.18,102.18,0,0,0,2.834-15.749,15.319,15.319,0,0,1,.284-2,14.2,14.2,0,0,1,.69-1.994q.938-2.325,1.878-4.65a74.281,74.281,0,0,1,4.881-10.493c-1.961-.564-4-1.226-5.963-1.784A5.386,5.386,0,0,0,571.236,365.527Z" transform="translate(-461.403 -308.189)" fill="#fbbebe"/>
      <path id="Path_867" data-name="Path 867" d="M600.066,362.336a22.439,22.439,0,0,0-4.194-.239.9.9,0,0,1-.564-.147c-.284-.243-.164-.7-.021-1.044l.678-1.634a2.378,2.378,0,0,1,.543-.9,2.3,2.3,0,0,1,1.289-.437,11.68,11.68,0,0,1,4.466.174,5.341,5.341,0,0,1,3.449,2.672,1.818,1.818,0,0,1,.037,1.788c-.531.762-1.722,1.614-2.611,1.2A13.609,13.609,0,0,0,600.066,362.336Z" transform="translate(-486.833 -302.082)" fill="#ff4133"/>
      <path id="Path_868" data-name="Path 868" d="M581.83,229.033a6.031,6.031,0,0,0-3.33.96,7.3,7.3,0,0,0-7.171-1.679,4.174,4.174,0,1,0-4.821,4.83,7.3,7.3,0,0,0,14.019,4.1,6.54,6.54,0,0,0,1.31.133c2.881,0,5.218-1.869,5.218-4.174S584.706,229.033,581.83,229.033Z" transform="translate(-461.297 -196.299)" fill="#3f3d56"/>
      <path id="Path_869" data-name="Path 869" d="M651.266,269.558a6.352,6.352,0,0,1-1.31-.133,7.265,7.265,0,0,1-.956,2.1,6.559,6.559,0,0,0,1.226.118c2.693,0,4.9-1.634,5.187-3.726A5.755,5.755,0,0,1,651.266,269.558Z" transform="translate(-529.693 -230.564)" opacity="0.1"/>
      <path id="Path_870" data-name="Path 870" d="M574.53,245.733a7.314,7.314,0,0,1-6.983-9.455,4.174,4.174,0,0,1-3.451-4.111,4.1,4.1,0,0,1,.067-.748,4.174,4.174,0,0,0,2.341,6.946,7.3,7.3,0,1,0,13.952,4.327A7.289,7.289,0,0,1,574.53,245.733Z" transform="translate(-461.305 -201.521)" opacity="0.1"/>
      <rect id="Rectangle_192" data-name="Rectangle 192" width="0.137" height="1.132" rx="0.068" transform="matrix(0.814, 0.581, -0.581, 0.814, 139.796, 56.391)" fill="#3a3768"/>
      <rect id="Rectangle_194" data-name="Rectangle 194" width="0.086" height="0.648" rx="0.043" transform="matrix(0.814, 0.581, -0.581, 0.814, 136.196, 53.574)" fill="#3a3768"/>
      <rect id="Rectangle_195" data-name="Rectangle 195" width="0.082" height="0.654" rx="0.041" transform="matrix(0.814, 0.581, -0.581, 0.814, 135.692, 54.287)" fill="#3a3768"/>
      <rect id="Rectangle_196" data-name="Rectangle 196" width="4.593" height="9.334" rx="2.296" transform="matrix(0.814, 0.581, -0.581, 0.814, 137.538, 52.423)" fill="#3a3768"/>
      <rect id="Rectangle_197" data-name="Rectangle 197" width="4.593" height="9.334" rx="2.296" transform="matrix(0.814, 0.581, -0.581, 0.814, 137.538, 52.423)" opacity="0.1"/>
      <rect id="Rectangle_198" data-name="Rectangle 198" width="4.593" height="9.334" rx="2.296" transform="matrix(0.814, 0.581, -0.581, 0.814, 137.348, 52.042)" fill="#3a3768"/>
      <path id="Path_871" data-name="Path 871" d="M719.977,343.963l-.359-.258-.031.043a.251.251,0,0,1-.344.06l-1.149-.82a.253.253,0,0,1-.059-.353l.031-.043-.344-.241a.306.306,0,0,0-.428.071l-3.969,5.564a.308.308,0,0,0,.07.428l2.26,1.612a.306.306,0,0,0,.428-.072l3.97-5.562a.306.306,0,0,0-.076-.428Z" transform="translate(-580.125 -288.946)" fill="#ff4133"/>
      <rect id="Rectangle_199" data-name="Rectangle 199" width="0.641" height="0.131" rx="0.065" transform="matrix(0.814, 0.581, -0.581, 0.814, 138.694, 53.348)" fill="#e6e8ec"/>
      <circle id="Ellipse_98" data-name="Ellipse 98" cx="0.074" cy="0.074" r="0.074" transform="translate(139.234 53.804)" fill="#e6e8ec"/>
      <g transform="matrix(1, 0, 0, 1, 0, -6)" filter="url(#Path_874)">
        <path id="Path_874-2" data-name="Path 874" d="M693.688,85.07A13.688,13.688,0,0,0,680,98.758c0,7.559,14.342,35.446,14.342,35.446s13.034-27.883,13.034-35.444a13.688,13.688,0,0,0-13.69-13.69Zm0,22.816a7.171,7.171,0,1,1,7.171-7.171A7.171,7.171,0,0,1,693.688,107.886Z" transform="translate(-554.36 -79.07)" fill="#ff4133"/>
      </g>
      <path id="Path_875" data-name="Path 875" d="M874.645,586.28l-21.19-36.7a.674.674,0,0,0-1.171,0l-21.19,36.7a.674.674,0,0,0,.584,1.021H838a.678.678,0,0,1,.676.676v7.833a.676.676,0,0,0,.674.676H847.6a.676.676,0,0,0,.676-.676v-3.786a.674.674,0,0,1,.674-.674h7.841a.676.676,0,0,1,.676.674v3.786a.676.676,0,0,0,.676.676h8.245a.676.676,0,0,0,.676-.676v-7.841a.676.676,0,0,1,.676-.676h6.321a.676.676,0,0,0,.584-1.013Zm-29.55,4.061a.674.674,0,0,1-.478.2h-2.969a.676.676,0,1,1,0-1.352h2.975a.676.676,0,0,1,.478,1.154Zm19.466,0a.674.674,0,0,1-.478.2h-2.966a.676.676,0,1,1,0-1.352H864.1a.676.676,0,0,1,.478,1.154Z" transform="translate(-805.619 -454.409)" fill="#2840f1" opacity="0.1"/>
      <path id="Path_856" data-name="Path 856" d="M358.1,725.785l3.91-2.3a9.427,9.427,0,0,0-2-2.392l-7.377,2.294,5.782-3.4a9.4,9.4,0,0,0-13.913,8.243c0,5.189,4.206,5.369,9.4,5.369s9.4-.18,9.4-5.369a9.354,9.354,0,0,0-.807-3.814Z" transform="translate(-287.402 -589.356)" fill="#c2ccd3"/>
      <path id="Path_857" data-name="Path 857" d="M359.069,754.285a7.3,7.3,0,0,0-1.385-1.087,6.452,6.452,0,0,0-2.282-1.113,17.111,17.111,0,0,0-2.247-.065,5.242,5.242,0,0,1-3.434-1.573,10.73,10.73,0,0,0-1.6-1.653,3.51,3.51,0,0,0-2.392-.439,5.957,5.957,0,0,0-.707.145,9.367,9.367,0,0,0-.556,3.189c0,5.189,4.207,5.369,9.4,5.369a19.76,19.76,0,0,0,6.493-.678l-.282-.527a7.436,7.436,0,0,0-1.009-1.567Z" transform="translate(-287.378 -612.812)" opacity="0.1"/>
      <rect id="Rectangle_200" data-name="Rectangle 200" width="10.355" height="4.024" transform="translate(41.79 115.088)" fill="#fff"/>
      <g id="eat" transform="translate(135.868 9.991)">
        <g id="Group_56" data-name="Group 56" transform="translate(0 0)">
          <path id="Path_433" data-name="Path 433" d="M29.033,6.575V9.422a.2.2,0,1,1-.391,0l-.116-2.847h-.217l-.058,2.847a.2.2,0,1,1-.391,0L27.8,6.575h-.217l-.116,2.847a.2.2,0,1,1-.391,0V6.575h-.22l-.174,3.631a.58.58,0,0,0,.579.579h.3v6.759a.488.488,0,1,0,.977,0V10.787h.3a.58.58,0,0,0,.579-.579l-.174-3.631Z" transform="translate(-26.684 -6.575)" fill="#ff4133"/>
          <path id="Path_434" data-name="Path 434" d="M53.769,6.575h-.425A1.128,1.128,0,0,0,52.217,7.7v4.009a.7.7,0,0,0,.7.7h.575v5.133a.488.488,0,1,0,.977,0V7.277A.7.7,0,0,0,53.769,6.575Z" transform="translate(-47.642 -6.575)" fill="#ff4133"/>
        </g>
      </g>
    </g>
  </g>
</svg>
