<svg xmlns="http://www.w3.org/2000/svg" xmlns:xlink="http://www.w3.org/1999/xlink" width="200.893" height="153.847" viewBox="0 0 200.893 153.847">
  <defs>
    <linearGradient id="linear-gradient" x1="0.5" y1="1" x2="0.5" gradientUnits="objectBoundingBox">
      <stop offset="0" stop-color="gray" stop-opacity="0.251"/>
      <stop offset="0.54" stop-color="gray" stop-opacity="0.122"/>
      <stop offset="1" stop-color="gray" stop-opacity="0.102"/>
    </linearGradient>
    <linearGradient id="linear-gradient-2" x1="0.5" y1="1" x2="0.5" y2="0" xlink:href="#linear-gradient"/>
  </defs>
  <g id="Group_87" data-name="Group 87" transform="translate(-156 -392.162)">
    <g id="Group_86" data-name="Group 86" transform="translate(156 392.162)">
      <g id="Group_84" data-name="Group 84">
        <g id="Group_82" data-name="Group 82">
          <g id="undraw_eating_together_tjhx_1_" data-name="undraw_eating_together_tjhx (1)" transform="translate(0 48.787)">
            <ellipse id="Ellipse_78" data-name="Ellipse 78" cx="10.816" cy="3.846" rx="10.816" ry="3.846" transform="translate(4.534 77.392)" opacity="0.1"/>
            <ellipse id="Ellipse_79" data-name="Ellipse 79" cx="10.816" cy="3.846" rx="10.816" ry="3.846" transform="translate(179.262 93.29)" opacity="0.1"/>
            <path id="Path_766" data-name="Path 766" d="M930.543,605.384s2.884-9.816-.543-17.041a15.505,15.505,0,0,1-1.255-9.727,26.087,26.087,0,0,1,1.377-4.567" transform="translate(-740.903 -507.702)" fill="none" stroke="#535461" stroke-miterlimit="10" stroke-width="2"/>
            <path id="Path_767" data-name="Path 767" d="M926.5,548.174c0,1.2,2.177,4.692,2.177,4.692s2.178-3.487,2.178-4.692a2.179,2.179,0,1,0-4.358,0Z" transform="translate(-739.418 -486.39)" fill="#3ad29f"/>
            <path id="Path_768" data-name="Path 768" d="M910.431,572.165c.654,1.01,4.379,2.754,4.379,2.754s-.067-4.112-.721-5.122a2.178,2.178,0,0,0-3.656,2.367Z" transform="translate(-726.947 -503.717)" fill="#3ad29f"/>
            <path id="Path_769" data-name="Path 769" d="M908.4,617.13c1.074.541,5.17.168,5.17.168s-2.134-3.516-3.209-4.057a2.178,2.178,0,1,0-1.961,3.889Z" transform="translate(-724.754 -537.297)" fill="#3ad29f"/>
            <path id="Path_770" data-name="Path 770" d="M917.96,653.481c.961.721,5.067,1.038,5.067,1.038s-1.509-3.826-2.476-4.54a2.178,2.178,0,1,0-2.591,3.5Z" transform="translate(-732.26 -565.058)" fill="#3ad29f"/>
            <path id="Path_771" data-name="Path 771" d="M933.334,583.4c-.863.839-4.884,1.706-4.884,1.706s.985-3.992,1.848-4.831a2.178,2.178,0,1,1,3.036,3.125Z" transform="translate(-740.899 -511.962)" fill="#3ad29f"/>
            <path id="Path_772" data-name="Path 772" d="M941.92,624.138c-1.074.541-5.17.168-5.17.168s2.134-3.516,3.209-4.045a2.178,2.178,0,0,1,1.961,3.889Z" transform="translate(-747.204 -542.629)" fill="#3ad29f"/>
            <path id="Path_773" data-name="Path 773" d="M945.877,666.721c-.961.721-5.067,1.038-5.067,1.038s1.509-3.826,2.476-4.54a2.178,2.178,0,0,1,2.591,3.5Z" transform="translate(-750.288 -575.116)" fill="#3ad29f"/>
            <path id="Path_774" data-name="Path 774" d="M197.921,424.762s6.174-20.939-1.154-36.369a33.149,33.149,0,0,1-2.675-20.759,55.648,55.648,0,0,1,2.939-9.744" transform="translate(-182.566 -343.496)" fill="none" stroke="#535461" stroke-miterlimit="10" stroke-width="2"/>
            <path id="Path_775" data-name="Path 775" d="M189.322,302.648c0,2.567,4.648,10.013,4.648,10.013s4.646-7.451,4.646-10.013a4.648,4.648,0,0,0-9.3,0Z" transform="translate(-179.416 -298)" fill="#3ad29f"/>
            <path id="Path_776" data-name="Path 776" d="M155.189,354.118c1.4,2.163,9.345,5.879,9.345,5.879s-.144-8.777-1.541-10.931a4.648,4.648,0,0,0-7.8,5.047Z" transform="translate(-152.966 -335.248)" fill="#3ad29f"/>
            <path id="Path_777" data-name="Path 777" d="M150.67,449.837c2.293,1.156,11.034.358,11.034.358s-4.567-7.5-6.847-8.652a4.649,4.649,0,0,0-4.187,8.3Z" transform="translate(-148.114 -406.664)" fill="#3ad29f"/>
            <path id="Path_778" data-name="Path 778" d="M171.043,527.394c2.065,1.526,10.816,2.216,10.816,2.216s-3.221-8.172-5.288-9.691a4.648,4.648,0,1,0-5.528,7.475Z" transform="translate(-164.1 -465.89)" fill="#3ad29f"/>
            <path id="Path_779" data-name="Path 779" d="M203.911,377.754c-1.841,1.788-10.421,3.641-10.421,3.641s2.1-8.523,3.942-10.311a4.653,4.653,0,1,1,6.489,6.67Z" transform="translate(-182.584 -352.517)" fill="#3ad29f"/>
            <path id="Path_780" data-name="Path 780" d="M222.224,464.717c-2.293,1.156-11.034.358-11.034.358s4.567-7.5,6.847-8.652a4.649,4.649,0,1,1,4.187,8.3Z" transform="translate(-196.03 -417.967)" fill="#3ad29f"/>
            <path id="Path_781" data-name="Path 781" d="M230.666,555.664c-2.065,1.526-10.816,2.216-10.816,2.216s3.221-8.172,5.288-9.691a4.648,4.648,0,1,1,5.528,7.475Z" transform="translate(-202.608 -487.365)" fill="#3ad29f"/>
            <path id="Path_782" data-name="Path 782" d="M481.93,413.613l-13.395-1.735c-.543-.07-.961-.276-.947-.457h0c.024-.18.481-.264,1.036-.185l13.366,1.935c.368.053.647.192.63.315h0C482.6,413.6,482.3,413.661,481.93,413.613Z" transform="translate(-390.804 -383.997)" fill="#adb6bc"/>
            <path id="Path_783" data-name="Path 783" d="M481.9,417.731l-13.435-1.389c-.546-.055-1.009.046-1.026.226h0c-.017.18.418.37.961.418l13.459,1.2c.37.034.673-.038.685-.161h0C482.554,417.9,482.268,417.77,481.9,417.731Z" transform="translate(-390.69 -387.888)" fill="#adb6bc"/>
            <path id="Path_784" data-name="Path 784" d="M609.28,456.613l13.392-1.735c.543-.07.961-.276.947-.457h0c-.024-.18-.481-.264-1.036-.185l-13.366,1.935c-.368.053-.647.192-.63.315h0C608.6,456.6,608.912,456.661,609.28,456.613Z" transform="translate(-497.914 -416.662)" fill="#adb6bc"/>
            <path id="Path_785" data-name="Path 785" d="M609.073,460.731l13.435-1.389c.546-.055,1.009.046,1.026.226h0c.017.18-.418.37-.961.418l-13.459,1.2c-.37.034-.673-.038-.685-.161h0C608.42,460.9,608.706,460.77,609.073,460.731Z" transform="translate(-497.794 -420.553)" fill="#adb6bc"/>
            <rect id="Rectangle_177" data-name="Rectangle 177" width="3.266" height="46.834" transform="translate(63.797 54.335)" fill="#40414d"/>
            <rect id="Rectangle_178" data-name="Rectangle 178" width="3.266" height="46.834" transform="translate(135.136 54.335)" fill="#40414d"/>
            <path id="Path_786" data-name="Path 786" d="M243.538,386.78h75.469a5.288,5.288,0,0,1,5.288,5.288v.7H238.25v-.7A5.288,5.288,0,0,1,243.538,386.78Z" transform="translate(-180.988 -336.257)" fill="#dfe6f5"/>
            <path id="Path_787" data-name="Path 787" d="M242.538,386.78h75.469a5.288,5.288,0,0,1,5.288,5.288v.7H237.25v-.7A5.288,5.288,0,0,1,242.538,386.78Z" transform="translate(-180.229 -336.257)" opacity="0.1"/>
            <path id="Path_788" data-name="Path 788" d="M243.538,382.24h75.469a5.288,5.288,0,0,1,5.288,5.288v.7H238.25v-.7A5.288,5.288,0,0,1,243.538,382.24Z" transform="translate(-180.988 -332.808)" fill="#dfe6f5"/>
            <circle id="Ellipse_80" data-name="Ellipse 80" cx="6.535" cy="6.535" r="6.535" transform="translate(93.749 32.55)" fill="#ffd77c" stroke="#ffab50" stroke-miterlimit="10" stroke-width="1"/>
            <circle id="Ellipse_81" data-name="Ellipse 81" cx="5.179" cy="5.179" r="5.179" transform="translate(95.104 33.906)" fill="#ffd77c" stroke="#ffab50" stroke-miterlimit="10" stroke-width="1"/>
            <circle id="Ellipse_82" data-name="Ellipse 82" cx="3.946" cy="3.946" r="3.946" transform="translate(96.337 35.139)" fill="#ffd77c" stroke="#ffab50" stroke-miterlimit="10" stroke-width="1"/>
            <circle id="Ellipse_83" data-name="Ellipse 83" cx="2.218" cy="2.218" r="2.218" transform="translate(98.065 36.867)" fill="#ffd77c" stroke="#ffab50" stroke-miterlimit="10" stroke-width="1"/>
            <circle id="Ellipse_84" data-name="Ellipse 84" cx="6.535" cy="6.535" r="6.535" transform="translate(89.937 36.09)" fill="#ffd77c" stroke="#ffab50" stroke-miterlimit="10" stroke-width="1"/>
            <circle id="Ellipse_85" data-name="Ellipse 85" cx="5.179" cy="5.179" r="5.179" transform="translate(91.292 37.446)" fill="#ffd77c" stroke="#ffab50" stroke-miterlimit="10" stroke-width="1"/>
            <circle id="Ellipse_86" data-name="Ellipse 86" cx="3.946" cy="3.946" r="3.946" transform="translate(92.525 38.679)" fill="#ffd77c" stroke="#ffab50" stroke-miterlimit="10" stroke-width="1"/>
            <circle id="Ellipse_87" data-name="Ellipse 87" cx="2.218" cy="2.218" r="2.218" transform="translate(94.253 40.407)" fill="#ffd77c" stroke="#ffab50" stroke-miterlimit="10" stroke-width="1"/>
            <circle id="Ellipse_88" data-name="Ellipse 88" cx="6.535" cy="6.535" r="6.535" transform="translate(97.561 36.09)" fill="#ffd77c" stroke="#ffab50" stroke-miterlimit="10" stroke-width="1"/>
            <circle id="Ellipse_89" data-name="Ellipse 89" cx="5.179" cy="5.179" r="5.179" transform="translate(98.916 37.446)" fill="#ffd77c" stroke="#ffab50" stroke-miterlimit="10" stroke-width="1"/>
            <circle id="Ellipse_90" data-name="Ellipse 90" cx="3.946" cy="3.946" r="3.946" transform="translate(100.149 38.679)" fill="#ffd77c" stroke="#ffab50" stroke-miterlimit="10" stroke-width="1"/>
            <circle id="Ellipse_91" data-name="Ellipse 91" cx="2.218" cy="2.218" r="2.218" transform="translate(101.877 40.407)" fill="#ffd77c" stroke="#ffab50" stroke-miterlimit="10" stroke-width="1"/>
            <path id="Path_789" data-name="Path 789" d="M360.6,346h27.229v1.279a9.614,9.614,0,0,1-9.614,9.614h-8a9.614,9.614,0,0,1-9.614-9.614Z" transform="translate(-273.932 -305.278)" fill="#c5cfd6"/>
            <path id="Path_790" data-name="Path 790" d="M560.291,467.42a10.89,10.89,0,0,1-10.885,10.618H544a10.915,10.915,0,0,0,2.4.274h5.446a10.893,10.893,0,0,0,10.9-10.893Z" transform="translate(-448.85 -426.7)" opacity="0.1"/>
            <rect id="Rectangle_179" data-name="Rectangle 179" width="3.266" height="70.796" transform="translate(136.771 90.005) rotate(90)" fill="#40414d"/>
            <rect id="Rectangle_180" data-name="Rectangle 180" width="2.858" height="26.001" transform="translate(36.573 78.598)" fill="#40414d"/>
            <rect id="Rectangle_181" data-name="Rectangle 181" width="2.858" height="26.001" transform="translate(59.144 78.598)" fill="#40414d"/>
            <path id="Path_791" data-name="Path 791" d="M333.428,597.254c0,1.735-5.884,3.144-13.142,3.144s-12.856-1.406-12.856-3.144,5.6-3.144,12.856-3.144S333.428,595.526,333.428,597.254Z" transform="translate(-269.139 -522.941)" fill="#f6c6cd"/>
            <path id="Path_792" data-name="Path 792" d="M142.66,485.75h30v2.62a2.524,2.524,0,0,1-2.524,2.524h-23.15a4.326,4.326,0,0,1-4.326-4.326Z" transform="translate(-108.373 -411.44)" fill="#40414d"/>
            <path id="Path_793" data-name="Path 793" d="M1.687,0h.635A1.682,1.682,0,0,1,4,1.682V35.711H3.043A3.043,3.043,0,0,1,0,32.668V1.682A1.682,1.682,0,0,1,1.687,0Z" transform="translate(27.547 44.619) rotate(-12.72)" fill="#40414d"/>
            <rect id="Rectangle_182" data-name="Rectangle 182" width="2.858" height="26.001" transform="translate(164.473 105.06) rotate(180)" fill="#40414d"/>
            <rect id="Rectangle_183" data-name="Rectangle 183" width="2.858" height="26.001" transform="translate(141.902 105.06) rotate(180)" fill="#40414d"/>
            <path id="Path_794" data-name="Path 794" d="M717.13,599.151c0,1.735,5.884,3.144,13.142,3.144s12.856-1.406,12.856-3.144S737.528,596,730.272,596,717.13,597.416,717.13,599.151Z" transform="translate(-580.369 -524.377)" fill="#f6c6cd"/>
            <path id="Path_795" data-name="Path 795" d="M4.326,0h23.15A2.524,2.524,0,0,1,30,2.524v2.62H0V4.326A4.326,4.326,0,0,1,4.326,0Z" transform="translate(166.759 79.918) rotate(180)" fill="#40414d"/>
            <path id="Path_796" data-name="Path 796" d="M3.038,0H4V34.033a1.682,1.682,0,0,1-1.682,1.682H1.682A1.682,1.682,0,0,1,0,34.033V3.043A3.043,3.043,0,0,1,3.038,0Z" transform="translate(165.636 79.913) rotate(-167.28)" fill="#40414d"/>
            <path id="Path_797" data-name="Path 797" d="M684.98,369.627l.844-.267a142.8,142.8,0,0,1-1.428-18.266v-.745c.017-.538.036-1.072.063-1.594.034-.668.041-1.305.036-1.923.079-8.314-3.2-11.825-3.2-11.825s-3.845-5.485-6.15-6.552c-.2-.625-.428-1.428-.63-2.36.074-.05.147-.1.216-.154a31.123,31.123,0,0,0,2.728-2.276c1.182-1.108,2.317-2.459,2.254-3.983a2.924,2.924,0,0,0-.014-.445c-.219-1.839-2.13-3.223-2.9-4.966-.649-1.464-.454-3.093-1.021-4.579s-2.548-2.867-4.043-2.086a7.98,7.98,0,0,0-1.341,1.185,5.1,5.1,0,0,1-4.533.613c-1.557-.437-2.019-2.221-4.2-2.226a2.531,2.531,0,0,1,.55.262,3.463,3.463,0,0,0-.55-.048,2.4,2.4,0,0,1,1.663,2.021,1.648,1.648,0,0,1-.019.173c-.87.469-2.014.2-3.057.185s-2.23.51-2.127,1.363a.828.828,0,0,0,0,.293c.137.647,1,1.134,1.108,1.733v.048a17.968,17.968,0,0,1-6.165,1.8c-.07,0-.038.084.063.207h-.063c-.392.041,2.348,2.206,2.661,2.348a38.236,38.236,0,0,0,3.723,1.3l.106.034a7.581,7.581,0,0,0-.618,3,8.025,8.025,0,0,0,6.263,7.691c.673.786,1.38,1.649,2.024,2.507h-.046a26.1,26.1,0,0,0-3.846,16.822c-2.663-.151-8.386-.853-12.738-4.04-5.872-4.295-12.421-3.007-11.056-.43s8.357,4.723,9.484,4.939c.106.019.351.077.7.163-1.389.262-2.341.721-2.283,1.339.113,1.18,6.1,4.939,9.71,5.153a38,38,0,0,1,7.525,1.524c.219,4.939-.976,6.42-.976,6.42s.356.219.945.529l-.252.721a18.352,18.352,0,0,1-4.917,2.084,27.009,27.009,0,0,0-6.066,2.019l-8.131,3.93a4.708,4.708,0,0,0-2.692,3.7c-.178,1.666.325,3.747,3.045,5.4.168,1.353,1,2.932,3.165,4.379,4.206,2.8,15.26,11.178,16.764,12.323.029,2.045-.24,6.148-2.764,6.787-3.163.8-.618,3.846,1.94,3.725a3.35,3.35,0,0,0,1.9.139c2.711-.644,12.647-4.086,13.325-9.234a4.932,4.932,0,0,0,.038-.673,4.489,4.489,0,0,0-.63-2.5,4.514,4.514,0,0,1,.257.721c-.822-1.875-2.824-3.052-4.382-3.716v-.053c-.24-.094-.481-.171-.678-.24a2.015,2.015,0,0,0-.031-.416L658.961,382.87s6.775-5.583,13.777-4.723,8.117-.411,8.117-.411,3.591-3.415,3.951-7.347l.226-.06S685.014,370.081,684.98,369.627Z" transform="translate(-521.291 -304.974)" fill="url(#linear-gradient)"/>
            <path id="Path_798" data-name="Path 798" d="M737.567,669.236s.637,7.011-2.55,7.862-.212,4.249,2.336,3.605,11.9-4.038,12.536-9.133-6.374-6.8-6.374-6.8Z" transform="translate(-592.906 -576.618)" fill="#d8d6d6"/>
            <path id="Path_799" data-name="Path 799" d="M737.567,669.236s.637,7.011-2.55,7.862-.212,4.249,2.336,3.605a31.8,31.8,0,0,0,7.147-2.991c2.584-1.481,5.072-3.6,5.39-6.142.637-5.1-6.374-6.8-6.374-6.8Z" transform="translate(-592.906 -576.618)" fill="#e1e1e1" opacity="0.05"/>
            <path id="Path_800" data-name="Path 800" d="M742.9,670.116s.637,7.011-2.55,7.862-.211,4.249,2.336,3.605,11.9-4.038,12.536-9.133-6.374-6.8-6.374-6.8Z" transform="translate(-596.955 -577.287)" fill="#e1e1e1"/>
            <path id="Path_801" data-name="Path 801" d="M763.944,666.55,758,671.013s.026.3.043.786c2.245-.615,7.136-2.25,7.21-4.807A11.54,11.54,0,0,0,763.944,666.55Z" transform="translate(-611.416 -577.97)" opacity="0.1"/>
            <rect id="Rectangle_184" data-name="Rectangle 184" width="2.55" height="1.913" transform="translate(146.26 27.491)" fill="#f8bdc5"/>
            <path id="Path_802" data-name="Path 802" d="M683.462,541s-4.05,3.182-7.376,3.937a24.554,24.554,0,0,0-5.708,2l-7.65,3.889a4.649,4.649,0,0,0-2.533,3.66c-.219,2.163.651,5.009,5.843,6.7l16.36,13.6,5.1-4.249-17.423-13.383,13.387-8.287Z" transform="translate(-537.095 -482.596)" fill="#758ac8"/>
            <path id="Path_803" data-name="Path 803" d="M683.462,541s-4.05,3.182-7.376,3.937a24.554,24.554,0,0,0-5.708,2l-7.65,3.889a4.649,4.649,0,0,0-2.533,3.66c-.219,2.163.651,5.009,5.843,6.7l16.36,13.6,5.1-4.249-17.423-13.383,13.387-8.287Z" transform="translate(-537.095 -482.596)" fill="#1e27cb" opacity="0.794"/>
            <path id="Path_804" data-name="Path 804" d="M671.614,460.256s-7.862.212-13.387-4.038-11.686-2.975-10.412-.425,7.862,4.675,8.924,4.886,16.36,4.463,16.36,4.463Z" transform="translate(-527.585 -416.085)" fill="#f8bdc5"/>
            <path id="Path_805" data-name="Path 805" d="M671.614,460.256s-7.862.212-13.387-4.038-11.686-2.975-10.412-.425,7.862,4.675,8.924,4.886,16.36,4.463,16.36,4.463Z" transform="translate(-527.585 -416.085)" opacity="0.05"/>
            <path id="Path_806" data-name="Path 806" d="M691.017,533.06l-2.55,7.65s-14.341,8.818-15.512,9.986c-.909.909-2.125,4.463,2.125,7.436s15.935,12.325,15.935,12.325,8.924-1.923,8.287-5.528l-14.661-10.623s6.374-5.528,12.962-4.675,7.65-.425,7.65-.425,5.1-5.1,3.4-9.984S691.017,533.06,691.017,533.06Z" transform="translate(-546.137 -476.564)" fill="#2840f2"/>
            <path id="Path_807" data-name="Path 807" d="M737.65,368.846s7.225,7.862,6.8,10.2,5.737-6.8,5.737-6.8a23.633,23.633,0,0,1-1.488-9.775Z" transform="translate(-595.957 -346.975)" fill="#f8bdc5"/>
            <path id="Path_808" data-name="Path 808" d="M746.426,404a21.134,21.134,0,0,1,1.555-1.483,21.558,21.558,0,0,0,2.978-2.973c1.488-1.923,7.011,6.374,7.011,6.374s3.4,3.824,2.975,12.962a210.132,210.132,0,0,0,.531,21.355l-1.286.358a7.362,7.362,0,0,1-6.513-.925c-1.7-1.173-3.846-2.4-5.48-2.514a14.81,14.81,0,0,1-6.057-2.019s1.382-3.293-.743-13.918a24.812,24.812,0,0,1,3.29-18.177S745.116,405.353,746.426,404Z" transform="translate(-598.429 -374.92)" opacity="0.1"/>
            <path id="Path_809" data-name="Path 809" d="M762.25,437.25l-1.274.425-.757.252a7.359,7.359,0,0,1-6.513-.925c-1.694-1.17-3.845-2.4-5.48-2.514-3.182-.214-6.787-2.55-6.787-2.55s2.125-2.762,0-13.387a24.772,24.772,0,0,1,3.293-18.168s.428,2.3,1.738.947a20.858,20.858,0,0,1,1.553-1.481A21.568,21.568,0,0,0,751,396.876c1.488-1.923,7.011,6.374,7.011,6.374s3.4,3.824,2.975,12.962c-.046.961-.065,1.952-.067,2.954A145.76,145.76,0,0,0,762.25,437.25Z" transform="translate(-598.46 -372.892)" fill="#f2f2f2"/>
            <path id="Path_810" data-name="Path 810" d="M735.638,475.1l.211,4.675s-11.263.637-13.6-1.7,6.369,6.871,8.292,7.436a48.379,48.379,0,0,0,8.91,1.048,3.6,3.6,0,0,0,3.365-2.041,3.4,3.4,0,0,0,.264-1.983,56.2,56.2,0,0,1,0-8.713Z" transform="translate(-583.959 -431.562)" opacity="0.1"/>
            <path id="Path_811" data-name="Path 811" d="M703.3,473.326l.211,4.675s-11.263.637-13.6-1.7-10.789-1.819-10.623,0c.106,1.168,5.737,4.886,9.133,5.1s7.859,1.771,9.782,2.336a48.377,48.377,0,0,0,8.91,1.048,3.605,3.605,0,0,0,3.365-2.041,3.4,3.4,0,0,0,.264-1.983,56.2,56.2,0,0,1,0-8.713Z" transform="translate(-551.624 -430.218)" fill="#f8bdc5"/>
            <path id="Path_812" data-name="Path 812" d="M776.2,420.765s-4.886.637-4.249,7.862,1.488,7.862,1.488,7.862,7.225-.637,8.073-.851.426-8.073.426-8.073S781.721,420.554,776.2,420.765Z" transform="translate(-621.969 -391.255)" opacity="0.1"/>
            <path id="Path_813" data-name="Path 813" d="M776.2,419.885s-4.886.637-4.249,7.862,1.488,7.862,1.488,7.862,7.225-.637,8.073-.851.426-8.073.426-8.073S781.721,419.668,776.2,419.885Z" transform="translate(-621.969 -390.586)" fill="#f1f1f1"/>
            <path id="Path_814" data-name="Path 814" d="M749.025,367.675c-.334-1.682.351-2.2.531-4.355L738.5,369.694s1.267,1.38,2.706,3.151a7.876,7.876,0,0,0,1.969.24C746.071,373.1,747.655,369.987,749.025,367.675Z" transform="translate(-596.603 -347.621)" opacity="0.1"/>
            <circle id="Ellipse_92" data-name="Ellipse 92" cx="7.862" cy="7.862" r="7.862" transform="translate(138.504 9.537)" fill="#f8bdc5"/>
            <path id="Path_815" data-name="Path 815" d="M716.617,322.614a2.661,2.661,0,0,0-.445,3.689,9.538,9.538,0,0,0,3.391,2.733,2.054,2.054,0,0,0,1.2.392,1.772,1.772,0,0,0,.86-.435,29.684,29.684,0,0,0,2.567-2.252c1.168-1.149,2.29-2.565,2.108-4.168-.207-1.819-2-3.189-2.73-4.913-.61-1.442-.428-3.06-.961-4.533s-2.4-2.836-3.8-2.065a7.665,7.665,0,0,0-1.262,1.173,4.617,4.617,0,0,1-4.266.608c-1.466-.433-1.9-2.2-3.947-2.2a2.293,2.293,0,0,1,1.548,2.384c-.819.464-1.9.2-2.884.183s-2.163.536-1.992,1.425c.149.721,1.19,1.257,1.036,1.978a16.285,16.285,0,0,1-5.8,1.779c-.368.041,2.209,2.182,2.5,2.324a34.564,34.564,0,0,0,3.5,1.286A15.906,15.906,0,0,0,716.617,322.614Z" transform="translate(-568.268 -307.602)" opacity="0.1"/>
            <path id="Path_816" data-name="Path 816" d="M716.617,321.724a2.661,2.661,0,0,0-.445,3.689,9.538,9.538,0,0,0,3.391,2.733,2.055,2.055,0,0,0,1.2.392,1.772,1.772,0,0,0,.861-.435,29.688,29.688,0,0,0,2.567-2.252c1.168-1.149,2.29-2.565,2.108-4.168-.207-1.819-2-3.189-2.73-4.913-.61-1.442-.428-3.06-.961-4.533s-2.4-2.836-3.8-2.065a7.667,7.667,0,0,0-1.262,1.173,4.617,4.617,0,0,1-4.266.608c-1.466-.433-1.9-2.2-3.946-2.2a2.293,2.293,0,0,1,1.548,2.384c-.82.464-1.9.2-2.884.183s-2.163.536-1.993,1.425c.149.721,1.19,1.257,1.036,1.978a16.287,16.287,0,0,1-5.8,1.779c-.368.041,2.209,2.182,2.5,2.324a34.565,34.565,0,0,0,3.5,1.286A15.926,15.926,0,0,0,716.617,321.724Z" transform="translate(-568.268 -306.926)" fill="#916168"/>
            <path id="Path_817" data-name="Path 817" d="M754.943,680.89a4.689,4.689,0,0,1,.344,2.5c-.637,5.1-9.987,8.5-12.536,9.133a3.38,3.38,0,0,1-3.42-1.394,3.311,3.311,0,0,0,3.634,1.819c2.55-.637,11.9-4.038,12.537-9.133A4.666,4.666,0,0,0,754.943,680.89Z" transform="translate(-597.233 -588.864)" fill="#fff" opacity="0.1"/>
            <path id="Path_818" data-name="Path 818" d="M307.576,406.68h0c-.19-.428-1.175-1.262-5.927-1.442-3.254-.123-4.362-1.841-4.663-3.519a4.877,4.877,0,0,0,2.18-.6s-.014-.077-.038-.214l.038-.029a22.516,22.516,0,0,1-.324-3.663,14.1,14.1,0,0,1,.332-3.125,9.219,9.219,0,0,0,.166-2.06,74.976,74.976,0,0,0-1.408-11.267l-.2-5.968a4.146,4.146,0,0,0-2.257-3.581,3.4,3.4,0,0,0-1.526-.38s-7.532-1.187-14.313-1.834c-.481-.387-2.175-1.43-6.059-.832l-2.235-6.542a1.861,1.861,0,0,1-.038-.24c.079-.832.635-2.084,3.223-2.163l.541.481s.1-.19.257-.481c3.211-.036,20.7-.214,21.6,0,.993.24,9.688-1.7,9.938-1.937,3.379-3.3-9.938-1.7-9.938-1.7a69.214,69.214,0,0,1-9.878-.394c2.146-3.218,4.165-14.142,4.165-14.142s7.691-3.877,5.466-6.057-8.943,4.845-8.943,4.845-2.733,8-3.975,10.419c-.481.961-1.1,1.158-1.658,1.048.252-.2.416-.322.416-.322s-5.466-4.362-5.963-6.057a4.047,4.047,0,0,0-.365-.8,6.8,6.8,0,0,0-1.841-4.055,4.167,4.167,0,0,0-.62-.546c-.3-.216-.647-.4-.933-.639h0c.161-.74.348-1.509.543-2.254a8.075,8.075,0,0,0,7.21-7.931,7.824,7.824,0,0,0-.219-1.829,3.523,3.523,0,0,0,3.125-1.5,4.133,4.133,0,0,0,.106-4.172,5.164,5.164,0,0,0-1.1-1.389,6.512,6.512,0,0,0-2.524-1.577,7.1,7.1,0,0,1-2.389-1.017,10.588,10.588,0,0,1-.8-1.2,6.149,6.149,0,0,0-.961-1.12,8.79,8.79,0,0,0-4.627-2.336,24.741,24.741,0,0,0-6.422-.118c-.8.055-1.74.2-2.1.894a4.26,4.26,0,0,0-.13,1.735c-.113,1.858-2.238,2.884-4.086,3.334s-4.052.839-4.944,2.468c-.81,1.471-.24,3.254.019,4.906a12,12,0,0,1-1.81,8.314,34.36,34.36,0,0,0-2.5,3.682,7.021,7.021,0,0,0-.466,4.773,3.362,3.362,0,0,1,.207,1.418,2.473,2.473,0,0,1-.562,1.055,12.738,12.738,0,0,1-9.061,4.694,2.6,2.6,0,0,0,.827,1.247,5.972,5.972,0,0,0,1.716,1.185,25.906,25.906,0,0,0,5.264,1.959,9.172,9.172,0,0,0,3.754.32,3.934,3.934,0,0,0,2.975-2.055c.3-.654.341-1.394.606-2.06.526-1.332,1.831-2.194,2.714-3.336a83.422,83.422,0,0,0-.421,8.854v2.533a18.746,18.746,0,0,1-2.31,9.811,2.49,2.49,0,0,0-.31,1.442,1.581,1.581,0,0,0,.541,1.469,14.237,14.237,0,0,0-.209,2.519c-.029,3.038,1,7.117,6.439,8.15l9.688-.481s13.664-2.665,17.389-.721a1.375,1.375,0,0,1,1.089,1.341,3.08,3.08,0,0,1-.094.6,9.409,9.409,0,0,0-.118,1.906c-.017,4.086.863,13.358.863,13.358v3.932a6.181,6.181,0,0,0-1.286,3.329v.067a.208.208,0,0,0,.014.089c.014.029,0,.053.017.079a.232.232,0,0,1,.022.077.6.6,0,0,0,.031.084c.012.026.017.043.026.065s.031.063.048.091l.029.051a1.157,1.157,0,0,0,.1.132c1.243,1.442,7.451,4.232,9.441,4.12,2.113-.12,9.191.24,9.441-2.908a.382.382,0,0,0-.017-.286Z" transform="translate(-217.391 -308.859)" fill="url(#linear-gradient-2)"/>
            <path id="Path_819" data-name="Path 819" d="M443.617,672.843s-2.884,3.605-1.682,5.047,7.21,4.2,9.133,4.086c2.043-.12,8.893.24,9.133-2.884,0,0,.481-1.442-5.768-1.682s-4.326-6.73-4.326-6.73Z" transform="translate(-371.093 -581.108)" fill="#e4e4e4"/>
            <path id="Path_820" data-name="Path 820" d="M305.4,549.667s-2.884,9.854,5.768,11.537l9.374-.481s13.219-2.644,16.824-.721c0,0,1.442.24.961,2.163s.721,14.9.721,14.9v4.326s8.172,0,9.133-.961a20.09,20.09,0,0,1,0-6.97c.721-3.125-1.2-12.979-1.2-12.979l-.19-5.932a4.124,4.124,0,0,0-2.177-3.557,3.22,3.22,0,0,0-1.476-.375s-16.344-2.644-22.112-2.163S305.4,549.667,305.4,549.667Z" transform="translate(-267.247 -488.215)" opacity="0.1"/>
            <path id="Path_821" data-name="Path 821" d="M305.4,548.667s-2.884,9.854,5.768,11.537l9.374-.481s13.219-2.644,16.824-.721c0,0,1.442.24.961,2.163s.721,14.9.721,14.9v4.326s8.172,0,9.133-.961a20.09,20.09,0,0,1,0-6.97c.721-3.125-1.2-12.979-1.2-12.979l-.19-5.932a4.125,4.125,0,0,0-2.177-3.557,3.221,3.221,0,0,0-1.476-.375s-16.344-2.644-22.112-2.163S305.4,548.667,305.4,548.667Z" transform="translate(-267.247 -487.455)" fill="#5c63ab"/>
            <path id="Path_822" data-name="Path 822" d="M403.783,422.506s1.923,2.4,3.124,0,3.846-10.335,3.846-10.335,6.489-6.97,8.652-4.807-5.288,6.009-5.288,6.009-2.644,14.661-5.047,14.9a45.612,45.612,0,0,1-6.009,0l-1.2-2.644Z" transform="translate(-340.873 -380.763)" fill="#f8bdc5"/>
            <path id="Path_823" data-name="Path 823" d="M403.783,422.506s1.923,2.4,3.124,0,3.846-10.335,3.846-10.335,6.489-6.97,8.652-4.807-5.288,6.009-5.288,6.009-2.644,14.661-5.047,14.9a45.612,45.612,0,0,1-6.009,0l-1.2-2.644Z" transform="translate(-340.873 -380.763)" opacity="0.05"/>
            <path id="Path_824" data-name="Path 824" d="M360.186,421.68s4.326,5.047,4.807,6.73,5.768,6.009,5.768,6.009-3.846,2.884-3.124,4.326-5.047-4.807-5.047-4.807l-6.73-9.854Z" transform="translate(-305.929 -391.954)" fill="#eb6475"/>
            <path id="Path_825" data-name="Path 825" d="M360.186,421.68s4.326,5.047,4.807,6.73,5.768,6.009,5.768,6.009-3.846,2.884-3.124,4.326-5.047-4.807-5.047-4.807l-6.73-9.854Z" transform="translate(-305.929 -391.954)" fill="#db2721" opacity="0.59"/>
            <path id="Path_826" data-name="Path 826" d="M350.9,390.938s-2.163,6.97-2.163,9.614-9.133-.721-8.893-2.163,5.288-6.73,5.528-8.893S350.9,390.938,350.9,390.938Z" transform="translate(-293.76 -366.98)" fill="#f8bdc5"/>
            <path id="Path_827" data-name="Path 827" d="M316.109,417.215s-8.412-2.163-9.614,10.095.961,13.7-2.644,21.15,24.515.961,24.515.961-1.442-1.682-6.009-.961l-2.163-6.489s-.721-2.884,3.365-2.884,2.163-8.412,2.163-8.412-2.163-7.21-3.365-7.931S318.993,417.7,316.109,417.215Z" transform="translate(-266.178 -388.45)" opacity="0.1"/>
            <path id="Path_828" data-name="Path 828" d="M316.109,415.215s-8.412-2.163-9.614,10.095.961,13.7-2.644,21.151,24.515.961,24.515.961-1.442-1.682-6.009-.961l-2.163-6.489s-.721-2.884,3.365-2.884,2.163-8.412,2.163-8.412-2.163-7.21-3.365-7.931S318.993,415.7,316.109,415.215Z" transform="translate(-266.178 -386.931)" fill="#ff4133"/>
            <path id="Path_829" data-name="Path 829" d="M387.062,487.68s17.545,1.923,20.429,1.442c0,0,12.883-1.586,9.614,1.682-.24.24-8.652,2.163-9.614,1.923s-21.391,0-21.391,0l-.24-2.4Z" transform="translate(-328.719 -442.091)" fill="#f8bdc5"/>
            <path id="Path_830" data-name="Path 830" d="M332.607,433.3l12.738,11.537s2.4-4.807,3.125-4.807-8.652-14.18-8.652-14.18-2.4-2.884-3.846-1.442S330.2,424.884,332.607,433.3Z" transform="translate(-287.723 -393.716)" opacity="0.1"/>
            <path id="Path_831" data-name="Path 831" d="M331.607,431.3l12.738,11.537s2.4-4.807,3.124-4.807-8.652-14.18-8.652-14.18-2.4-2.884-3.846-1.442S329.2,422.884,331.607,431.3Z" transform="translate(-286.963 -392.197)" fill="#ff4133"/>
            <circle id="Ellipse_93" data-name="Ellipse 93" cx="7.931" cy="7.931" r="7.931" transform="translate(47.047 12.421)" fill="#f8bdc5"/>
            <path id="Path_832" data-name="Path 832" d="M283.6,330.008a3.278,3.278,0,0,0,3.788-1.315,4.18,4.18,0,0,0,.1-4.139,5.861,5.861,0,0,0-3.266-2.7,6.309,6.309,0,0,1-2.382-1.067,7.02,7.02,0,0,1-.94-1.365,7.862,7.862,0,0,0-5.16-3.189,23.466,23.466,0,0,0-6.213-.118c-.774.055-1.682.195-2.033.887a4.318,4.318,0,0,0-.125,1.721c-.108,1.843-2.163,2.865-3.959,3.307s-3.877.858-4.752,2.483c-.784,1.459-.223,3.228.019,4.867a12.147,12.147,0,0,1-1.75,8.227,34.324,34.324,0,0,0-2.42,3.653,7.124,7.124,0,0,0-.452,4.735,3.426,3.426,0,0,1,.2,1.406,2.473,2.473,0,0,1-.543,1.046,12.229,12.229,0,0,1-8.765,4.668,3.862,3.862,0,0,0,2.221,2.163,24.684,24.684,0,0,0,5.091,1.942,8.671,8.671,0,0,0,3.632.317,3.83,3.83,0,0,0,2.884-2.038c.288-.649.332-1.382.586-2.045.574-1.488,2.105-2.387,2.927-3.754.786-1.307,1.091-1.461,1.291-2.971a5.678,5.678,0,0,1,1.88-4.026,4.532,4.532,0,0,1,4.567-.038c1.442.714,2.334.435,3.538,1.483a29.321,29.321,0,0,0,7.021,4.523c-.24-2.1-.627-4.434-2.329-5.682-.481-.358-1.089-.632-1.344-1.18-.406-.872.288-1.937-.026-2.848s-1.512-1.247-2.043-2.074a2.323,2.323,0,0,1,.094-2.377,6.409,6.409,0,0,1,1.757-1.759q.887-.671,1.8-1.31a6.423,6.423,0,0,0,1.461-1.274c.24-.329.4-1.05.733-1.283C281.528,328.3,282.821,329.7,283.6,330.008Z" transform="translate(-221.676 -311.648)" opacity="0.1"/>
            <path id="Path_833" data-name="Path 833" d="M282.6,329.008a3.278,3.278,0,0,0,3.788-1.315,4.18,4.18,0,0,0,.1-4.139,5.861,5.861,0,0,0-3.266-2.7,6.31,6.31,0,0,1-2.382-1.067,7.024,7.024,0,0,1-.94-1.365,7.862,7.862,0,0,0-5.16-3.189,23.463,23.463,0,0,0-6.213-.118c-.774.055-1.682.195-2.033.887a4.317,4.317,0,0,0-.125,1.721c-.108,1.844-2.163,2.865-3.959,3.307s-3.877.858-4.752,2.483c-.784,1.459-.224,3.228.019,4.867a12.147,12.147,0,0,1-1.75,8.227,34.322,34.322,0,0,0-2.42,3.653,7.123,7.123,0,0,0-.452,4.735,3.426,3.426,0,0,1,.2,1.406,2.473,2.473,0,0,1-.543,1.046,12.229,12.229,0,0,1-8.765,4.668,3.862,3.862,0,0,0,2.221,2.163,24.681,24.681,0,0,0,5.091,1.942,8.67,8.67,0,0,0,3.632.317,3.83,3.83,0,0,0,2.884-2.038c.288-.649.332-1.382.586-2.045.574-1.488,2.105-2.387,2.927-3.754.786-1.307,1.091-1.461,1.291-2.971a5.679,5.679,0,0,1,1.879-4.026,4.533,4.533,0,0,1,4.567-.038c1.442.714,2.334.435,3.538,1.483a29.322,29.322,0,0,0,7.02,4.523c-.24-2.1-.627-4.434-2.329-5.682-.481-.358-1.089-.632-1.344-1.18-.406-.872.288-1.937-.026-2.848s-1.512-1.247-2.043-2.074a2.323,2.323,0,0,1,.094-2.377,6.409,6.409,0,0,1,1.757-1.759q.887-.671,1.8-1.31a6.42,6.42,0,0,0,1.461-1.274c.24-.329.4-1.05.733-1.283C280.528,327.3,281.821,328.7,282.6,329.008Z" transform="translate(-220.916 -310.888)" fill="#191847"/>
            <g id="Group_76" data-name="Group 76" transform="translate(70.54 89.572)" opacity="0.1">
              <path id="Path_834" data-name="Path 834" d="M475.709,672.574a8.306,8.306,0,0,1,.274-1.894l-.12.041A8.363,8.363,0,0,0,475.709,672.574Z" transform="translate(-467.51 -670.68)" fill="#fff"/>
              <path id="Path_835" data-name="Path 835" d="M451.041,700.609c-1.923.113-7.931-2.644-9.133-4.086a1.281,1.281,0,0,1-.279-.683,1.51,1.51,0,0,0,.279,1.163c1.2,1.442,7.21,4.2,9.133,4.086,2.043-.12,8.893.24,9.133-2.884a.389.389,0,0,0-.034-.255C459.59,700.83,453.034,700.491,451.041,700.609Z" transform="translate(-441.607 -689.793)" fill="#fff"/>
            </g>
            <rect id="Rectangle_185" data-name="Rectangle 185" width="0.24" height="9.854" transform="translate(89.468 28.644)" fill="#ffd77c" stroke="#ffab50" stroke-miterlimit="10" stroke-width="0.25"/>
            <rect id="Rectangle_186" data-name="Rectangle 186" width="0.24" height="9.854" transform="translate(89.708 28.644)" fill="#ffd77c" stroke="#ffab50" stroke-miterlimit="10" stroke-width="0.25"/>
            <rect id="Rectangle_187" data-name="Rectangle 187" width="0.24" height="9.854" transform="translate(89.949 28.644)" fill="#ffd77c" stroke="#ffab50" stroke-miterlimit="10" stroke-width="0.25"/>
            <rect id="Rectangle_188" data-name="Rectangle 188" width="0.24" height="9.854" transform="translate(90.189 28.644)" fill="#ffd77c" stroke="#ffab50" stroke-miterlimit="10" stroke-width="0.25"/>
            <rect id="Rectangle_189" data-name="Rectangle 189" width="0.24" height="9.854" transform="translate(90.429 28.644)" fill="#ffd77c" stroke="#ffab50" stroke-miterlimit="10" stroke-width="0.25"/>
            <rect id="Rectangle_190" data-name="Rectangle 190" width="0.24" height="9.854" transform="translate(90.67 28.644)" fill="#ffd77c" stroke="#ffab50" stroke-miterlimit="10" stroke-width="0.25"/>
            <rect id="Rectangle_191" data-name="Rectangle 191" width="0.24" height="9.854" transform="translate(90.91 28.644)" fill="#ffd77c" stroke="#ffab50" stroke-miterlimit="10" stroke-width="0.25"/>
          </g>
          <g id="Group_82-2" data-name="Group 82" transform="translate(36.198)">
            <g id="Group_25" data-name="Group 25" transform="translate(130.296 26.737)" opacity="0.901">
              <path id="Path_205" data-name="Path 205" d="M840.941,276.729a2.393,2.393,0,0,0-3.12.29,2.444,2.444,0,0,0,.1,3.405l2.982,2.964a.5.5,0,0,0,.7,0l2.964-2.982a2.444,2.444,0,0,0,.079-3.405,2.389,2.389,0,0,0-3.118-.274A.505.505,0,0,1,840.941,276.729Z" transform="translate(-837.177 -276.273)" fill="#f55f44"/>
              <path id="Path_206" data-name="Path 206" d="M854.48,308.15a.439.439,0,0,0,0,.415,2.144,2.144,0,0,1,.116.193c.077.191-.057.4-.193.556-.086.1-.18.23-.125.351a.455.455,0,0,0,.1.114A.733.733,0,0,1,854.1,311" transform="translate(-850.384 -301.151)" fill="none" stroke="#f55f44" stroke-miterlimit="10" stroke-width="1"/>
            </g>
            <g id="Group_26" data-name="Group 26" transform="translate(0 31.855)" opacity="0.899">
              <path id="Path_207" data-name="Path 207" d="M260.941,350.729a2.393,2.393,0,0,0-3.12.29,2.444,2.444,0,0,0,.1,3.405l2.982,2.964a.5.5,0,0,0,.7,0l2.964-2.982a2.444,2.444,0,0,0,.079-3.405,2.389,2.389,0,0,0-3.118-.274A.505.505,0,0,1,260.941,350.729Z" transform="translate(-257.177 -350.273)" fill="#f55f44"/>
              <path id="Path_208" data-name="Path 208" d="M274.48,382.15a.439.439,0,0,0,0,.415,2.16,2.16,0,0,1,.116.193c.077.191-.057.4-.193.556-.086.1-.18.231-.125.351a.453.453,0,0,0,.1.114A.733.733,0,0,1,274.1,385" transform="translate(-270.384 -375.151)" fill="none" stroke="#f55f44" stroke-miterlimit="10" stroke-width="1"/>
            </g>
            <g id="Group_27" data-name="Group 27" transform="translate(54.468)" opacity="0.798">
              <path id="Path_209" data-name="Path 209" d="M641.942,69.851a3.03,3.03,0,0,0-3.95.367,3.094,3.094,0,0,0,.122,4.311l3.774,3.752a.631.631,0,0,0,.892,0l3.753-3.775a3.094,3.094,0,0,0,.1-4.311,3.024,3.024,0,0,0-3.947-.347A.639.639,0,0,1,641.942,69.851Z" transform="translate(-637.177 -69.273)" fill="#f55f44"/>
              <path id="Path_210" data-name="Path 210" d="M654.581,101.15a.555.555,0,0,0,0,.525,2.755,2.755,0,0,1,.147.245c.1.242-.072.506-.245.7-.108.125-.228.278-.159.445a.576.576,0,0,0,.128.145.928.928,0,0,1-.353,1.551" transform="translate(-649.396 -92.29)" fill="none" stroke="#f55f44" stroke-miterlimit="10" stroke-width="1"/>
            </g>
          </g>
        </g>
      </g>
    </g>
    <g id="Group_85" data-name="Group 85" transform="translate(261.223 424.272)" opacity="0.798">
      <path id="Path_209-2" data-name="Path 209" d="M642.636,69.935a3.471,3.471,0,0,0-4.525.42,3.544,3.544,0,0,0,.14,4.939l4.324,4.3a.723.723,0,0,0,1.022,0l4.3-4.325a3.544,3.544,0,0,0,.115-4.939,3.465,3.465,0,0,0-4.522-.4A.732.732,0,0,1,642.636,69.935Z" transform="translate(-637.177 -69.273)" fill="#f55f44"/>
      <path id="Path_210-2" data-name="Path 210" d="M654.651,101.15a.636.636,0,0,0,0,.6,3.143,3.143,0,0,1,.169.28c.111.277-.083.58-.28.806-.124.143-.261.318-.182.51a.66.66,0,0,0,.147.166,1.064,1.064,0,0,1-.4,1.777" transform="translate(-648.711 -90.999)" fill="none" stroke="#f55f44" stroke-miterlimit="10" stroke-width="1"/>
    </g>
  </g>
</svg>
