<svg xmlns="http://www.w3.org/2000/svg" xmlns:xlink="http://www.w3.org/1999/xlink" width="400.41" height="306.64" viewBox="0 0 400.41 306.64">
  <defs>
    <linearGradient id="linear-gradient" x1="0.5" y1="1" x2="0.5" gradientUnits="objectBoundingBox">
      <stop offset="0" stop-color="gray" stop-opacity="0.251"/>
      <stop offset="0.54" stop-color="gray" stop-opacity="0.122"/>
      <stop offset="1" stop-color="gray" stop-opacity="0.102"/>
    </linearGradient>
    <linearGradient id="linear-gradient-2" x1="0.5" y1="1" x2="0.5" y2="0" xlink:href="#linear-gradient"/>
  </defs>
  <g id="Group_84" data-name="Group 84" transform="translate(-156 -284.162)">
    <g id="Group_82" data-name="Group 82" transform="translate(-325 -85.838)">
      <g id="undraw_eating_together_tjhx_1_" data-name="undraw_eating_together_tjhx (1)" transform="translate(481 467.239)">
        <ellipse id="Ellipse_78" data-name="Ellipse 78" cx="21.557" cy="7.665" rx="21.557" ry="7.665" transform="translate(9.038 154.253)" opacity="0.1"/>
        <ellipse id="Ellipse_79" data-name="Ellipse 79" cx="21.557" cy="7.665" rx="21.557" ry="7.665" transform="translate(357.295 185.942)" opacity="0.1"/>
        <path id="Path_766" data-name="Path 766" d="M932.616,636.5s5.749-19.564-1.083-33.964a30.9,30.9,0,0,1-2.5-19.387,51.984,51.984,0,0,1,2.745-9.1" transform="translate(-554.635 -441.809)" fill="none" stroke="#535461" stroke-miterlimit="10" stroke-width="2"/>
        <path id="Path_767" data-name="Path 767" d="M926.5,550.338c0,2.4,4.34,9.351,4.34,9.351s4.34-6.951,4.34-9.351a4.343,4.343,0,0,0-8.685,0Z" transform="translate(-553.617 -427.194)" fill="#3ad29f"/>
        <path id="Path_768" data-name="Path 768" d="M910.776,575.5c1.3,2.012,8.728,5.49,8.728,5.49s-.134-8.2-1.437-10.209a4.34,4.34,0,1,0-7.286,4.719Z" transform="translate(-545.064 -439.076)" fill="#3ad29f"/>
        <path id="Path_769" data-name="Path 769" d="M909.584,621.224c2.141,1.078,10.3.335,10.3.335s-4.254-7.008-6.4-8.086a4.34,4.34,0,1,0-3.909,7.751Z" transform="translate(-543.561 -462.104)" fill="#3ad29f"/>
        <path id="Path_770" data-name="Path 770" d="M918.837,657.384c1.916,1.437,10.1,2.07,10.1,2.07s-3.009-7.626-4.934-9.049a4.341,4.341,0,1,0-5.164,6.98Z" transform="translate(-548.708 -481.142)" fill="#3ad29f"/>
        <path id="Path_771" data-name="Path 771" d="M938.184,587.113c-1.72,1.672-9.734,3.4-9.734,3.4s1.964-7.957,3.684-9.629a4.341,4.341,0,1,1,6.05,6.228Z" transform="translate(-554.632 -444.73)" fill="#3ad29f"/>
        <path id="Path_772" data-name="Path 772" d="M947.054,628.22c-2.141,1.078-10.3.335-10.3.335s4.254-7.009,6.4-8.062a4.34,4.34,0,0,1,3.909,7.751Z" transform="translate(-558.956 -465.761)" fill="#3ad29f"/>
        <path id="Path_773" data-name="Path 773" d="M950.908,670.624c-1.916,1.437-10.1,2.069-10.1,2.069s3.008-7.627,4.934-9.049a4.341,4.341,0,0,1,5.164,6.98Z" transform="translate(-561.071 -488.04)" fill="#3ad29f"/>
        <path id="Path_774" data-name="Path 774" d="M202.345,491.175s12.307-41.735-2.3-72.489a66.07,66.07,0,0,1-5.332-41.375,110.916,110.916,0,0,1,5.859-19.421" transform="translate(-171.74 -329.2)" fill="none" stroke="#535461" stroke-miterlimit="10" stroke-width="2"/>
        <path id="Path_775" data-name="Path 775" d="M189.325,307.265c0,5.116,9.265,19.957,9.265,19.957s9.26-14.85,9.26-19.957a9.265,9.265,0,0,0-18.53,0Z" transform="translate(-169.58 -298)" fill="#3ad29f"/>
        <path id="Path_776" data-name="Path 776" d="M155.871,361.154c2.783,4.311,18.625,11.718,18.625,11.718s-.287-17.495-3.071-21.787a9.265,9.265,0,0,0-15.555,10.06Z" transform="translate(-151.442 -323.544)" fill="#3ad29f"/>
        <path id="Path_777" data-name="Path 777" d="M153.209,458.57c4.57,2.3,21.993.714,21.993.714s-9.1-14.956-13.648-17.246a9.266,9.266,0,0,0-8.345,16.546Z" transform="translate(-148.114 -372.519)" fill="#3ad29f"/>
        <path id="Path_778" data-name="Path 778" d="M172.915,535.723c4.115,3.042,21.557,4.417,21.557,4.417s-6.419-16.288-10.539-19.315a9.265,9.265,0,1,0-11.018,14.9Z" transform="translate(-159.077 -413.135)" fill="#3ad29f"/>
        <path id="Path_779" data-name="Path 779" d="M214.261,385.687c-3.669,3.564-20.771,7.258-20.771,7.258s4.187-16.987,7.856-20.551a9.274,9.274,0,0,1,12.934,13.294Z" transform="translate(-171.753 -335.387)" fill="#3ad29f"/>
        <path id="Path_780" data-name="Path 780" d="M233.183,473.45c-4.57,2.3-21.993.714-21.993.714s9.1-14.956,13.648-17.246a9.266,9.266,0,0,1,8.345,16.546Z" transform="translate(-180.974 -380.271)" fill="#3ad29f"/>
        <path id="Path_781" data-name="Path 781" d="M241.407,563.993c-4.115,3.042-21.557,4.417-21.557,4.417s6.419-16.288,10.539-19.315a9.265,9.265,0,1,1,11.018,14.9Z" transform="translate(-185.485 -427.862)" fill="#3ad29f"/>
        <path id="Path_782" data-name="Path 782" d="M496.174,416l-26.7-3.459c-1.083-.139-1.916-.551-1.887-.91h0c.048-.359.958-.527,2.065-.369l26.64,3.856c.733.105,1.289.383,1.255.628h0C497.515,415.979,496.9,416.1,496.174,416Z" transform="translate(-314.545 -356.975)" fill="#adb6bc"/>
        <path id="Path_783" data-name="Path 783" d="M496.263,419.126l-26.779-2.769c-1.087-.11-2.012.091-2.046.45h0c-.033.359.834.738,1.916.834l26.827,2.4c.738.067,1.341-.077,1.365-.321h0C497.566,419.457,497,419.2,496.263,419.126Z" transform="translate(-314.467 -359.643)" fill="#adb6bc"/>
        <path id="Path_784" data-name="Path 784" d="M609.968,459l26.693-3.459c1.083-.139,1.916-.551,1.887-.91h0c-.048-.359-.958-.527-2.065-.369l-26.64,3.856c-.733.105-1.289.383-1.255.628h0C608.622,458.979,609.235,459.1,609.968,459Z" transform="translate(-387.999 -379.376)" fill="#adb6bc"/>
        <path id="Path_785" data-name="Path 785" d="M609.713,462.126l26.779-2.769c1.087-.11,2.012.091,2.045.45h0c.034.359-.833.738-1.916.834l-26.827,2.4c-.738.067-1.341-.077-1.365-.321h0C608.41,462.457,608.98,462.2,609.713,462.126Z" transform="translate(-387.916 -382.044)" fill="#adb6bc"/>
        <rect id="Rectangle_177" data-name="Rectangle 177" width="6.51" height="93.347" transform="translate(127.156 108.298)" fill="#40414d"/>
        <rect id="Rectangle_178" data-name="Rectangle 178" width="6.51" height="93.347" transform="translate(269.347 108.298)" fill="#40414d"/>
        <path id="Path_786" data-name="Path 786" d="M248.789,386.78H399.21a10.539,10.539,0,0,1,10.539,10.539v1.4H238.25v-1.4a10.539,10.539,0,0,1,10.539-10.539Z" transform="translate(-124.119 -286.08)" fill="#dfe6f5"/>
        <path id="Path_787" data-name="Path 787" d="M247.789,386.78H398.21a10.539,10.539,0,0,1,10.539,10.539v1.4H237.25v-1.4a10.539,10.539,0,0,1,10.539-10.539Z" transform="translate(-123.598 -286.08)" opacity="0.1"/>
        <path id="Path_788" data-name="Path 788" d="M248.789,382.24H399.21a10.539,10.539,0,0,1,10.539,10.539v1.4H238.25v-1.4A10.539,10.539,0,0,1,248.789,382.24Z" transform="translate(-124.119 -283.714)" fill="#dfe6f5"/>
        <circle id="Ellipse_80" data-name="Ellipse 80" cx="13.025" cy="13.025" r="13.025" transform="translate(186.855 64.877)" fill="#ffd77c" stroke="#ffab50" stroke-miterlimit="10" stroke-width="1"/>
        <circle id="Ellipse_81" data-name="Ellipse 81" cx="10.323" cy="10.323" r="10.323" transform="translate(189.557 67.579)" fill="#ffd77c" stroke="#ffab50" stroke-miterlimit="10" stroke-width="1"/>
        <circle id="Ellipse_82" data-name="Ellipse 82" cx="7.866" cy="7.866" r="7.866" transform="translate(192.015 70.037)" fill="#ffd77c" stroke="#ffab50" stroke-miterlimit="10" stroke-width="1"/>
        <circle id="Ellipse_83" data-name="Ellipse 83" cx="4.422" cy="4.422" r="4.422" transform="translate(195.459 73.481)" fill="#ffd77c" stroke="#ffab50" stroke-miterlimit="10" stroke-width="1"/>
        <circle id="Ellipse_84" data-name="Ellipse 84" cx="13.025" cy="13.025" r="13.025" transform="translate(179.258 71.934)" fill="#ffd77c" stroke="#ffab50" stroke-miterlimit="10" stroke-width="1"/>
        <circle id="Ellipse_85" data-name="Ellipse 85" cx="10.323" cy="10.323" r="10.323" transform="translate(181.959 74.635)" fill="#ffd77c" stroke="#ffab50" stroke-miterlimit="10" stroke-width="1"/>
        <circle id="Ellipse_86" data-name="Ellipse 86" cx="7.866" cy="7.866" r="7.866" transform="translate(184.417 77.093)" fill="#ffd77c" stroke="#ffab50" stroke-miterlimit="10" stroke-width="1"/>
        <circle id="Ellipse_87" data-name="Ellipse 87" cx="4.422" cy="4.422" r="4.422" transform="translate(187.861 80.537)" fill="#ffd77c" stroke="#ffab50" stroke-miterlimit="10" stroke-width="1"/>
        <circle id="Ellipse_88" data-name="Ellipse 88" cx="13.025" cy="13.025" r="13.025" transform="translate(194.453 71.934)" fill="#ffd77c" stroke="#ffab50" stroke-miterlimit="10" stroke-width="1"/>
        <circle id="Ellipse_89" data-name="Ellipse 89" cx="10.323" cy="10.323" r="10.323" transform="translate(197.155 74.635)" fill="#ffd77c" stroke="#ffab50" stroke-miterlimit="10" stroke-width="1"/>
        <circle id="Ellipse_90" data-name="Ellipse 90" cx="7.866" cy="7.866" r="7.866" transform="translate(199.612 77.093)" fill="#ffd77c" stroke="#ffab50" stroke-miterlimit="10" stroke-width="1"/>
        <circle id="Ellipse_91" data-name="Ellipse 91" cx="4.422" cy="4.422" r="4.422" transform="translate(203.057 80.537)" fill="#ffd77c" stroke="#ffab50" stroke-miterlimit="10" stroke-width="1"/>
        <path id="Path_789" data-name="Path 789" d="M360.6,346h54.271v2.548a19.162,19.162,0,0,1-19.162,19.162H379.762A19.162,19.162,0,0,1,360.6,348.549Z" transform="translate(-187.858 -264.835)" fill="#c5cfd6"/>
        <path id="Path_790" data-name="Path 790" d="M576.47,467.42a21.706,21.706,0,0,1-21.7,21.164H544a21.756,21.756,0,0,0,4.79.546h10.855a21.71,21.71,0,0,0,21.72-21.71Z" transform="translate(-354.352 -386.26)" opacity="0.1"/>
        <rect id="Rectangle_179" data-name="Rectangle 179" width="6.51" height="141.108" transform="translate(272.605 179.393) rotate(90)" fill="#40414d"/>
        <rect id="Rectangle_180" data-name="Rectangle 180" width="5.696" height="51.823" transform="translate(72.895 156.658)" fill="#40414d"/>
        <rect id="Rectangle_181" data-name="Rectangle 181" width="5.696" height="51.823" transform="translate(117.882 156.658)" fill="#40414d"/>
        <path id="Path_791" data-name="Path 791" d="M359.249,600.376c0,3.459-11.727,6.266-26.194,6.266s-25.624-2.8-25.624-6.266,11.157-6.266,25.624-6.266S359.249,596.932,359.249,600.376Z" transform="translate(-231.11 -452.259)" fill="#f6c6cd"/>
        <path id="Path_792" data-name="Path 792" d="M142.66,485.75h59.795v5.222a5.03,5.03,0,0,1-5.03,5.03H151.283a8.623,8.623,0,0,1-8.623-8.623Z" transform="translate(-74.321 -337.638)" fill="#40414d"/>
        <path id="Path_793" data-name="Path 793" d="M3.363,0H4.628A3.353,3.353,0,0,1,7.981,3.353V71.177H6.065A6.065,6.065,0,0,1,0,65.112V3.353A3.353,3.353,0,0,1,3.363,0Z" transform="translate(54.905 88.933) rotate(-12.72)" fill="#40414d"/>
        <rect id="Rectangle_182" data-name="Rectangle 182" width="5.696" height="51.823" transform="translate(327.82 209.401) rotate(180)" fill="#40414d"/>
        <rect id="Rectangle_183" data-name="Rectangle 183" width="5.696" height="51.823" transform="translate(282.832 209.401) rotate(180)" fill="#40414d"/>
        <path id="Path_794" data-name="Path 794" d="M717.13,602.28c0,3.459,11.727,6.266,26.194,6.266s25.624-2.8,25.624-6.266S757.787,596,743.324,596,717.13,598.822,717.13,602.28Z" transform="translate(-444.545 -453.244)" fill="#f6c6cd"/>
        <path id="Path_795" data-name="Path 795" d="M8.623,0H54.765a5.03,5.03,0,0,1,5.03,5.03v5.222H0V8.623A8.623,8.623,0,0,1,8.623,0Z" transform="translate(332.375 159.288) rotate(180)" fill="#40414d"/>
        <path id="Path_796" data-name="Path 796" d="M6.055,0H7.971V67.833a3.353,3.353,0,0,1-3.353,3.353H3.353A3.353,3.353,0,0,1,0,67.833V6.065A6.065,6.065,0,0,1,6.055,0Z" transform="translate(330.137 159.279) rotate(-167.28)" fill="#40414d"/>
        <path id="Path_797" data-name="Path 797" d="M730.288,431.646l1.681-.532a284.655,284.655,0,0,1-2.846-36.408v-1.485c.034-1.073.072-2.137.125-3.176.067-1.332.081-2.6.072-3.832.158-16.57-6.371-23.569-6.371-23.569s-7.665-10.932-12.259-13.059c-.4-1.246-.853-2.846-1.255-4.7.148-.1.292-.2.431-.307a61.979,61.979,0,0,0,5.437-4.537c2.357-2.208,4.618-4.9,4.494-7.938a5.816,5.816,0,0,0-.029-.886c-.436-3.665-4.244-6.424-5.782-9.9-1.293-2.917-.905-6.165-2.036-9.126s-5.078-5.715-8.058-4.158a15.9,15.9,0,0,0-2.673,2.362c-2.271,1.916-5.931,2.093-9.035,1.222s-4.024-4.426-8.364-4.436a5.044,5.044,0,0,1,1.1.522,6.906,6.906,0,0,0-1.1-.1,4.79,4.79,0,0,1,3.315,4.029,3.3,3.3,0,0,1-.038.345c-1.734.934-4.014.4-6.094.369s-4.446,1.016-4.24,2.716a1.647,1.647,0,0,0,0,.584c.273,1.289,2,2.261,2.208,3.454v.1a35.813,35.813,0,0,1-12.288,3.583c-.139,0-.077.168.125.412h-.125c-.781.081,4.68,4.4,5.3,4.68a76.207,76.207,0,0,0,7.42,2.592l.211.067a15.108,15.108,0,0,0-1.231,5.983,16,16,0,0,0,12.484,15.329c1.341,1.566,2.75,3.286,4.034,5h-.091a52.027,52.027,0,0,0-7.665,33.529c-5.308-.3-16.714-1.7-25.39-8.053-11.7-8.561-24.757-5.993-22.036-.857s16.656,9.413,18.9,9.844c.211.038.7.153,1.4.326-2.769.522-4.666,1.437-4.551,2.668.225,2.352,12.153,9.844,19.354,10.271a75.725,75.725,0,0,1,15,3.037c.436,9.844-1.945,12.8-1.945,12.8s.709.436,1.883,1.054l-.5,1.437a36.575,36.575,0,0,1-9.8,4.153,53.839,53.839,0,0,0-12.091,4.024L651.164,438.9a9.385,9.385,0,0,0-5.365,7.373c-.355,3.32.647,7.468,6.07,10.759.335,2.7,1.983,5.844,6.309,8.728,8.383,5.576,30.415,22.28,33.413,24.561.057,4.077-.479,12.254-5.509,13.528-6.3,1.6-1.231,7.665,3.866,7.425a6.678,6.678,0,0,0,3.789.278c5.4-1.284,25.207-8.144,26.558-18.4a9.834,9.834,0,0,0,.077-1.341,8.949,8.949,0,0,0-1.255-4.987,8.989,8.989,0,0,1,.513,1.437c-1.638-3.737-5.629-6.084-8.733-7.406v-.105c-.479-.187-.958-.34-1.351-.479a4.025,4.025,0,0,0-.062-.829l-31.057-21.4s13.5-11.128,27.459-9.413,16.177-.819,16.177-.819,7.157-6.807,7.876-14.645l.45-.12S730.355,432.551,730.288,431.646Z" transform="translate(-404.03 -302.782)" fill="url(#linear-gradient)"/>
        <path id="Path_798" data-name="Path 798" d="M741.474,673.671s1.269,13.974-5.083,15.67-.422,8.47,4.656,7.186,23.718-8.048,24.987-18.2-12.7-13.552-12.7-13.552Z" transform="translate(-453.142 -489.07)" fill="#d8d6d6"/>
        <path id="Path_799" data-name="Path 799" d="M741.474,673.671s1.269,13.974-5.083,15.67-.422,8.47,4.656,7.186a63.386,63.386,0,0,0,14.245-5.961c5.15-2.951,10.109-7.174,10.742-12.242,1.269-10.156-12.7-13.552-12.7-13.552Z" transform="translate(-453.142 -489.07)" fill="#e1e1e1" opacity="0.05"/>
        <path id="Path_800" data-name="Path 800" d="M746.8,674.551s1.27,13.974-5.083,15.67-.422,8.47,4.656,7.186,23.718-8.048,24.987-18.2-12.7-13.552-12.7-13.552Z" transform="translate(-455.919 -489.528)" fill="#e1e1e1"/>
        <path id="Path_801" data-name="Path 801" d="M769.847,666.55,758,675.446s.053.6.086,1.566c4.474-1.226,14.223-4.484,14.371-9.581A22.958,22.958,0,0,0,769.847,666.55Z" transform="translate(-465.836 -489.997)" opacity="0.1"/>
        <rect id="Rectangle_184" data-name="Rectangle 184" width="5.083" height="3.813" transform="translate(291.517 54.793)" fill="#f8bdc5"/>
        <path id="Path_802" data-name="Path 802" d="M706.6,541s-8.072,6.342-14.7,7.847a48.944,48.944,0,0,0-11.377,3.981l-15.248,7.751a9.265,9.265,0,0,0-5.049,7.3c-.436,4.311,1.3,9.983,11.646,13.356l32.609,27.1,10.165-8.47-34.726-26.673L706.6,556.674Z" transform="translate(-414.868 -424.592)" fill="#758ac8"/>
        <path id="Path_803" data-name="Path 803" d="M706.6,541s-8.072,6.342-14.7,7.847a48.944,48.944,0,0,0-11.377,3.981l-15.248,7.751a9.265,9.265,0,0,0-5.049,7.3c-.436,4.311,1.3,9.983,11.646,13.356l32.609,27.1,10.165-8.47-34.726-26.673L706.6,556.674Z" transform="translate(-414.868 -424.592)" fill="#1e27cb" opacity="0.794"/>
        <path id="Path_804" data-name="Path 804" d="M695.419,467.019s-15.67.422-26.683-8.048-23.291-5.931-20.752-.848,15.67,9.318,17.787,9.739,32.609,8.9,32.609,8.9Z" transform="translate(-408.347 -378.98)" fill="#f8bdc5"/>
        <path id="Path_805" data-name="Path 805" d="M695.419,467.019s-15.67.422-26.683-8.048-23.291-5.931-20.752-.848,15.67,9.318,17.787,9.739,32.609,8.9,32.609,8.9Z" transform="translate(-408.347 -378.98)" opacity="0.05"/>
        <path id="Path_806" data-name="Path 806" d="M709.837,533.06l-5.083,15.248s-28.585,17.576-30.918,19.9c-1.811,1.811-4.235,8.9,4.235,14.822S709.832,607.6,709.832,607.6s17.787-3.832,16.518-11.018l-29.222-21.174s12.7-11.018,25.835-9.317,15.248-.848,15.248-.848,10.165-10.175,6.774-19.9S709.837,533.06,709.837,533.06Z" transform="translate(-421.069 -420.455)" fill="#2840f2"/>
        <path id="Path_807" data-name="Path 807" d="M737.65,375.179s14.4,15.67,13.552,20.326,11.435-13.552,11.435-13.552a47.105,47.105,0,0,1-2.965-19.483Z" transform="translate(-455.235 -331.586)" fill="#f8bdc5"/>
        <path id="Path_808" data-name="Path 808" d="M751.911,408.715a42.1,42.1,0,0,1,3.1-2.956,42.977,42.977,0,0,0,5.935-5.926c2.965-3.832,13.974,12.7,13.974,12.7s6.774,7.622,5.931,25.835,1.059,42.563,1.059,42.563l-2.563.714a14.673,14.673,0,0,1-12.982-1.844c-3.382-2.338-7.665-4.791-10.922-5.011a29.519,29.519,0,0,1-12.072-4.024s2.755-6.563-1.48-27.742a49.454,49.454,0,0,1,6.558-36.23S749.3,411.407,751.911,408.715Z" transform="translate(-456.93 -350.75)" opacity="0.1"/>
        <path id="Path_809" data-name="Path 809" d="M783.41,477.634l-2.539.848-1.509.5a14.668,14.668,0,0,1-12.982-1.844c-3.377-2.333-7.665-4.79-10.922-5.011-6.343-.426-13.528-5.083-13.528-5.083s4.235-5.5,0-26.683a49.376,49.376,0,0,1,6.563-36.211s.853,4.584,3.464,1.887a41.566,41.566,0,0,1,3.095-2.951,42.981,42.981,0,0,0,5.935-5.926c2.965-3.832,13.974,12.7,13.974,12.7s6.774,7.622,5.931,25.835c-.091,1.916-.129,3.89-.134,5.888A290.507,290.507,0,0,0,783.41,477.634Z" transform="translate(-456.951 -349.359)" fill="#f2f2f2"/>
        <path id="Path_810" data-name="Path 810" d="M749.326,476.364l.422,9.318s-22.448,1.27-27.1-3.387,12.695,13.7,16.527,14.822c3.6,1.059,12.886,1.993,17.758,2.089a7.186,7.186,0,0,0,6.707-4.067,6.779,6.779,0,0,0,.527-3.952c-.848-5.5,0-17.365,0-17.365Z" transform="translate(-447.007 -389.594)" opacity="0.1"/>
        <path id="Path_811" data-name="Path 811" d="M727.152,474.594l.422,9.318s-22.448,1.269-27.1-3.387-21.5-3.626-21.174,0c.211,2.328,11.435,9.739,18.2,10.165s15.665,3.531,19.5,4.656c3.6,1.059,12.886,1.993,17.758,2.089a7.186,7.186,0,0,0,6.707-4.067,6.779,6.779,0,0,0,.527-3.952c-.848-5.5,0-17.365,0-17.365Z" transform="translate(-424.832 -388.672)" fill="#f8bdc5"/>
        <path id="Path_812" data-name="Path 812" d="M780.475,420.77s-9.739,1.269-8.47,15.67,2.965,15.67,2.965,15.67,14.4-1.269,16.091-1.7.848-16.091.848-16.091S791.484,420.348,780.475,420.77Z" transform="translate(-473.073 -361.952)" opacity="0.1"/>
        <path id="Path_813" data-name="Path 813" d="M780.475,419.889s-9.739,1.269-8.47,15.67,2.965,15.67,2.965,15.67,14.4-1.27,16.091-1.7.848-16.091.848-16.091S791.484,419.458,780.475,419.889Z" transform="translate(-473.073 -361.494)" fill="#f1f1f1"/>
        <path id="Path_814" data-name="Path 814" d="M759.477,372c-.666-3.353.7-4.388,1.059-8.68l-22.036,12.7s2.525,2.75,5.394,6.28a15.7,15.7,0,0,0,3.923.479C753.59,382.808,756.747,376.609,759.477,372Z" transform="translate(-455.677 -332.029)" opacity="0.1"/>
        <circle id="Ellipse_92" data-name="Ellipse 92" cx="15.67" cy="15.67" r="15.67" transform="translate(276.059 19.009)" fill="#f8bdc5"/>
        <path id="Path_815" data-name="Path 815" d="M731.927,334.506c-2.4,1.523-2.429,4.968-.886,7.353s4.2,3.962,6.759,5.447a4.1,4.1,0,0,0,2.4.781,3.531,3.531,0,0,0,1.715-.867,59.139,59.139,0,0,0,5.116-4.489c2.328-2.29,4.565-5.111,4.2-8.307-.412-3.626-4-6.357-5.442-9.792-1.217-2.874-.853-6.1-1.916-9.035s-4.79-5.653-7.579-4.115a15.282,15.282,0,0,0-2.515,2.338c-2.137,1.887-5.581,2.074-8.5,1.212s-3.789-4.383-7.866-4.393a4.57,4.57,0,0,1,3.085,4.752c-1.633.925-3.78.4-5.748.364s-4.312,1.068-3.971,2.841c.3,1.437,2.371,2.505,2.065,3.943a32.46,32.46,0,0,1-11.564,3.545c-.733.081,4.4,4.35,4.987,4.632a68.875,68.875,0,0,0,6.98,2.563C719.395,335.4,725.7,336.159,731.927,334.506Z" transform="translate(-436.246 -304.585)" opacity="0.1"/>
        <path id="Path_816" data-name="Path 816" d="M731.927,333.616c-2.4,1.523-2.429,4.968-.886,7.353s4.2,3.962,6.759,5.447a4.1,4.1,0,0,0,2.4.781,3.531,3.531,0,0,0,1.715-.867,59.141,59.141,0,0,0,5.116-4.489c2.328-2.29,4.565-5.111,4.2-8.307-.412-3.626-4-6.357-5.442-9.792-1.217-2.874-.853-6.1-1.916-9.035s-4.791-5.653-7.579-4.115a15.277,15.277,0,0,0-2.515,2.338c-2.137,1.887-5.581,2.074-8.5,1.212s-3.789-4.383-7.866-4.393a4.57,4.57,0,0,1,3.085,4.752c-1.633.925-3.78.4-5.748.364s-4.311,1.068-3.971,2.841c.3,1.437,2.371,2.505,2.065,3.943a32.462,32.462,0,0,1-11.564,3.545c-.733.081,4.4,4.35,4.987,4.632a68.884,68.884,0,0,0,6.98,2.563C719.395,334.517,725.7,335.259,731.927,333.616Z" transform="translate(-436.246 -304.121)" fill="#916168"/>
        <path id="Path_817" data-name="Path 817" d="M770.449,680.89a9.346,9.346,0,0,1,.685,4.987c-1.269,10.165-19.9,16.939-24.987,18.2a6.736,6.736,0,0,1-6.817-2.778,6.6,6.6,0,0,0,7.243,3.626c5.083-1.27,23.718-8.048,24.987-18.2A9.3,9.3,0,0,0,770.449,680.89Z" transform="translate(-456.11 -497.468)" fill="#fff" opacity="0.1"/>
        <path id="Path_818" data-name="Path 818" d="M375.374,500.419h0c-.378-.853-2.343-2.515-11.813-2.874-6.486-.244-8.695-3.67-9.293-7.013,2.132-.278,3.8-.661,4.345-1.193,0,0-.029-.153-.077-.426l.077-.057a44.882,44.882,0,0,1-.647-7.3,28.088,28.088,0,0,1,.661-6.228,18.37,18.37,0,0,0,.331-4.105c.053-8.144-2.807-22.458-2.807-22.458l-.393-11.895a8.263,8.263,0,0,0-4.5-7.138,6.77,6.77,0,0,0-3.042-.757s-15.013-2.366-28.527-3.655c-.958-.771-4.335-2.85-12.077-1.657l-4.455-13.04a3.707,3.707,0,0,1-.077-.479c.158-1.658,1.265-4.153,6.424-4.311l1.078.958s.192-.378.513-.958c6.4-.072,41.265-.426,43.062,0,1.978.479,19.31-3.382,19.809-3.861,6.735-6.568-19.809-3.382-19.809-3.382-2.611.426-11.047-.081-19.689-.786,4.278-6.414,8.3-28.187,8.3-28.187s15.329-7.727,10.893-12.072-17.825,9.658-17.825,9.658-5.447,15.938-7.923,20.767c-.958,1.916-2.2,2.309-3.305,2.089.5-.4.829-.642.829-.642s-10.894-8.695-11.885-12.072a8.063,8.063,0,0,0-.728-1.586c-.522-3.061-1.437-6.074-3.669-8.082a8.3,8.3,0,0,0-1.236-1.087c-.6-.431-1.289-.8-1.859-1.274h0c.321-1.475.695-3.008,1.083-4.493a16.094,16.094,0,0,0,14.371-15.809,15.594,15.594,0,0,0-.436-3.646,7.023,7.023,0,0,0,6.228-3,8.237,8.237,0,0,0,.211-8.316,10.293,10.293,0,0,0-2.194-2.769,12.978,12.978,0,0,0-5.03-3.143c-1.643-.57-3.459-.91-4.762-2.026a21.109,21.109,0,0,1-1.586-2.4,12.258,12.258,0,0,0-1.916-2.232,17.52,17.52,0,0,0-9.222-4.656c-4.2-.819-8.532-.527-12.8-.235-1.6.11-3.468.393-4.187,1.782-.541,1.044-.187,2.295-.259,3.459-.225,3.7-4.46,5.749-8.144,6.644s-8.077,1.672-9.854,4.92c-1.614,2.932-.479,6.486.038,9.777A23.919,23.919,0,0,1,264,355.747c-1.619,2.477-3.708,4.68-4.987,7.339a13.994,13.994,0,0,0-.929,9.514,6.7,6.7,0,0,1,.412,2.826,4.93,4.93,0,0,1-1.121,2.1,25.389,25.389,0,0,1-18.06,9.356,5.173,5.173,0,0,0,1.648,2.486,11.9,11.9,0,0,0,3.42,2.362,51.641,51.641,0,0,0,10.491,3.9,18.28,18.28,0,0,0,7.483.637,7.841,7.841,0,0,0,5.931-4.1c.594-1.3.68-2.778,1.207-4.105,1.049-2.654,3.65-4.374,5.408-6.649a166.268,166.268,0,0,0-.838,17.648v5.049c0,6.654-.479,11.243-4.6,19.555a4.963,4.963,0,0,0-.618,2.874,3.152,3.152,0,0,0,1.078,2.927,28.378,28.378,0,0,0-.417,5.02c-.057,6.055,1.988,14.185,12.834,16.244l19.31-.958s27.234-5.313,34.659-1.437a2.74,2.74,0,0,1,2.17,2.673,6.145,6.145,0,0,1-.187,1.193,18.751,18.751,0,0,0-.235,3.8c-.034,8.144,1.72,26.625,1.72,26.625v7.837c-1.236,1.859-2.759,4.608-2.563,6.635v.134a.415.415,0,0,0,.029.177c.029.057,0,.105.033.158a.461.461,0,0,1,.043.153,1.19,1.19,0,0,0,.062.168c.024.053.034.086.053.129s.062.125.1.182l.057.1a2.3,2.3,0,0,0,.192.263c2.477,2.874,14.85,8.436,18.817,8.211,4.211-.24,18.319.479,18.817-5.8a.762.762,0,0,0-.034-.57Z" transform="translate(-195.623 -305.447)" fill="url(#linear-gradient-2)"/>
        <path id="Path_819" data-name="Path 819" d="M445.578,674.991s-5.749,7.186-3.353,10.06,14.371,8.369,18.2,8.144c4.072-.24,17.725.479,18.2-5.748,0,0,.958-2.874-11.5-3.353s-8.623-13.413-8.623-13.413Z" transform="translate(-301.028 -492.149)" fill="#e4e4e4"/>
        <path id="Path_820" data-name="Path 820" d="M305.86,550.928s-5.749,19.641,11.5,22.994l18.683-.958s26.348-5.27,33.533-1.437c0,0,2.874.479,1.916,4.311s1.437,29.7,1.437,29.7v8.623s16.288,0,18.2-1.916c0,0-1.437-7.665,0-13.892s-2.4-25.869-2.4-25.869l-.378-11.823a8.221,8.221,0,0,0-4.34-7.09,6.419,6.419,0,0,0-2.941-.747S348.5,547.555,337,548.513,305.86,550.928,305.86,550.928Z" transform="translate(-229.813 -428.445)" opacity="0.1"/>
        <path id="Path_821" data-name="Path 821" d="M305.86,549.928s-5.749,19.641,11.5,22.994l18.683-.958s26.348-5.27,33.533-1.437c0,0,2.874.479,1.916,4.311s1.437,29.7,1.437,29.7v8.623s16.288,0,18.2-1.916c0,0-1.437-7.665,0-13.892s-2.4-25.869-2.4-25.869l-.378-11.823a8.221,8.221,0,0,0-4.34-7.09,6.418,6.418,0,0,0-2.941-.747S348.5,546.555,337,547.513,305.86,549.928,305.86,549.928Z" transform="translate(-229.813 -427.924)" fill="#5c63ab"/>
        <path id="Path_822" data-name="Path 822" d="M405.692,437.958s3.832,4.79,6.228,0,7.665-20.6,7.665-20.6,12.934-13.892,17.246-9.581-10.539,11.976-10.539,11.976-5.27,29.222-10.06,29.7a90.918,90.918,0,0,1-11.976,0l-2.4-5.27Z" transform="translate(-280.304 -354.757)" fill="#f8bdc5"/>
        <path id="Path_823" data-name="Path 823" d="M405.692,437.958s3.832,4.79,6.228,0,7.665-20.6,7.665-20.6,12.934-13.892,17.246-9.581-10.539,11.976-10.539,11.976-5.27,29.222-10.06,29.7a90.918,90.918,0,0,1-11.976,0l-2.4-5.27Z" transform="translate(-280.304 -354.757)" opacity="0.05"/>
        <path id="Path_824" data-name="Path 824" d="M364.483,421.68s8.623,10.06,9.581,13.413,11.5,11.976,11.5,11.976-7.665,5.749-6.228,8.623-10.06-9.581-10.06-9.581L355.86,426.47Z" transform="translate(-256.34 -362.431)" fill="#eb6475"/>
        <path id="Path_825" data-name="Path 825" d="M364.483,421.68s8.623,10.06,9.581,13.413,11.5,11.976,11.5,11.976-7.665,5.749-6.228,8.623-10.06-9.581-10.06-9.581L355.86,426.47Z" transform="translate(-256.34 -362.431)" fill="#db2721" opacity="0.59"/>
        <path id="Path_826" data-name="Path 826" d="M361.886,393.056s-4.311,13.892-4.311,19.162-18.2-1.437-17.725-4.311,10.539-13.413,11.018-17.725S361.886,393.056,361.886,393.056Z" transform="translate(-247.994 -345.305)" fill="#f8bdc5"/>
        <path id="Path_827" data-name="Path 827" d="M328.6,417.361s-16.767-4.311-19.162,20.12,1.916,27.306-5.269,42.156,48.863,1.916,48.863,1.916-2.874-3.353-11.976-1.916L336.743,466.7s-1.437-5.749,6.707-5.749,4.311-16.767,4.311-16.767-4.311-14.371-6.707-15.809S334.348,418.319,328.6,417.361Z" transform="translate(-229.079 -360.029)" opacity="0.1"/>
        <path id="Path_828" data-name="Path 828" d="M328.6,415.361s-16.767-4.311-19.162,20.12,1.916,27.306-5.269,42.156,48.863,1.916,48.863,1.916-2.874-3.353-11.976-1.916L336.743,464.7s-1.437-5.749,6.707-5.749,4.311-16.767,4.311-16.767-4.311-14.371-6.707-15.809S334.348,416.319,328.6,415.361Z" transform="translate(-229.079 -358.987)" fill="#ff4133"/>
        <path id="Path_829" data-name="Path 829" d="M388.255,487.68s34.97,3.832,40.719,2.874c0,0,25.677-3.162,19.162,3.353-.479.479-17.246,4.311-19.162,3.832s-42.635,0-42.635,0l-.479-4.79Z" transform="translate(-271.968 -396.814)" fill="#f8bdc5"/>
        <path id="Path_830" data-name="Path 830" d="M333.315,442.53l25.39,22.994s4.79-9.581,6.228-9.581-17.246-28.264-17.246-28.264-4.79-5.749-7.665-2.874S328.524,425.763,333.315,442.53Z" transform="translate(-243.855 -363.64)" opacity="0.1"/>
        <path id="Path_831" data-name="Path 831" d="M332.315,440.53,357.7,463.524s4.79-9.581,6.228-9.581-17.246-28.264-17.246-28.264-4.79-5.749-7.665-2.874S327.524,423.763,332.315,440.53Z" transform="translate(-243.334 -362.598)" fill="#ff4133"/>
        <circle id="Ellipse_93" data-name="Ellipse 93" cx="15.809" cy="15.809" r="15.809" transform="translate(93.772 24.757)" fill="#f8bdc5"/>
        <path id="Path_832" data-name="Path 832" d="M321.986,343.954a6.534,6.534,0,0,0,7.55-2.62,8.331,8.331,0,0,0,.2-8.249,11.682,11.682,0,0,0-6.51-5.385c-1.648-.584-3.483-.92-4.747-2.127a13.989,13.989,0,0,1-1.873-2.721c-2.237-3.487-6.228-5.547-10.285-6.357s-8.254-.522-12.383-.235c-1.543.11-3.353.388-4.053,1.768-.522,1.035-.182,2.275-.249,3.43-.216,3.674-4.311,5.71-7.89,6.592s-7.727,1.71-9.471,4.948c-1.562,2.908-.445,6.434.038,9.7a24.211,24.211,0,0,1-3.487,16.4c-1.566,2.458-3.583,4.642-4.824,7.282a14.2,14.2,0,0,0-.9,9.437,6.829,6.829,0,0,1,.4,2.8,4.929,4.929,0,0,1-1.083,2.084A24.374,24.374,0,0,1,244.95,390c.546,2.055,2.534,3.353,4.426,4.311a49.2,49.2,0,0,0,10.146,3.871,17.282,17.282,0,0,0,7.238.632,7.633,7.633,0,0,0,5.749-4.062c.575-1.293.661-2.755,1.169-4.077,1.145-2.965,4.2-4.757,5.835-7.483,1.566-2.606,2.175-2.913,2.572-5.921s1.274-6.256,3.746-8.024c2.587-1.854,6.228-1.5,9.1-.077s4.652.867,7.052,2.956a58.443,58.443,0,0,0,13.993,9.016c-.479-4.177-1.25-8.838-4.642-11.325-.958-.714-2.17-1.26-2.678-2.352-.81-1.739.575-3.861-.053-5.677s-3.013-2.486-4.072-4.134a4.63,4.63,0,0,1,.187-4.738,12.775,12.775,0,0,1,3.5-3.507q1.768-1.336,3.583-2.611a12.8,12.8,0,0,0,2.913-2.539c.479-.656.8-2.093,1.461-2.558C317.856,340.548,320.433,343.345,321.986,343.954Z" transform="translate(-198.561 -307.359)" opacity="0.1"/>
        <path id="Path_833" data-name="Path 833" d="M320.986,342.954a6.534,6.534,0,0,0,7.55-2.62,8.331,8.331,0,0,0,.2-8.249,11.682,11.682,0,0,0-6.51-5.384c-1.648-.584-3.483-.92-4.747-2.127a14,14,0,0,1-1.873-2.721c-2.237-3.487-6.228-5.547-10.285-6.357s-8.254-.522-12.383-.235c-1.543.11-3.353.388-4.053,1.768-.522,1.035-.182,2.275-.249,3.43-.216,3.674-4.311,5.71-7.89,6.592s-7.727,1.71-9.471,4.949c-1.562,2.908-.445,6.434.038,9.7a24.211,24.211,0,0,1-3.487,16.4c-1.566,2.458-3.583,4.642-4.824,7.282a14.2,14.2,0,0,0-.9,9.437,6.828,6.828,0,0,1,.4,2.8,4.929,4.929,0,0,1-1.083,2.084A24.374,24.374,0,0,1,243.95,389c.546,2.055,2.534,3.353,4.426,4.311a49.189,49.189,0,0,0,10.146,3.871,17.281,17.281,0,0,0,7.238.632,7.633,7.633,0,0,0,5.749-4.062c.575-1.293.661-2.754,1.169-4.077,1.145-2.965,4.2-4.757,5.835-7.483,1.566-2.606,2.175-2.913,2.572-5.921s1.274-6.256,3.746-8.024c2.587-1.854,6.228-1.5,9.1-.077s4.652.867,7.052,2.956a58.444,58.444,0,0,0,13.993,9.016c-.479-4.177-1.25-8.838-4.642-11.325-.958-.714-2.17-1.26-2.678-2.352-.81-1.739.575-3.861-.053-5.677s-3.013-2.486-4.072-4.134a4.63,4.63,0,0,1,.187-4.738,12.773,12.773,0,0,1,3.5-3.507q1.768-1.337,3.583-2.611a12.8,12.8,0,0,0,2.913-2.539c.479-.656.8-2.093,1.461-2.558C316.856,339.548,319.433,342.345,320.986,342.954Z" transform="translate(-198.04 -306.838)" fill="#191847"/>
        <g id="Group_76" data-name="Group 76" transform="translate(140.597 178.531)" opacity="0.1">
          <path id="Path_834" data-name="Path 834" d="M475.713,674.455a16.554,16.554,0,0,1,.546-3.775l-.24.081A16.671,16.671,0,0,0,475.713,674.455Z" transform="translate(-459.371 -670.68)" fill="#fff"/>
          <path id="Path_835" data-name="Path 835" d="M460.411,705.344c-3.832.225-15.809-5.27-18.2-8.144a2.552,2.552,0,0,1-.556-1.361,3.009,3.009,0,0,0,.556,2.319c2.4,2.874,14.371,8.369,18.2,8.144,4.072-.24,17.725.479,18.2-5.749a.776.776,0,0,0-.067-.508C477.451,705.785,464.382,705.11,460.411,705.344Z" transform="translate(-441.607 -683.787)" fill="#fff"/>
        </g>
        <rect id="Rectangle_185" data-name="Rectangle 185" width="0.479" height="19.641" transform="translate(178.323 57.093)" fill="#ffd77c" stroke="#ffab50" stroke-miterlimit="10" stroke-width="0.25"/>
        <rect id="Rectangle_186" data-name="Rectangle 186" width="0.479" height="19.641" transform="translate(178.802 57.093)" fill="#ffd77c" stroke="#ffab50" stroke-miterlimit="10" stroke-width="0.25"/>
        <rect id="Rectangle_187" data-name="Rectangle 187" width="0.479" height="19.641" transform="translate(179.281 57.093)" fill="#ffd77c" stroke="#ffab50" stroke-miterlimit="10" stroke-width="0.25"/>
        <rect id="Rectangle_188" data-name="Rectangle 188" width="0.479" height="19.641" transform="translate(179.761 57.093)" fill="#ffd77c" stroke="#ffab50" stroke-miterlimit="10" stroke-width="0.25"/>
        <rect id="Rectangle_189" data-name="Rectangle 189" width="0.479" height="19.641" transform="translate(180.24 57.093)" fill="#ffd77c" stroke="#ffab50" stroke-miterlimit="10" stroke-width="0.25"/>
        <rect id="Rectangle_190" data-name="Rectangle 190" width="0.479" height="19.641" transform="translate(180.719 57.093)" fill="#ffd77c" stroke="#ffab50" stroke-miterlimit="10" stroke-width="0.25"/>
        <rect id="Rectangle_191" data-name="Rectangle 191" width="0.479" height="19.641" transform="translate(181.198 57.093)" fill="#ffd77c" stroke="#ffab50" stroke-miterlimit="10" stroke-width="0.25"/>
      </g>
      <g id="Group_82-2" data-name="Group 82" transform="translate(538.148 370)">
        <g id="Group_25" data-name="Group 25" transform="translate(274.7 53.291)" opacity="0.901">
          <path id="Path_205" data-name="Path 205" d="M844.679,277.182a4.77,4.77,0,0,0-6.219.578,4.871,4.871,0,0,0,.193,6.788l5.943,5.908a.993.993,0,0,0,1.4,0l5.908-5.943a4.871,4.871,0,0,0,.158-6.788,4.762,4.762,0,0,0-6.214-.547A1.007,1.007,0,0,1,844.679,277.182Z" transform="translate(-837.177 -276.273)" fill="#f55f44"/>
          <path id="Path_206" data-name="Path 206" d="M854.857,308.15a.875.875,0,0,0,0,.827,4.328,4.328,0,0,1,.232.385c.153.381-.114.8-.385,1.107-.171.2-.359.459-.249.7a.908.908,0,0,0,.2.228,1.462,1.462,0,0,1-.556,2.442" transform="translate(-846.694 -294.2)" fill="none" stroke="#f55f44" stroke-miterlimit="10" stroke-width="1"/>
        </g>
        <g id="Group_26" data-name="Group 26" transform="translate(15 63.492)" opacity="0.899">
          <path id="Path_207" data-name="Path 207" d="M264.679,351.182a4.77,4.77,0,0,0-6.219.578,4.871,4.871,0,0,0,.193,6.788l5.943,5.908a.993.993,0,0,0,1.4,0l5.908-5.943a4.871,4.871,0,0,0,.158-6.788,4.761,4.761,0,0,0-6.214-.547A1.006,1.006,0,0,1,264.679,351.182Z" transform="translate(-257.177 -350.273)" fill="#f55f44"/>
          <path id="Path_208" data-name="Path 208" d="M274.857,382.15a.876.876,0,0,0,0,.827,4.3,4.3,0,0,1,.232.385c.153.381-.114.8-.385,1.107-.171.2-.359.46-.249.7a.9.9,0,0,0,.2.228,1.462,1.462,0,0,1-.556,2.442" transform="translate(-266.694 -368.2)" fill="none" stroke="#f55f44" stroke-miterlimit="10" stroke-width="1"/>
        </g>
        <g id="Group_27" data-name="Group 27" transform="translate(123.563)" opacity="0.798">
          <path id="Path_209" data-name="Path 209" d="M646.675,70.424a6.039,6.039,0,0,0-7.873.731,6.166,6.166,0,0,0,.244,8.593l7.523,7.479a1.258,1.258,0,0,0,1.779,0l7.479-7.523a6.166,6.166,0,0,0,.2-8.593,6.028,6.028,0,0,0-7.867-.692A1.274,1.274,0,0,1,646.675,70.424Z" transform="translate(-637.177 -69.273)" fill="#f55f44"/>
          <path id="Path_210" data-name="Path 210" d="M655.059,101.15a1.107,1.107,0,0,0,0,1.047,5.447,5.447,0,0,1,.294.488c.194.482-.144,1.008-.487,1.4-.216.249-.454.554-.316.886a1.15,1.15,0,0,0,.255.288,1.85,1.85,0,0,1-.7,3.091" transform="translate(-644.725 -83.49)" fill="none" stroke="#f55f44" stroke-miterlimit="10" stroke-width="1"/>
        </g>
      </g>
    </g>
  </g>
</svg>
