<svg xmlns="http://www.w3.org/2000/svg" xmlns:xlink="http://www.w3.org/1999/xlink" width="200.028" height="154.961" viewBox="0 0 200.028 154.961">
  <defs>
    <filter id="Path_874" x="94.516" y="0" width="45.349" height="67.085" filterUnits="userSpaceOnUse">
      <feOffset dy="3" input="SourceAlpha"/>
      <feGaussianBlur stdDeviation="3" result="blur"/>
      <feFlood flood-opacity="0.161"/>
      <feComposite operator="in" in2="blur"/>
      <feComposite in="SourceGraphic"/>
    </filter>
  </defs>
  <g id="Group_83" data-name="Group 83" transform="translate(-281.407 -229.756)">
    <g id="Group_80" data-name="Group 80" transform="translate(281.407 235.756)">
      <g id="undraw_directions_x53j_2_" data-name="undraw_directions_x53j (2)" transform="translate(0)">
        <path id="Path_837" data-name="Path 837" d="M874.6,586.243l-21.169-36.666a.674.674,0,0,0-1.169,0l-21.169,36.666a.674.674,0,0,0,.584,1.02h6.315a.678.678,0,0,1,.676.676v7.825a.676.676,0,0,0,.674.676h8.239a.676.676,0,0,0,.676-.676v-3.782a.673.673,0,0,1,.674-.674h7.833a.676.676,0,0,1,.676.674v3.782a.676.676,0,0,0,.676.676h8.237a.676.676,0,0,0,.675-.676v-7.833a.676.676,0,0,1,.676-.676h6.315a.675.675,0,0,0,.584-1.012ZM845.081,590.3a.673.673,0,0,1-.478.2h-2.966a.676.676,0,1,1,0-1.351h2.972a.676.676,0,0,1,.478,1.153Zm19.446,0a.673.673,0,0,1-.478.2h-2.964a.676.676,0,1,1,0-1.351h2.976a.676.676,0,0,1,.478,1.153Z" transform="translate(-674.664 -454.502)" fill="#2840f1" opacity="0.1"/>
        <path id="Path_839" data-name="Path 839" d="M491.77,355.169h-26.2V349.5a1.355,1.355,0,0,0-1.355-1.355h-7.692v-6.035a.853.853,0,0,0-.853-.853h-9.909a.853.853,0,0,0-.853.853v6.033h-9.044a1.355,1.355,0,0,0-1.355,1.355v5.666H409.533a.276.276,0,0,0-.273.275v75.216a.276.276,0,0,0,.273.276h16.6a.276.276,0,0,0,.276-.276V420.539a.278.278,0,0,1,.276-.275H433.7a.277.277,0,0,1,.276.275v10.119a.276.276,0,0,0,.273.276h32.809a.278.278,0,0,0,.276-.276V420.539a.276.276,0,0,1,.273-.275h7.013a.275.275,0,0,1,.276.275v10.119a.278.278,0,0,0,.276.276h16.6a.278.278,0,0,0,.276-.276V355.445A.278.278,0,0,0,491.77,355.169Zm-68.332,61.58a.273.273,0,0,1-.273.273H412.911a.274.274,0,0,1-.276-.273v-3.5a.275.275,0,0,1,.276-.276h10.254a.276.276,0,0,1,.273.276Zm0-9.05a.273.273,0,0,1-.273.276H412.911a.274.274,0,0,1-.276-.276v-3.5a.273.273,0,0,1,.276-.276h10.254a.274.274,0,0,1,.273.276Zm0-9.048a.276.276,0,0,1-.273.276H412.911a.276.276,0,0,1-.276-.276v-3.5a.276.276,0,0,1,.276-.276h10.254a.275.275,0,0,1,.273.276Zm0-9.05a.273.273,0,0,1-.273.276H412.911a.273.273,0,0,1-.276-.276v-3.494a.274.274,0,0,1,.276-.276h10.254a.274.274,0,0,1,.273.276Zm0-9.048a.276.276,0,0,1-.273.275H412.911a.276.276,0,0,1-.276-.276v-3.5a.273.273,0,0,1,.276-.274h10.254a.274.274,0,0,1,.273.274Zm0-9.048a.274.274,0,0,1-.273.273H412.911a.273.273,0,0,1-.276-.273V368a.276.276,0,0,1,.276-.276h10.254a.275.275,0,0,1,.273.276Zm0-9.05a.273.273,0,0,1-.273.276H412.911a.273.273,0,0,1-.276-.276v-3.494a.273.273,0,0,1,.276-.276h10.254a.273.273,0,0,1,.273.276Zm24.31,54.29a.274.274,0,0,1-.276.273H437.219a.276.276,0,0,1-.276-.273v-3.494a.278.278,0,0,1,.276-.276h10.254a.276.276,0,0,1,.276.276Zm0-9.05a.273.273,0,0,1-.276.276H437.219a.275.275,0,0,1-.276-.276v-3.5a.276.276,0,0,1,.276-.276h10.254a.273.273,0,0,1,.276.276Zm0-9.048a.276.276,0,0,1-.276.275H437.219a.278.278,0,0,1-.276-.276v-3.5a.278.278,0,0,1,.276-.276h10.254a.276.276,0,0,1,.276.276Zm0-9.05a.273.273,0,0,1-.276.276H437.219a.276.276,0,0,1-.276-.276v-3.492a.276.276,0,0,1,.276-.276h10.254a.274.274,0,0,1,.276.276Zm0-9.048a.276.276,0,0,1-.276.276H437.219a.278.278,0,0,1-.276-.276v-3.5a.276.276,0,0,1,.276-.274h10.254a.273.273,0,0,1,.276.274Zm0-9.048a.273.273,0,0,1-.276.273H437.219a.276.276,0,0,1-.276-.273V368a.278.278,0,0,1,.276-.276h10.254a.276.276,0,0,1,.276.276Zm0-9.05a.273.273,0,0,1-.276.276H437.219a.276.276,0,0,1-.276-.276v-3.492a.275.275,0,0,1,.276-.276h10.254a.273.273,0,0,1,.276.276Zm16.612,54.29a.273.273,0,0,1-.276.273H453.831a.275.275,0,0,1-.276-.273v-3.492a.278.278,0,0,1,.276-.276h10.254a.276.276,0,0,1,.276.276Zm0-9.05a.274.274,0,0,1-.276.276H453.831a.276.276,0,0,1-.276-.276v-3.5a.276.276,0,0,1,.276-.276h10.254a.274.274,0,0,1,.276.276Zm0-9.048a.276.276,0,0,1-.276.276H453.831a.278.278,0,0,1-.276-.276v-3.5a.278.278,0,0,1,.276-.276h10.254a.276.276,0,0,1,.276.276Zm0-9.05a.274.274,0,0,1-.276.276H453.831a.276.276,0,0,1-.276-.276v-3.49a.276.276,0,0,1,.276-.276h10.254a.274.274,0,0,1,.276.276Zm0-9.048a.276.276,0,0,1-.276.276H453.831a.278.278,0,0,1-.276-.276v-3.5a.276.276,0,0,1,.276-.274h10.254a.273.273,0,0,1,.276.274Zm0-9.048a.273.273,0,0,1-.276.273H453.831a.276.276,0,0,1-.276-.273V368a.278.278,0,0,1,.276-.276h10.254a.276.276,0,0,1,.276.276Zm0-9.05a.274.274,0,0,1-.276.276H453.831a.276.276,0,0,1-.276-.276v-3.49a.276.276,0,0,1,.276-.276h10.254a.273.273,0,0,1,.276.276Zm24.31,54.29a.275.275,0,0,1-.276.273H478.141a.274.274,0,0,1-.276-.273v-3.49a.276.276,0,0,1,.276-.276H488.4a.278.278,0,0,1,.276.276Zm0-9.05a.276.276,0,0,1-.276.276H478.141a.274.274,0,0,1-.276-.276V404.2a.274.274,0,0,1,.276-.276H488.4a.276.276,0,0,1,.276.276Zm0-9.048a.278.278,0,0,1-.276.276H478.141a.276.276,0,0,1-.276-.276v-3.5a.276.276,0,0,1,.276-.276H488.4a.278.278,0,0,1,.276.276Zm0-9.05a.275.275,0,0,1-.276.276H478.141a.274.274,0,0,1-.276-.276v-3.488a.274.274,0,0,1,.276-.276H488.4a.276.276,0,0,1,.276.276Zm0-9.048a.277.277,0,0,1-.276.275H478.141a.275.275,0,0,1-.276-.275v-3.5a.273.273,0,0,1,.276-.274H488.4a.276.276,0,0,1,.276.274Zm0-9.048a.276.276,0,0,1-.273.28H478.141a.273.273,0,0,1-.276-.273V368a.276.276,0,0,1,.276-.276H488.4a.278.278,0,0,1,.276.276Zm0-9.05a.275.275,0,0,1-.276.275H478.141a.274.274,0,0,1-.276-.275v-3.488a.274.274,0,0,1,.276-.276H488.4a.276.276,0,0,1,.276.276Z" transform="translate(-339.001 -288.972)" fill="#2840f1" opacity="0.1"/>
        <path id="Path_840" data-name="Path 840" d="M378.955,278.84a5.9,5.9,0,0,0-3.423.371,5.043,5.043,0,0,1-4.129-.01,5.76,5.76,0,0,0-4.833.1,3.01,3.01,0,0,1-1.392.347c-1.959,0-3.59-1.974-3.929-4.578a3.756,3.756,0,0,0,.98-1.055,5.5,5.5,0,0,1,9.825-.035,3.778,3.778,0,0,0,3.255,1.788h.051C376.937,275.764,378.288,277.015,378.955,278.84Z" transform="translate(-311.79 -233.028)" fill="#2840f1" opacity="0.1"/>
        <path id="Path_841" data-name="Path 841" d="M384.907,242.308l-3.168,2.008,1.923-3.5a3.131,3.131,0,0,0-1.917-.684h-.051a3.706,3.706,0,0,1-.657-.049l-1.069.682.461-.837a3.817,3.817,0,0,1-1.878-1.429l-1.923,1.225,1.21-2.212a5.624,5.624,0,0,0-4.3-2.176,5.9,5.9,0,0,0-4.927,3.039,3.684,3.684,0,0,1-3.266,1.757h-.108c-2.206,0-3.994,2.5-3.994,5.586s1.788,5.586,3.994,5.586a2.981,2.981,0,0,0,1.392-.349,5.76,5.76,0,0,1,4.833-.094,5.043,5.043,0,0,0,4.11,0,5.758,5.758,0,0,1,4.792.092,2.99,2.99,0,0,0,1.376.341c2.206,0,3.994-2.5,3.994-5.586A7.1,7.1,0,0,0,384.907,242.308Z" transform="translate(-311.782 -204.67)" fill="#2840f1" opacity="0.1"/>
        <path id="Path_842" data-name="Path 842" d="M860.721,470.542a4.145,4.145,0,0,0-2.4.259,3.525,3.525,0,0,1-2.878,0,4.033,4.033,0,0,0-3.384.067,2.1,2.1,0,0,1-.974.243c-1.372,0-2.512-1.382-2.749-3.2a2.667,2.667,0,0,0,.686-.739,3.856,3.856,0,0,1,6.882-.025,2.641,2.641,0,0,0,2.278,1.251h.037A2.884,2.884,0,0,1,860.721,470.542Z" transform="translate(-688.466 -387.489)" fill="#2840f1" opacity="0.1"/>
        <path id="Path_843" data-name="Path 843" d="M864.856,444.962l-2.216,1.406,1.345-2.449a2.192,2.192,0,0,0-1.341-.478h-.035a2.623,2.623,0,0,1-.459-.035l-.753.476.323-.584a2.692,2.692,0,0,1-1.314-1l-1.349.849.849-1.545a3.918,3.918,0,0,0-3.012-1.525,4.122,4.122,0,0,0-3.449,2.129,2.576,2.576,0,0,1-2.28,1.225H851.1c-1.543,0-2.8,1.749-2.8,3.908s1.253,3.911,2.8,3.911a2.1,2.1,0,0,0,.974-.243,4.025,4.025,0,0,1,3.384-.065,3.545,3.545,0,0,0,2.878,0,4.031,4.031,0,0,1,3.353.065,2.111,2.111,0,0,0,.963.237c1.545,0,2.8-1.749,2.8-3.91a4.97,4.97,0,0,0-.588-2.374Z" transform="translate(-688.434 -367.623)" fill="#2840f1" opacity="0.1"/>
        <path id="Path_844" data-name="Path 844" d="M315.62,406.511a4.148,4.148,0,0,1,2.4.259,3.519,3.519,0,0,0,2.876,0,4.033,4.033,0,0,1,3.384.067,2.1,2.1,0,0,0,.974.243c1.372,0,2.514-1.382,2.751-3.2a2.638,2.638,0,0,1-.686-.739,3.856,3.856,0,0,0-6.886-.033,2.653,2.653,0,0,1-2.282,1.255h-.035A2.871,2.871,0,0,0,315.62,406.511Z" transform="translate(-264.473 -336.52)" fill="#2840f1" opacity="0.1"/>
        <path id="Path_845" data-name="Path 845" d="M292.855,380.954l2.216,1.4-1.347-2.449a2.2,2.2,0,0,1,1.341-.478h.037a2.645,2.645,0,0,0,.459-.035l.751.476-.322-.584a2.7,2.7,0,0,0,1.316-1l1.345.853-.851-1.545a3.938,3.938,0,0,1,3.014-1.525,4.122,4.122,0,0,1,3.449,2.129,2.574,2.574,0,0,0,2.28,1.225h.073c1.545,0,2.8,1.749,2.8,3.908s-1.251,3.911-2.8,3.911a2.11,2.11,0,0,1-.974-.243,4.025,4.025,0,0,0-3.384-.065,3.541,3.541,0,0,1-2.876,0,4.035,4.035,0,0,0-3.355.065,2.106,2.106,0,0,1-.963.237c-1.543,0-2.8-1.749-2.8-3.911A4.969,4.969,0,0,1,292.855,380.954Z" transform="translate(-245.888 -316.678)" fill="#2840f1" opacity="0.1"/>
        <path id="Path_846" data-name="Path 846" d="M295.68,784.66c2.763,1.755,6.745-.021,9.527,1.708.718.445,1.3,1.1,2.041,1.5a6.594,6.594,0,0,0,2.955.612c8.495.329,17.132-2.041,25.414-.127,2.316.535,4.582,1.4,6.956,1.531,4.1.222,8.029-1.778,12.134-1.888,6.225-.167,12.342,4,18.348,2.355,1.976-.541,3.788-1.694,5.827-1.888,2.272-.2,4.455.786,6.664,1.363,7.831,2.041,15.987-1.265,24.083-1.512,5.28-.161,10.509.99,15.785,1.255a94.257,94.257,0,0,0,11.258-.337,8.471,8.471,0,0,0,4.121-1.006c1.2-.784,1.931-2.468,1.192-3.692Z" transform="translate(-248.602 -641.78)" fill="#3f3d56"/>
        <path id="Path_847" data-name="Path 847" d="M295.68,784.66c2.763,1.755,6.745-.021,9.527,1.708.718.445,1.3,1.1,2.041,1.5a6.594,6.594,0,0,0,2.955.612c8.495.329,17.132-2.041,25.414-.127,2.316.535,4.582,1.4,6.956,1.531,4.1.222,8.029-1.778,12.134-1.888,6.225-.167,12.342,4,18.348,2.355,1.976-.541,3.788-1.694,5.827-1.888,2.272-.2,4.455.786,6.664,1.363,7.831,2.041,15.987-1.265,24.083-1.512,5.28-.161,10.509.99,15.785,1.255a94.257,94.257,0,0,0,11.258-.337,8.471,8.471,0,0,0,4.121-1.006c1.2-.784,1.931-2.468,1.192-3.692Z" transform="translate(-248.602 -641.78)" opacity="0.1"/>
        <path id="Path_848" data-name="Path 848" d="M278.68,779.526c-.092.047-4.107,4.644,8.685,3.179,2.816.389,7.16-.7,8.82.122.857.423,4.152-.507,5.039-.122a9.6,9.6,0,0,0,3.527.583c10.137.313,20.444-1.942,30.328-.12,2.764.509,5.468,1.336,8.3,1.457,4.893.212,9.582-1.692,14.48-1.8,7.429-.159,14.728,3.8,21.9,2.241,2.358-.515,4.52-1.612,6.954-1.8,2.711-.194,5.317.748,7.952,1.3,9.345,1.942,19.078-1.2,28.74-1.439,6.3-.153,12.541.942,18.837,1.195,4.477.179,8.963-.072,13.435-.32a12.219,12.219,0,0,0,4.917-.958c1.427-.746,2.3-2.348,1.422-3.514l-176.32-.007Z" transform="translate(-268.688 -637.494)" fill="#3f3d56"/>
        <g id="Group_77" data-name="Group 77" transform="translate(0 58.992)" opacity="0.1">
          <path id="Path_849" data-name="Path 849" d="M174.716,621.067a4.991,4.991,0,0,1-.659,2.527,5.172,5.172,0,0,1,0,5.053,4.642,4.642,0,0,1,.5,1.225c-2.228-2.937,1.718,3.181-.145,0H168.7c.045-.759-.018-10.681.361-11.34A4.99,4.99,0,0,1,168.4,616a5.2,5.2,0,0,1,.3-1.757,4.364,4.364,0,0,1,.361-.769,2.746,2.746,0,0,1,5,0,4.543,4.543,0,0,1,.353.745,5.231,5.231,0,0,1,.306,1.782,5.188,5.188,0,0,0,0,5.062Z" transform="translate(-156.351 -546.838)" fill="#3f3d56"/>
          <ellipse id="Ellipse_94" data-name="Ellipse 94" cx="3.157" cy="4.135" rx="3.157" ry="4.135" transform="translate(12.049 59.988)" fill="#3f3d56"/>
          <ellipse id="Ellipse_95" data-name="Ellipse 95" cx="3.157" cy="4.135" rx="3.157" ry="4.135" transform="translate(12.049 54.935)" fill="#3f3d56"/>
          <path id="Path_850" data-name="Path 850" d="M139.635,327.07a15.058,15.058,0,0,1-3.239,9.354,15.13,15.13,0,0,1-8.98,24.2c-.363.073-.733.131-1.106.176a15.286,15.286,0,0,1-3.47.018q-.576-.061-1.137-.169a14.962,14.962,0,0,1-4.694-1.716,150.731,150.731,0,0,1-7.1-17.1,15.06,15.06,0,0,1,2.712-5.4,15.142,15.142,0,0,1-2.449-14.207l11.487,3.855-10.772-5.6a15.189,15.189,0,0,1,1.725-2.759,15.13,15.13,0,1,1,24.988-16.93l-11.1,8.164,12.042-6.245a15.148,15.148,0,0,1-.29,11.987l-8.98-.067,8.3,1.363a15.192,15.192,0,0,1-1.178,1.731,15.062,15.062,0,0,1,3.253,9.344Z" transform="translate(-109.367 -293.239)" fill="#2840f1"/>
          <path id="Path_851" data-name="Path 851" d="M139.677,476.846a15.133,15.133,0,0,1-12.207,14.846c-.366.074-.735.131-1.109.176a15.286,15.286,0,0,1-3.47.018q-.576-.061-1.137-.169A14.959,14.959,0,0,1,117.061,490a150.728,150.728,0,0,1-7.115-17.109,15.061,15.061,0,0,1,2.712-5.4,15.068,15.068,0,0,1-3.239-9.362c0-1.7,29.047,6.78,27.018,9.354A15.058,15.058,0,0,1,139.677,476.846Z" transform="translate(-109.409 -424.299)" opacity="0.1"/>
        </g>
        <circle id="Ellipse_96" data-name="Ellipse 96" cx="7.296" cy="7.296" r="7.296" transform="translate(84.86 30.619)" fill="#3f3d56"/>
        <path id="Path_858" data-name="Path 858" d="M557.726,530.672c.753,5.284-.165,10.672-1.6,15.813a11.737,11.737,0,0,1-1.055,2.782,29.677,29.677,0,0,1-1.784,2.406,20.9,20.9,0,0,0-2.615,5.641,159.114,159.114,0,0,0-4.657,16.6,1.136,1.136,0,0,0,0,.708c.177.408.716.461,1.159.459l5.727-.031c.2-.392-.173-.816-.408-1.192-.816-1.269-.033-2.919.688-4.247a45.664,45.664,0,0,0,4.037-10.2,27.662,27.662,0,0,1,1.347-4.435,44.535,44.535,0,0,1,2.955-4.782,40.065,40.065,0,0,0,2.794-5.9,38.251,38.251,0,0,0,2.765-8.664,34.608,34.608,0,0,0-.061-8.533.539.539,0,0,0-.624-.612l-7.684-.4c-1.584-.082-1.959-.429-1.719,1.127C557.163,528.366,557.559,529.5,557.726,530.672Z" transform="translate(-469.803 -435.997)" fill="#3f3d56"/>
        <path id="Path_859" data-name="Path 859" d="M557.726,530.672c.753,5.284-.165,10.672-1.6,15.813a11.737,11.737,0,0,1-1.055,2.782,29.677,29.677,0,0,1-1.784,2.406,20.9,20.9,0,0,0-2.615,5.641,159.114,159.114,0,0,0-4.657,16.6,1.136,1.136,0,0,0,0,.708c.177.408.716.461,1.159.459l5.727-.031c.2-.392-.173-.816-.408-1.192-.816-1.269-.033-2.919.688-4.247a45.664,45.664,0,0,0,4.037-10.2,27.662,27.662,0,0,1,1.347-4.435,44.535,44.535,0,0,1,2.955-4.782,40.065,40.065,0,0,0,2.794-5.9,38.251,38.251,0,0,0,2.765-8.664,34.608,34.608,0,0,0-.061-8.533.539.539,0,0,0-.624-.612l-7.684-.4c-1.584-.082-1.959-.429-1.719,1.127C557.163,528.366,557.559,529.5,557.726,530.672Z" transform="translate(-469.803 -435.997)" fill="#5c63ab" opacity="0.798"/>
        <path id="Path_860" data-name="Path 860" d="M600.168,483.767c-1.561,2.245-3.2,4.829-2.68,7.517.394,2.041,1.949,3.623,3.417,5.1,5.866,5.89,11.634,12.434,13.63,20.506.514,2.086.763,4.227,1.206,6.327a69.872,69.872,0,0,0,3.674,11.093l3.829,9.664a5.788,5.788,0,0,0,5.531-3.674,2.423,2.423,0,0,1-1.451-.933c-1.633-2.259-1.967-5.166-2.386-7.921-.463-3.045-1.082-6.066-1.7-9.084l-2.743-13.356c-.316-1.541-.633-3.084-1.045-4.6-1.6-5.882-4.621-11.429-5.088-17.512a4.112,4.112,0,0,0-.719-2.539,3.731,3.731,0,0,0-2.627-.872C607.191,483.238,603.893,482.865,600.168,483.767Z" transform="translate(-510.735 -401.938)" fill="#5c63ab"/>
        <path id="Path_861" data-name="Path 861" d="M542.307,755.96a6.1,6.1,0,0,0-1.269-.163,2.637,2.637,0,0,0-2.074,1.133,5.153,5.153,0,0,0-.557,1.225l-.553,1.588a1.766,1.766,0,0,0-.08,1.429,1.514,1.514,0,0,0,.743.573,13.8,13.8,0,0,0,4.306.772c1.417.139,2.821.388,4.219.649.482.092.961.184,1.449.233a17.264,17.264,0,0,0,3.278-.1l1.125-.108a4.047,4.047,0,0,0,1.106-.2,1.394,1.394,0,0,0,.816-.733,1.324,1.324,0,0,0-1.047-1.645c-.3-.057-.612-.031-.9-.069a4.263,4.263,0,0,1-.988-.3,19.7,19.7,0,0,1-4.157-2.027c-.351-.247-.719-.592-.68-1.021a2.077,2.077,0,0,1,.182-.529,1.93,1.93,0,0,0,.016-1.365c-.069-.188-.2-.386-.394-.408-.539-.065-.474.72-.553,1.021-.108.408-.3.445-.688.408C544.5,756.224,543.4,756.169,542.307,755.96Z" transform="translate(-463.187 -618.182)" fill="#f2f2f2"/>
        <path id="Path_862" data-name="Path 862" d="M718.255,758.637a3.6,3.6,0,0,0,.78,2.194,1.707,1.707,0,0,0,.555.447,2.229,2.229,0,0,0,1.021.161,8.173,8.173,0,0,0,2.835-.574,8.113,8.113,0,0,1,.98-.369,11.007,11.007,0,0,1,1.274-.184c1.688-.243,3.17-1.239,4.8-1.743a10.092,10.092,0,0,0,1.429-.469,6.546,6.546,0,0,0,1.68-1.312,3.014,3.014,0,0,0,1.1-2.78.527.527,0,0,0-.049-.288.428.428,0,0,0-.184-.145,2.664,2.664,0,0,0-1.633-.027,29.014,29.014,0,0,1-6.029.222.876.876,0,0,1-.927-.529l-.765-1.225c-.218-.351-.565-.753-.961-.633a.783.783,0,0,0-.433.816,4.357,4.357,0,0,1,.051.988,1.349,1.349,0,0,1-.653.849,4.169,4.169,0,0,1-1.021.392,7.837,7.837,0,0,0-3.308,1.508C718.157,756.526,718.216,757.843,718.255,758.637Z" transform="translate(-606.914 -615.375)" fill="#f2f2f2"/>
        <path id="Path_863" data-name="Path 863" d="M685.712,355.654a4.73,4.73,0,0,0,1.114-1.212,4.943,4.943,0,0,0,.476-1.676l.32-2.025a6.1,6.1,0,0,1,1.131-3.149,2.1,2.1,0,0,1,2.986-.314,2.62,2.62,0,0,1,.543,1.355,9.866,9.866,0,0,1-2.412,8.164c-.916,1-2.041,1.8-3.01,2.751-.845.816-1.578,1.753-2.357,2.641a32.541,32.541,0,0,1-6.423,5.613,28.832,28.832,0,0,0,0-4.655c-.165-1.09-.612-1.678.443-2.39A80.992,80.992,0,0,0,685.712,355.654Z" transform="translate(-574.767 -293.365)" fill="#fbbebe"/>
        <path id="Path_864" data-name="Path 864" d="M609.989,304.633a3.733,3.733,0,0,1-1.429,2.823q3.815,1.335,7.525,2.943a2.607,2.607,0,0,1-.645-1.825,9.21,9.21,0,0,1,1.408-4.919,1.194,1.194,0,0,0,.231-.649c-.029-.482-.6-.7-1.069-.816a26.294,26.294,0,0,0-4.882-.708c-.7-.022-1.539-.245-1.38.651A9.857,9.857,0,0,1,609.989,304.633Z" transform="translate(-519.625 -257.281)" fill="#fbbebe"/>
        <circle id="Ellipse_97" data-name="Ellipse 97" cx="5.966" cy="5.966" r="5.966" transform="translate(89.317 36.003)" fill="#fbbebe"/>
        <path id="Path_865" data-name="Path 865" d="M611.794,332.606a7.217,7.217,0,0,0-.757-1.27,26.411,26.411,0,0,0-3.58-4.39,22.29,22.29,0,0,0-3.4-2.5,7.716,7.716,0,0,0-2.127-1.02,8.321,8.321,0,0,0-1.365-.186l-1.549-.127a1.267,1.267,0,0,0-.408.012.88.88,0,0,0-.523,1.051,2.587,2.587,0,0,0,.69,1.086c.069,3.161-1.337,6.28-1.527,9.438-.333,5.521,3.037,10.656,3.306,16.181a1.745,1.745,0,0,1-.078.741c-.045.114-.112.218-.163.331a3.229,3.229,0,0,0-.182,1.123,5.7,5.7,0,0,1-1.68,3.6,2.5,2.5,0,0,0,.947.722,17.057,17.057,0,0,0,2.121.506,16.46,16.46,0,0,0,5.529.945,4.879,4.879,0,0,0,.427-1.606c.265-.165.572.188.612.5s-.018.672.2.9a.84.84,0,0,0,.776.155,34.294,34.294,0,0,0,3.368-.79,6.282,6.282,0,0,1,3.415-.012.914.914,0,0,0-.053-1,4.467,4.467,0,0,1-.537-.916,2.054,2.054,0,0,1-.065-.6c0-1.745.359-3.508.018-5.221-.1-.5-.259-.992-.361-1.5a12.9,12.9,0,0,1-.147-2.984c.027-1-.094-2.078-.114-3.09a9.835,9.835,0,0,0-.082-1.251c-.069-.435-.2-.859-.241-1.3-.11-1.114.339-2.221.271-3.339C614.429,335.094,612.455,334.171,611.794,332.606Z" transform="translate(-510.604 -274.524)" fill="#ff4133"/>
        <path id="Path_866" data-name="Path 866" d="M571.228,365.527a65.691,65.691,0,0,0-2.857,11.936l-1.633,9.482a45.88,45.88,0,0,0-.91,8.094,8.665,8.665,0,0,1-.151,2.278,12.3,12.3,0,0,1-1.4,2.653,8.731,8.731,0,0,0-.939,5.9c.167.847.625,1.808,1.484,1.906a2.056,2.056,0,0,0,1.729-1.063,13.7,13.7,0,0,0,1.837-4.513,102.077,102.077,0,0,0,2.831-15.734,15.3,15.3,0,0,1,.284-2,14.185,14.185,0,0,1,.69-1.992q.937-2.323,1.876-4.645a74.217,74.217,0,0,1,4.876-10.482c-1.959-.563-4-1.225-5.958-1.782A5.383,5.383,0,0,0,571.228,365.527Z" transform="translate(-483.503 -308.245)" fill="#fbbebe"/>
        <path id="Path_867" data-name="Path 867" d="M600.061,362.331a22.419,22.419,0,0,0-4.19-.239.9.9,0,0,1-.563-.147c-.284-.243-.163-.7-.021-1.043l.678-1.633a2.377,2.377,0,0,1,.543-.9,2.3,2.3,0,0,1,1.288-.437,11.669,11.669,0,0,1,4.462.174,5.336,5.336,0,0,1,3.445,2.67,1.816,1.816,0,0,1,.037,1.786c-.531.761-1.72,1.612-2.608,1.2A13.6,13.6,0,0,0,600.061,362.331Z" transform="translate(-508.94 -302.137)" fill="#ff4133"/>
        <path id="Path_868" data-name="Path 868" d="M581.811,229.029a6.025,6.025,0,0,0-3.327.959,7.3,7.3,0,0,0-7.164-1.678,4.17,4.17,0,1,0-4.817,4.825,7.3,7.3,0,0,0,14.005,4.1,6.532,6.532,0,0,0,1.308.133c2.878,0,5.213-1.867,5.213-4.17S584.685,229.029,581.811,229.029Z" transform="translate(-483.397 -196.327)" fill="#3f3d56"/>
        <path id="Path_869" data-name="Path 869" d="M651.263,269.557a6.345,6.345,0,0,1-1.308-.133,7.262,7.262,0,0,1-.955,2.1,6.552,6.552,0,0,0,1.225.118c2.69,0,4.9-1.633,5.182-3.723A5.75,5.75,0,0,1,651.263,269.557Z" transform="translate(-551.811 -230.601)" opacity="0.1"/>
        <path id="Path_870" data-name="Path 870" d="M574.518,245.719a7.307,7.307,0,0,1-6.976-9.446,4.17,4.17,0,0,1-3.447-4.106,4.1,4.1,0,0,1,.067-.747,4.17,4.17,0,0,0,2.339,6.939,7.3,7.3,0,1,0,13.938,4.323A7.282,7.282,0,0,1,574.518,245.719Z" transform="translate(-483.405 -201.55)" opacity="0.1"/>
        <rect id="Rectangle_192" data-name="Rectangle 192" width="0.137" height="1.131" rx="0.068" transform="matrix(0.814, 0.581, -0.581, 0.814, 117.658, 56.335)" fill="#3a3768"/>
        <rect id="Rectangle_193" data-name="Rectangle 193" width="0.078" height="0.371" rx="0.039" transform="matrix(0.814, 0.581, -0.581, 0.814, 114.463, 52.966)" fill="#3a3768"/>
        <rect id="Rectangle_194" data-name="Rectangle 194" width="0.086" height="0.647" rx="0.043" transform="matrix(0.814, 0.581, -0.581, 0.814, 114.062, 53.521)" fill="#3a3768"/>
        <rect id="Rectangle_195" data-name="Rectangle 195" width="0.082" height="0.653" rx="0.041" transform="matrix(0.814, 0.581, -0.581, 0.814, 113.558, 54.234)" fill="#3a3768"/>
        <rect id="Rectangle_196" data-name="Rectangle 196" width="4.588" height="9.325" rx="2.294" transform="matrix(0.814, 0.581, -0.581, 0.814, 115.402, 52.372)" fill="#3a3768"/>
        <rect id="Rectangle_197" data-name="Rectangle 197" width="4.588" height="9.325" rx="2.294" transform="matrix(0.814, 0.581, -0.581, 0.814, 115.402, 52.372)" opacity="0.1"/>
        <rect id="Rectangle_198" data-name="Rectangle 198" width="4.588" height="9.325" rx="2.294" transform="matrix(0.814, 0.581, -0.581, 0.814, 115.213, 51.991)" fill="#3a3768"/>
        <path id="Path_871" data-name="Path 871" d="M721.23,344.275l-.427-.306-.037.051a.3.3,0,0,1-.408.071L719,343.118a.3.3,0,0,1-.069-.418l.037-.051-.408-.286a.363.363,0,0,0-.508.084l-4.711,6.6a.365.365,0,0,0,.084.508l2.682,1.912a.364.364,0,0,0,.508-.086l4.71-6.6a.363.363,0,0,0-.09-.508Z" transform="translate(-602.962 -289.795)" fill="#283fef"/>
        <rect id="Rectangle_199" data-name="Rectangle 199" width="0.641" height="0.131" rx="0.065" transform="matrix(0.814, 0.581, -0.581, 0.814, 116.557, 53.295)" fill="#e6e8ec"/>
        <circle id="Ellipse_98" data-name="Ellipse 98" cx="0.073" cy="0.073" r="0.073" transform="translate(117.097 53.751)" fill="#e6e8ec"/>
        <g transform="matrix(1, 0, 0, 1, 0, -6)" filter="url(#Path_874)">
          <path id="Path_874-2" data-name="Path 874" d="M693.674,85.07A13.675,13.675,0,0,0,680,98.744c0,7.552,14.328,35.411,14.328,35.411s13.021-27.855,13.021-35.409A13.675,13.675,0,0,0,693.672,85.07Zm0,22.794a7.164,7.164,0,1,1,7.164-7.164A7.164,7.164,0,0,1,693.674,107.864Z" transform="translate(-576.48 -79.07)" fill="#2840f1"/>
        </g>
        <path id="Path_875" data-name="Path 875" d="M874.6,586.243l-21.169-36.666a.674.674,0,0,0-1.169,0l-21.169,36.666a.674.674,0,0,0,.584,1.02h6.315a.678.678,0,0,1,.676.676v7.825a.676.676,0,0,0,.674.676h8.239a.676.676,0,0,0,.676-.676v-3.782a.673.673,0,0,1,.674-.674h7.833a.676.676,0,0,1,.676.674v3.782a.676.676,0,0,0,.676.676h8.237a.676.676,0,0,0,.675-.676v-7.833a.676.676,0,0,1,.676-.676h6.315a.675.675,0,0,0,.584-1.012ZM845.081,590.3a.673.673,0,0,1-.478.2h-2.966a.676.676,0,1,1,0-1.351h2.972a.676.676,0,0,1,.478,1.153Zm19.446,0a.673.673,0,0,1-.478.2h-2.964a.676.676,0,1,1,0-1.351h2.976a.676.676,0,0,1,.478,1.153Z" transform="translate(-805.644 -454.502)" fill="#2840f1" opacity="0.1"/>
        <path id="Path_856" data-name="Path 856" d="M358.085,725.778l3.906-2.3a9.414,9.414,0,0,0-2-2.39l-7.37,2.292,5.776-3.394a9.389,9.389,0,0,0-13.9,8.235c0,5.184,4.2,5.364,9.388,5.364s9.388-.18,9.388-5.364a9.345,9.345,0,0,0-.806-3.81Z" transform="translate(-323.458 -589.484)" fill="#c2ccd3"/>
        <path id="Path_857" data-name="Path 857" d="M359.055,754.279a7.3,7.3,0,0,0-1.384-1.086,6.444,6.444,0,0,0-2.28-1.112,17.087,17.087,0,0,0-2.245-.065,5.237,5.237,0,0,1-3.431-1.571,10.719,10.719,0,0,0-1.594-1.651,3.506,3.506,0,0,0-2.39-.439,5.944,5.944,0,0,0-.706.145,9.358,9.358,0,0,0-.555,3.186c0,5.184,4.2,5.364,9.388,5.364a19.742,19.742,0,0,0,6.486-.678l-.282-.527A7.43,7.43,0,0,0,359.055,754.279Z" transform="translate(-287.434 -612.946)" opacity="0.1"/>
      </g>
      <rect id="Rectangle_200" data-name="Rectangle 200" width="10.345" height="4.02" transform="translate(41.748 114.975)" fill="#fff"/>
      <g id="eat" transform="translate(113.734 9.982)">
        <g id="Group_56" data-name="Group 56" transform="translate(0 0)">
          <path id="Path_433" data-name="Path 433" d="M29.031,6.575V9.419a.2.2,0,1,1-.391,0l-.116-2.844h-.217l-.058,2.844a.2.2,0,1,1-.391,0L27.8,6.575h-.217l-.116,2.844a.2.2,0,1,1-.391,0V6.575h-.219L26.684,10.2a.579.579,0,0,0,.579.579h.3v6.752a.488.488,0,1,0,.976,0V10.783h.3a.579.579,0,0,0,.579-.579L29.25,6.575Z" transform="translate(-26.684 -6.575)" fill="#2840f1"/>
          <path id="Path_434" data-name="Path 434" d="M53.767,6.575h-.424A1.127,1.127,0,0,0,52.217,7.7v4.005a.7.7,0,0,0,.7.7h.575v5.128a.488.488,0,1,0,.976,0V7.276A.7.7,0,0,0,53.767,6.575Z" transform="translate(-47.646 -6.575)" fill="#2840f1"/>
        </g>
      </g>
    </g>
  </g>
</svg>
