<svg xmlns="http://www.w3.org/2000/svg" xmlns:xlink="http://www.w3.org/1999/xlink" width="400.179" height="304.014" viewBox="0 0 400.179 304.014">
  <defs>
    <filter id="Path_874" x="242.11" y="0" width="72.715" height="116.201" filterUnits="userSpaceOnUse">
      <feOffset dy="3" input="SourceAlpha"/>
      <feGaussianBlur stdDeviation="3" result="blur"/>
      <feFlood flood-opacity="0.161"/>
      <feComposite operator="in" in2="blur"/>
      <feComposite in="SourceGraphic"/>
    </filter>
  </defs>
  <g id="Group_83" data-name="Group 83" transform="translate(-281.407 -229.756)">
    <g id="Group_80" data-name="Group 80" transform="translate(48 -18.244)">
      <g id="undraw_directions_x53j_2_" data-name="undraw_directions_x53j (2)" transform="translate(233.407 254)">
        <path id="Path_837" data-name="Path 837" d="M918.232,623.271l-42.351-73.355a1.348,1.348,0,0,0-2.34,0l-42.351,73.355a1.347,1.347,0,0,0,1.168,2.042h12.633a1.356,1.356,0,0,1,1.352,1.352v15.655a1.352,1.352,0,0,0,1.348,1.352h16.484a1.352,1.352,0,0,0,1.352-1.352v-7.566a1.347,1.347,0,0,1,1.347-1.347h15.671a1.352,1.352,0,0,1,1.352,1.348v7.566a1.352,1.352,0,0,0,1.352,1.352h16.48a1.352,1.352,0,0,0,1.351-1.352V626.648a1.352,1.352,0,0,1,1.352-1.352h12.634a1.351,1.351,0,0,0,1.168-2.025Zm-59.059,8.117a1.347,1.347,0,0,1-.955.408h-5.933a1.352,1.352,0,1,1,0-2.7h5.945a1.352,1.352,0,0,1,.956,2.307Zm38.9,0a1.347,1.347,0,0,1-.956.408h-5.929a1.352,1.352,0,1,1,0-2.7h5.953a1.351,1.351,0,0,1,.955,2.307Z" transform="translate(-518.233 -359.709)" fill="#2840f1" opacity="0.1"/>
        <path id="Path_839" data-name="Path 839" d="M574.331,369.087H521.924V357.752a2.711,2.711,0,0,0-2.711-2.711H503.823V342.967a1.707,1.707,0,0,0-1.707-1.707H482.292a1.707,1.707,0,0,0-1.707,1.707v12.07H462.493a2.711,2.711,0,0,0-2.711,2.711v11.335H409.807a.551.551,0,0,0-.547.551V520.112a.551.551,0,0,0,.547.551H443.02a.551.551,0,0,0,.551-.551V499.868a.555.555,0,0,1,.551-.551h14.03a.555.555,0,0,1,.551.551v20.244a.551.551,0,0,0,.547.551h65.637a.555.555,0,0,0,.551-.551V499.868a.551.551,0,0,1,.547-.551h14.03a.551.551,0,0,1,.551.551v20.244a.555.555,0,0,0,.551.551h33.213a.555.555,0,0,0,.551-.551V369.638A.555.555,0,0,0,574.331,369.087Zm-136.705,123.2a.547.547,0,0,1-.547.547H416.565a.547.547,0,0,1-.551-.547v-6.995a.551.551,0,0,1,.551-.551h20.514a.551.551,0,0,1,.547.551Zm0-18.1a.547.547,0,0,1-.547.551H416.565a.547.547,0,0,1-.551-.551v-7a.547.547,0,0,1,.551-.551h20.514a.547.547,0,0,1,.547.551Zm0-18.1a.551.551,0,0,1-.547.551H416.565a.551.551,0,0,1-.551-.551v-7.007a.551.551,0,0,1,.551-.551h20.514a.551.551,0,0,1,.547.551Zm0-18.1a.547.547,0,0,1-.547.551H416.565a.547.547,0,0,1-.551-.551v-6.99a.547.547,0,0,1,.551-.551h20.514a.547.547,0,0,1,.547.551Zm0-18.1a.551.551,0,0,1-.547.551H416.565a.551.551,0,0,1-.551-.551v-7.007a.547.547,0,0,1,.551-.547h20.514a.547.547,0,0,1,.547.547Zm0-18.1a.547.547,0,0,1-.547.547H416.565a.547.547,0,0,1-.551-.547v-7.007a.551.551,0,0,1,.551-.551h20.514a.551.551,0,0,1,.547.551Zm0-18.1a.547.547,0,0,1-.547.551H416.565a.547.547,0,0,1-.551-.551v-6.99a.547.547,0,0,1,.551-.551h20.514a.547.547,0,0,1,.547.551Zm48.635,108.613a.547.547,0,0,1-.551.547H465.2a.551.551,0,0,1-.551-.547v-6.99a.555.555,0,0,1,.551-.551H485.71a.551.551,0,0,1,.551.551Zm0-18.1a.547.547,0,0,1-.551.551H465.2a.551.551,0,0,1-.551-.551v-7a.551.551,0,0,1,.551-.551H485.71a.547.547,0,0,1,.551.551Zm0-18.1a.551.551,0,0,1-.551.551H465.2a.555.555,0,0,1-.551-.551v-7a.555.555,0,0,1,.551-.551H485.71a.551.551,0,0,1,.551.551Zm0-18.1a.547.547,0,0,1-.551.551H465.2a.551.551,0,0,1-.551-.551v-6.986a.551.551,0,0,1,.551-.551H485.71a.547.547,0,0,1,.551.551Zm0-18.1a.551.551,0,0,1-.551.551H465.2a.555.555,0,0,1-.551-.551v-7a.551.551,0,0,1,.551-.547H485.71a.547.547,0,0,1,.551.547Zm0-18.1a.547.547,0,0,1-.551.547H465.2a.551.551,0,0,1-.551-.547v-7a.555.555,0,0,1,.551-.551H485.71a.551.551,0,0,1,.551.551Zm0-18.1a.547.547,0,0,1-.551.551H465.2a.551.551,0,0,1-.551-.551v-6.986a.551.551,0,0,1,.551-.551H485.71a.547.547,0,0,1,.551.551Zm33.233,108.613a.547.547,0,0,1-.551.547H498.429a.551.551,0,0,1-.551-.547v-6.986a.555.555,0,0,1,.551-.551h20.514a.551.551,0,0,1,.551.551Zm0-18.1a.547.547,0,0,1-.551.551H498.429a.551.551,0,0,1-.551-.551v-6.994a.551.551,0,0,1,.551-.551h20.514a.547.547,0,0,1,.551.551Zm0-18.1a.551.551,0,0,1-.551.551H498.429a.555.555,0,0,1-.551-.551v-7a.555.555,0,0,1,.551-.551h20.514a.551.551,0,0,1,.551.551Zm0-18.1a.547.547,0,0,1-.551.551H498.429a.551.551,0,0,1-.551-.551v-6.982a.551.551,0,0,1,.551-.551h20.514a.547.547,0,0,1,.551.551Zm0-18.1a.551.551,0,0,1-.551.551H498.429a.555.555,0,0,1-.551-.551v-7a.551.551,0,0,1,.551-.547h20.514a.547.547,0,0,1,.551.547Zm0-18.1a.547.547,0,0,1-.551.547H498.429a.551.551,0,0,1-.551-.547v-7a.555.555,0,0,1,.551-.551h20.514a.551.551,0,0,1,.551.551Zm0-18.1a.547.547,0,0,1-.551.551H498.429a.551.551,0,0,1-.551-.551v-6.982a.551.551,0,0,1,.551-.551h20.514a.547.547,0,0,1,.551.551Zm48.635,108.613a.551.551,0,0,1-.551.547H547.064a.547.547,0,0,1-.551-.547v-6.982a.551.551,0,0,1,.551-.551h20.518a.555.555,0,0,1,.551.551Zm0-18.1a.551.551,0,0,1-.551.551H547.064a.547.547,0,0,1-.551-.551v-6.99a.547.547,0,0,1,.551-.551h20.518a.551.551,0,0,1,.551.551Zm0-18.1a.555.555,0,0,1-.551.551H547.064a.551.551,0,0,1-.551-.551v-6.994a.551.551,0,0,1,.551-.551h20.518a.555.555,0,0,1,.551.551Zm0-18.1a.551.551,0,0,1-.551.551H547.064a.547.547,0,0,1-.551-.551v-6.978a.547.547,0,0,1,.551-.551h20.518a.551.551,0,0,1,.551.551Zm0-18.1a.555.555,0,0,1-.551.551H547.064a.551.551,0,0,1-.551-.551v-6.994a.547.547,0,0,1,.551-.547h20.518a.551.551,0,0,1,.551.547Zm0-18.1a.551.551,0,0,1-.547.56H547.064a.547.547,0,0,1-.551-.547v-7.007a.551.551,0,0,1,.551-.551h20.518a.555.555,0,0,1,.551.551Zm0-18.1a.551.551,0,0,1-.551.551H547.064a.547.547,0,0,1-.551-.551v-6.978a.547.547,0,0,1,.551-.551h20.518a.551.551,0,0,1,.551.551Z" transform="translate(-268.699 -236.653)" fill="#2840f1" opacity="0.1"/>
        <path id="Path_840" data-name="Path 840" d="M396.672,286.715a11.8,11.8,0,0,0-6.848.743,10.09,10.09,0,0,1-8.26-.02,11.523,11.523,0,0,0-9.669.192,6.023,6.023,0,0,1-2.785.694c-3.92,0-7.182-3.948-7.86-9.159a7.516,7.516,0,0,0,1.96-2.111c2.3-3.7,5.859-6.084,9.857-6.084s7.513,2.352,9.8,6.015a7.558,7.558,0,0,0,6.513,3.577h.1C392.633,280.561,395.337,283.064,396.672,286.715Z" transform="translate(-240.292 -195.063)" fill="#2840f1" opacity="0.1"/>
        <path id="Path_841" data-name="Path 841" d="M408.589,249.28l-6.337,4.018L406.1,246.3a6.264,6.264,0,0,0-3.834-1.368h-.1a7.414,7.414,0,0,1-1.315-.1l-2.14,1.364.923-1.674a7.636,7.636,0,0,1-3.757-2.858l-3.846,2.45,2.421-4.426a11.252,11.252,0,0,0-8.611-4.353c-4,0-7.558,2.376-9.857,6.08a7.37,7.37,0,0,1-6.533,3.516h-.216c-4.414,0-7.991,5-7.991,11.176s3.577,11.176,7.991,11.176a5.965,5.965,0,0,0,2.785-.7,11.523,11.523,0,0,1,9.669-.188,10.09,10.09,0,0,0,8.224,0,11.519,11.519,0,0,1,9.587.184,5.982,5.982,0,0,0,2.752.682c4.414,0,7.991-5.006,7.991-11.176A14.193,14.193,0,0,0,408.589,249.28Z" transform="translate(-240.286 -173.982)" fill="#2840f1" opacity="0.1"/>
        <path id="Path_842" data-name="Path 842" d="M873.109,476.048a8.293,8.293,0,0,0-4.794.519,7.052,7.052,0,0,1-5.757,0,8.068,8.068,0,0,0-6.77.135,4.2,4.2,0,0,1-1.948.486c-2.744,0-5.026-2.764-5.5-6.411a5.337,5.337,0,0,0,1.372-1.478,7.714,7.714,0,0,1,13.769-.049,5.284,5.284,0,0,0,4.557,2.5h.074C870.275,471.745,872.165,473.5,873.109,476.048Z" transform="translate(-528.494 -309.891)" fill="#2840f1" opacity="0.1"/>
        <path id="Path_843" data-name="Path 843" d="M881.423,449.847l-4.434,2.813,2.691-4.9A4.385,4.385,0,0,0,877,446.8h-.069a5.258,5.258,0,0,1-.919-.069l-1.507.951.645-1.168a5.386,5.386,0,0,1-2.63-2l-2.7,1.7,1.7-3.091a7.839,7.839,0,0,0-6.027-3.05,8.246,8.246,0,0,0-6.9,4.259,5.153,5.153,0,0,1-4.561,2.45h-.135c-3.087,0-5.594,3.5-5.594,7.819s2.507,7.823,5.594,7.823a4.2,4.2,0,0,0,1.948-.486,8.052,8.052,0,0,1,6.77-.131,7.092,7.092,0,0,0,5.757,0,8.065,8.065,0,0,1,6.709.131,4.226,4.226,0,0,0,1.927.474c3.091,0,5.594-3.5,5.594-7.823a9.943,9.943,0,0,0-1.176-4.749Z" transform="translate(-528.47 -295.122)" fill="#2840f1" opacity="0.1"/>
        <path id="Path_844" data-name="Path 844" d="M315.62,412.025a8.3,8.3,0,0,1,4.794.519,7.04,7.04,0,0,0,5.753,0,8.068,8.068,0,0,1,6.77.135,4.21,4.21,0,0,0,1.948.486c2.744,0,5.03-2.764,5.5-6.411a5.279,5.279,0,0,1-1.372-1.478,7.714,7.714,0,0,0-13.777-.065,5.308,5.308,0,0,1-4.565,2.511h-.069C318.433,407.721,316.539,409.473,315.62,412.025Z" transform="translate(-213.294 -271.999)" fill="#2840f1" opacity="0.1"/>
        <path id="Path_845" data-name="Path 845" d="M293.442,385.841l4.434,2.8-2.695-4.9a4.394,4.394,0,0,1,2.683-.955h.073a5.305,5.305,0,0,0,.919-.069l1.5.951-.645-1.168a5.393,5.393,0,0,0,2.634-2l2.691,1.707-1.7-3.091a7.879,7.879,0,0,1,6.031-3.05,8.246,8.246,0,0,1,6.9,4.259,5.149,5.149,0,0,0,4.561,2.45h.147c3.091,0,5.594,3.5,5.594,7.819s-2.5,7.823-5.594,7.823a4.222,4.222,0,0,1-1.948-.486,8.052,8.052,0,0,0-6.77-.131,7.084,7.084,0,0,1-5.753,0,8.072,8.072,0,0,0-6.713.131,4.214,4.214,0,0,1-1.927.474c-3.087,0-5.594-3.5-5.594-7.823A9.942,9.942,0,0,1,293.442,385.841Z" transform="translate(-199.478 -257.249)" fill="#2840f1" opacity="0.1"/>
        <path id="Path_846" data-name="Path 846" d="M295.68,784.781c5.529,3.511,13.495-.041,19.06,3.418,1.437.89,2.6,2.2,4.083,3.009a13.194,13.194,0,0,0,5.912,1.225c16.994.657,34.274-4.083,50.844-.253,4.634,1.07,9.167,2.809,13.916,3.062,8.2.445,16.063-3.556,24.275-3.777,12.454-.335,24.691,8,36.708,4.712,3.953-1.082,7.578-3.389,11.658-3.777,4.545-.408,8.914,1.572,13.332,2.728,15.667,4.083,31.984-2.532,48.182-3.026,10.563-.323,21.024,1.98,31.58,2.511a188.6,188.6,0,0,0,22.523-.674c2.858-.2,5.851-.445,8.244-2.013s3.863-4.937,2.385-7.387Z" transform="translate(-201.496 -498.932)" fill="#3f3d56"/>
        <path id="Path_847" data-name="Path 847" d="M295.68,784.781c5.529,3.511,13.495-.041,19.06,3.418,1.437.89,2.6,2.2,4.083,3.009a13.194,13.194,0,0,0,5.912,1.225c16.994.657,34.274-4.083,50.844-.253,4.634,1.07,9.167,2.809,13.916,3.062,8.2.445,16.063-3.556,24.275-3.777,12.454-.335,24.691,8,36.708,4.712,3.953-1.082,7.578-3.389,11.658-3.777,4.545-.408,8.914,1.572,13.332,2.728,15.667,4.083,31.984-2.532,48.182-3.026,10.563-.323,21.024,1.98,31.58,2.511a188.6,188.6,0,0,0,22.523-.674c2.858-.2,5.851-.445,8.244-2.013s3.863-4.937,2.385-7.387Z" transform="translate(-201.496 -498.932)" opacity="0.1"/>
        <path id="Path_848" data-name="Path 848" d="M279.348,779.526c-.183.093-8.217,9.29,17.376,6.36,5.634.778,14.325-1.4,17.646.245,1.715.847,8.307-1.014,10.081-.245a19.212,19.212,0,0,0,7.056,1.166c20.28.626,40.9-3.886,60.675-.241,5.531,1.018,10.939,2.673,16.606,2.914,9.789.424,19.169-3.384,28.968-3.594,14.862-.319,29.465,7.612,43.806,4.484,4.717-1.03,9.044-3.225,13.911-3.594,5.423-.389,10.637,1.5,15.909,2.6,18.7,3.886,38.168-2.409,57.5-2.879,12.606-.307,25.09,1.885,37.686,2.39,8.956.357,17.931-.144,26.878-.641,3.411-.19,6.983-.424,9.838-1.916s4.61-4.7,2.846-7.029l-352.748-.014Z" transform="translate(-259.358 -495.375)" fill="#3f3d56"/>
        <g id="Group_77" data-name="Group 77" transform="translate(0 118.021)" opacity="0.1">
          <path id="Path_849" data-name="Path 849" d="M181.037,630.269a9.984,9.984,0,0,1-1.319,5.055,10.347,10.347,0,0,1,0,10.11,9.288,9.288,0,0,1,1,2.45c-4.457-5.875,3.437,6.364-.29,0H169c.09-1.518-.036-21.369.723-22.686a9.984,9.984,0,0,1-1.319-5.055,10.4,10.4,0,0,1,.6-3.516,8.733,8.733,0,0,1,.723-1.539,5.494,5.494,0,0,1,10,0,9.1,9.1,0,0,1,.706,1.49,10.464,10.464,0,0,1,.612,3.565,9.983,9.983,0,0,1-1.319,5.055A9.983,9.983,0,0,1,181.037,630.269Z" transform="translate(-144.295 -481.767)" fill="#3f3d56"/>
          <ellipse id="Ellipse_94" data-name="Ellipse 94" cx="6.317" cy="8.273" rx="6.317" ry="8.273" transform="translate(24.105 120.014)" fill="#3f3d56"/>
          <ellipse id="Ellipse_95" data-name="Ellipse 95" cx="6.317" cy="8.273" rx="6.317" ry="8.273" transform="translate(24.105 109.904)" fill="#3f3d56"/>
          <path id="Path_850" data-name="Path 850" d="M169.922,360.923a30.126,30.126,0,0,1-6.48,18.713,30.269,30.269,0,0,1-17.966,48.414c-.727.147-1.466.261-2.213.351a30.577,30.577,0,0,1-6.941.037q-1.151-.123-2.274-.339a29.93,29.93,0,0,1-9.391-3.434,301.557,301.557,0,0,1-14.214-34.213,30.13,30.13,0,0,1,5.427-10.8,30.293,30.293,0,0,1-4.9-28.423l22.98,7.713-21.551-11.2a30.391,30.391,0,0,1,3.45-5.52,30.269,30.269,0,1,1,49.991-33.87l-22.217,16.333,24.091-12.495a30.306,30.306,0,0,1-.58,23.981l-17.966-.135,16.6,2.728a30.385,30.385,0,0,1-2.356,3.463,30.134,30.134,0,0,1,6.509,18.693Z" transform="translate(-109.367 -293.239)" fill="#2840f1"/>
          <path id="Path_851" data-name="Path 851" d="M169.953,495.8a30.275,30.275,0,0,1-24.421,29.7c-.732.148-1.471.262-2.218.352a30.584,30.584,0,0,1-6.941.037q-1.151-.122-2.274-.339a29.927,29.927,0,0,1-9.391-3.434,301.547,301.547,0,0,1-14.234-34.229,30.13,30.13,0,0,1,5.427-10.8,30.146,30.146,0,0,1-6.48-18.73c0-3.4,58.112,13.564,54.053,18.713A30.126,30.126,0,0,1,169.953,495.8Z" transform="translate(-109.398 -390.67)" opacity="0.1"/>
        </g>
        <circle id="Ellipse_96" data-name="Ellipse 96" cx="14.597" cy="14.597" r="14.597" transform="translate(213.785 61.256)" fill="#3f3d56"/>
        <path id="Path_858" data-name="Path 858" d="M569.5,535.359C571,545.931,569.167,556.71,566.3,567a23.492,23.492,0,0,1-2.111,5.565,59.348,59.348,0,0,1-3.569,4.814c-2.45,3.373-3.887,7.35-5.231,11.286a318.319,318.319,0,0,0-9.318,33.2,2.275,2.275,0,0,0,0,1.417c.355.817,1.433.923,2.319.919l11.457-.061c.408-.784-.347-1.633-.817-2.385-1.633-2.54-.065-5.839,1.376-8.5a91.353,91.353,0,0,0,8.077-20.416,55.359,55.359,0,0,1,2.695-8.873c1.539-3.422,3.952-6.366,5.912-9.567a80.142,80.142,0,0,0,5.59-11.813c2.3-5.627,4.626-11.323,5.533-17.333.853-5.643.433-11.392-.122-17.072a1.078,1.078,0,0,0-1.249-1.225l-15.373-.792c-3.169-.163-3.92-.857-3.438,2.254C568.37,530.745,569.162,533.008,569.5,535.359Z" transform="translate(-349.583 -345.952)" fill="#3f3d56"/>
        <path id="Path_859" data-name="Path 859" d="M569.5,535.359C571,545.931,569.167,556.71,566.3,567a23.492,23.492,0,0,1-2.111,5.565,59.348,59.348,0,0,1-3.569,4.814c-2.45,3.373-3.887,7.35-5.231,11.286a318.319,318.319,0,0,0-9.318,33.2,2.275,2.275,0,0,0,0,1.417c.355.817,1.433.923,2.319.919l11.457-.061c.408-.784-.347-1.633-.817-2.385-1.633-2.54-.065-5.839,1.376-8.5a91.353,91.353,0,0,0,8.077-20.416,55.359,55.359,0,0,1,2.695-8.873c1.539-3.422,3.952-6.366,5.912-9.567a80.142,80.142,0,0,0,5.59-11.813c2.3-5.627,4.626-11.323,5.533-17.333.853-5.643.433-11.392-.122-17.072a1.078,1.078,0,0,0-1.249-1.225l-15.373-.792c-3.169-.163-3.92-.857-3.438,2.254C568.37,530.745,569.162,533.008,569.5,535.359Z" transform="translate(-349.583 -345.952)" fill="#5c63ab" opacity="0.798"/>
        <path id="Path_860" data-name="Path 860" d="M602.948,484.34c-3.124,4.492-6.4,9.661-5.361,15.038.788,4.083,3.9,7.248,6.835,10.208,11.735,11.784,23.274,24.875,27.268,41.024,1.029,4.173,1.527,8.456,2.413,12.658,1.609,7.636,4.492,14.936,7.35,22.192l7.66,19.334a11.58,11.58,0,0,0,11.066-7.35,4.847,4.847,0,0,1-2.9-1.866c-3.267-4.52-3.936-10.335-4.773-15.847-.927-6.092-2.164-12.135-3.405-18.174l-5.488-26.72c-.633-3.083-1.266-6.17-2.091-9.208-3.193-11.768-9.244-22.866-10.179-35.034-.139-1.788-.225-3.752-1.437-5.079-1.274-1.4-3.365-1.633-5.255-1.744C617,483.282,610.4,482.535,602.948,484.34Z" transform="translate(-380.012 -320.632)" fill="#5c63ab"/>
        <path id="Path_861" data-name="Path 861" d="M546.967,757.03a12.185,12.185,0,0,0-2.54-.327,5.275,5.275,0,0,0-4.149,2.266,10.31,10.31,0,0,0-1.115,2.45l-1.107,3.177a3.533,3.533,0,0,0-.159,2.858,3.03,3.03,0,0,0,1.486,1.147c2.679,1.192,5.716,1.258,8.615,1.543,2.834.278,5.643.776,8.44,1.3.964.184,1.923.367,2.9.465a34.544,34.544,0,0,0,6.558-.2l2.25-.216a8.1,8.1,0,0,0,2.213-.408,2.789,2.789,0,0,0,1.633-1.466c.555-1.376-.637-3.005-2.095-3.291-.592-.114-1.225-.061-1.8-.139a8.525,8.525,0,0,1-1.976-.592,39.4,39.4,0,0,1-8.317-4.055c-.7-.494-1.437-1.184-1.36-2.042a4.161,4.161,0,0,1,.363-1.058,3.862,3.862,0,0,0,.033-2.732c-.139-.376-.408-.772-.788-.817-1.078-.131-.947,1.441-1.107,2.042-.216.817-.608.89-1.376.817C551.361,757.557,549.156,757.447,546.967,757.03Z" transform="translate(-344.664 -481.39)" fill="#f2f2f2"/>
        <path id="Path_862" data-name="Path 862" d="M718.277,765.914a7.207,7.207,0,0,0,1.56,4.389,3.415,3.415,0,0,0,1.111.894,4.459,4.459,0,0,0,2.042.323,16.354,16.354,0,0,0,5.672-1.147,16.216,16.216,0,0,1,1.96-.739,22.01,22.01,0,0,1,2.548-.367c3.377-.486,6.341-2.479,9.6-3.487a20.193,20.193,0,0,0,2.858-.939,13.1,13.1,0,0,0,3.36-2.625,6.03,6.03,0,0,0,2.2-5.561,1.057,1.057,0,0,0-.1-.576.857.857,0,0,0-.368-.29,5.33,5.33,0,0,0-3.267-.053,58.055,58.055,0,0,1-12.062.445,1.752,1.752,0,0,1-1.854-1.058l-1.531-2.45c-.437-.7-1.131-1.507-1.923-1.266a1.567,1.567,0,0,0-.866,1.633,8.725,8.725,0,0,1,.1,1.976,2.7,2.7,0,0,1-1.307,1.7,8.347,8.347,0,0,1-2.042.784c-2.254.637-4.875,1.36-6.619,3.018C718.081,761.692,718.2,764.326,718.277,765.914Z" transform="translate(-451.512 -479.302)" fill="#f2f2f2"/>
        <path id="Path_863" data-name="Path 863" d="M693.586,364.534a9.461,9.461,0,0,0,2.229-2.425,9.889,9.889,0,0,0,.951-3.352l.641-4.051c.355-2.233.772-4.6,2.262-6.3s4.459-2.311,5.974-.629a5.24,5.24,0,0,1,1.086,2.711A19.738,19.738,0,0,1,701.9,366.82c-1.833,2.009-4.083,3.605-6.023,5.5-1.69,1.633-3.156,3.507-4.716,5.284a65.1,65.1,0,0,1-12.85,11.229c.057-3.038.445-6.3,0-9.314-.331-2.18-1.225-3.356.886-4.781C684.1,371.41,689.046,368.4,693.586,364.534Z" transform="translate(-427.614 -239.918)" fill="#fbbebe"/>
        <path id="Path_864" data-name="Path 864" d="M611.418,307.827a7.47,7.47,0,0,1-2.858,5.647q7.631,2.67,15.055,5.888a5.216,5.216,0,0,1-1.29-3.65,18.427,18.427,0,0,1,2.817-9.84,2.389,2.389,0,0,0,.461-1.3c-.057-.964-1.2-1.409-2.14-1.633a52.615,52.615,0,0,0-9.767-1.417c-1.409-.045-3.079-.49-2.76,1.3A19.714,19.714,0,0,1,611.418,307.827Z" transform="translate(-386.621 -213.093)" fill="#fbbebe"/>
        <circle id="Ellipse_97" data-name="Ellipse 97" cx="11.935" cy="11.935" r="11.935" transform="translate(222.703 72.028)" fill="#fbbebe"/>
        <path id="Path_865" data-name="Path 865" d="M626.37,342.111a14.438,14.438,0,0,0-1.515-2.54,52.831,52.831,0,0,0-7.162-8.783,44.582,44.582,0,0,0-6.8-4.994,15.431,15.431,0,0,0-4.255-2.042,16.648,16.648,0,0,0-2.732-.372l-3.1-.253a2.537,2.537,0,0,0-.817.024,1.76,1.76,0,0,0-1.045,2.1,5.175,5.175,0,0,0,1.38,2.172c.139,6.325-2.674,12.564-3.054,18.881-.666,11.045,6.076,21.318,6.615,32.372a3.492,3.492,0,0,1-.155,1.482c-.09.229-.225.437-.327.661a6.464,6.464,0,0,0-.363,2.246,11.408,11.408,0,0,1-3.36,7.195,4.994,4.994,0,0,0,1.895,1.445,34.153,34.153,0,0,0,4.242,1.013c3.609,1.054,7.309,2.115,11.061,1.891a9.758,9.758,0,0,0,.853-3.213c.531-.331,1.143.376,1.225,1s-.037,1.343.408,1.793a1.681,1.681,0,0,0,1.552.31,68.6,68.6,0,0,0,6.737-1.58,12.567,12.567,0,0,1,6.831-.025,1.828,1.828,0,0,0-.106-2,8.939,8.939,0,0,1-1.074-1.833,4.118,4.118,0,0,1-.131-1.2c0-3.491.719-7.019.037-10.445-.2-1-.519-1.984-.723-2.993a25.812,25.812,0,0,1-.294-5.97c.053-2-.188-4.157-.229-6.182a19.693,19.693,0,0,0-.163-2.5c-.139-.87-.408-1.719-.482-2.6-.221-2.229.678-4.443.543-6.68C631.641,347.088,627.693,345.243,626.37,342.111Z" transform="translate(-379.915 -225.911)" fill="#ff4133"/>
        <path id="Path_866" data-name="Path 866" d="M579.286,365.579c-2.891,7.668-4.3,15.8-5.716,23.879L570.3,408.428a91.792,91.792,0,0,0-1.821,16.194,17.338,17.338,0,0,1-.3,4.557c-.523,1.935-1.821,3.548-2.805,5.308A17.468,17.468,0,0,0,563.5,446.3c.335,1.694,1.249,3.618,2.968,3.814,1.413.155,2.634-.968,3.458-2.127,1.895-2.658,2.834-5.867,3.675-9.028a204.218,204.218,0,0,0,5.663-31.477,30.638,30.638,0,0,1,.568-4,28.386,28.386,0,0,1,1.38-3.985q1.874-4.647,3.752-9.293c2.887-7.158,5.79-14.348,9.755-20.971-3.92-1.127-8-2.45-11.919-3.565A10.766,10.766,0,0,0,579.286,365.579Z" transform="translate(-359.768 -250.98)" fill="#fbbebe"/>
        <path id="Path_867" data-name="Path 867" d="M604.99,366.865c-2.744-.592-5.582-.408-8.383-.478a1.809,1.809,0,0,1-1.127-.294c-.568-.486-.327-1.4-.041-2.087l1.356-3.267a4.752,4.752,0,0,1,1.086-1.8,4.607,4.607,0,0,1,2.577-.874,23.344,23.344,0,0,1,8.926.347,10.676,10.676,0,0,1,6.892,5.341,3.634,3.634,0,0,1,.074,3.573c-1.062,1.523-3.442,3.226-5.218,2.393C609,368.706,607.375,367.371,604.99,366.865Z" transform="translate(-378.678 -246.439)" fill="#ff4133"/>
        <path id="Path_868" data-name="Path 868" d="M600.591,233.2a12.054,12.054,0,0,0-6.656,1.919,14.6,14.6,0,0,0-14.332-3.356,8.342,8.342,0,1,0-9.636,9.653,14.6,14.6,0,1,0,28.019,8.2,13.07,13.07,0,0,0,2.617.265c5.757,0,10.429-3.736,10.429-8.342S606.34,233.2,600.591,233.2Z" transform="translate(-359.689 -167.779)" fill="#3f3d56"/>
        <path id="Path_869" data-name="Path 869" d="M653.528,271.195a12.7,12.7,0,0,1-2.617-.265,14.522,14.522,0,0,1-1.911,4.2,13.111,13.111,0,0,0,2.45.237c5.382,0,9.8-3.267,10.367-7.448A11.5,11.5,0,0,1,653.528,271.195Z" transform="translate(-410.548 -193.259)" opacity="0.1"/>
        <path id="Path_870" data-name="Path 870" d="M585.991,260.027a14.618,14.618,0,0,1-13.956-18.9,8.342,8.342,0,0,1-6.9-8.215,8.2,8.2,0,0,1,.135-1.494,8.342,8.342,0,0,0,4.679,13.883,14.6,14.6,0,1,0,27.884,8.648A14.569,14.569,0,0,1,585.991,260.027Z" transform="translate(-359.695 -171.662)" opacity="0.1"/>
        <rect id="Rectangle_192" data-name="Rectangle 192" width="0.274" height="2.262" rx="0.137" transform="matrix(0.814, 0.581, -0.581, 0.814, 279.402, 112.705)" fill="#3a3768"/>
        <rect id="Rectangle_193" data-name="Rectangle 193" width="0.155" height="0.743" rx="0.078" transform="matrix(0.814, 0.581, -0.581, 0.814, 273.009, 105.964)" fill="#3a3768"/>
        <rect id="Rectangle_194" data-name="Rectangle 194" width="0.171" height="1.294" rx="0.086" transform="matrix(0.814, 0.581, -0.581, 0.814, 272.208, 107.075)" fill="#3a3768"/>
        <rect id="Rectangle_195" data-name="Rectangle 195" width="0.163" height="1.307" rx="0.082" transform="matrix(0.814, 0.581, -0.581, 0.814, 271.199, 108.501)" fill="#3a3768"/>
        <rect id="Rectangle_196" data-name="Rectangle 196" width="9.179" height="18.656" rx="2.52" transform="matrix(0.814, 0.581, -0.581, 0.814, 274.888, 104.775)" fill="#3a3768"/>
        <rect id="Rectangle_197" data-name="Rectangle 197" width="9.179" height="18.656" rx="2.52" transform="matrix(0.814, 0.581, -0.581, 0.814, 274.888, 104.775)" opacity="0.1"/>
        <rect id="Rectangle_198" data-name="Rectangle 198" width="9.179" height="18.656" rx="2.52" transform="matrix(0.814, 0.581, -0.581, 0.814, 274.51, 104.014)" fill="#3a3768"/>
        <path id="Path_871" data-name="Path 871" d="M729.2,346.257l-.853-.612-.074.1a.6.6,0,0,1-.817.143l-2.728-1.948a.6.6,0,0,1-.139-.837l.073-.1-.817-.572a.727.727,0,0,0-1.017.167L713.4,355.808a.731.731,0,0,0,.167,1.017l5.365,3.826a.727.727,0,0,0,1.017-.171l9.424-13.205a.727.727,0,0,0-.18-1.017Z" transform="translate(-448.574 -237.264)" fill="#283fef"/>
        <rect id="Rectangle_199" data-name="Rectangle 199" width="1.282" height="0.261" rx="0.131" transform="matrix(0.814, 0.581, -0.581, 0.814, 277.199, 106.623)" fill="#e6e8ec"/>
        <circle id="Ellipse_98" data-name="Ellipse 98" cx="0.147" cy="0.147" r="0.147" transform="translate(278.279 107.535)" fill="#e6e8ec"/>
        <g transform="matrix(1, 0, 0, 1, 0, -6)" filter="url(#Path_874)">
          <path id="Path_874-2" data-name="Path 874" d="M707.357,85.07A27.357,27.357,0,0,0,680,112.427c0,15.108,28.664,70.844,28.664,70.844s26.051-55.728,26.051-70.839A27.358,27.358,0,0,0,707.353,85.07Zm0,45.6a14.332,14.332,0,1,1,14.332-14.332A14.332,14.332,0,0,1,707.357,130.671Z" transform="translate(-428.89 -79.07)" fill="#2840f1"/>
        </g>
        <path id="Path_875" data-name="Path 875" d="M918.232,623.271l-42.351-73.355a1.348,1.348,0,0,0-2.34,0l-42.351,73.355a1.347,1.347,0,0,0,1.168,2.042h12.633a1.356,1.356,0,0,1,1.352,1.352v15.655a1.352,1.352,0,0,0,1.348,1.352h16.484a1.352,1.352,0,0,0,1.352-1.352v-7.566a1.347,1.347,0,0,1,1.347-1.347h15.671a1.352,1.352,0,0,1,1.352,1.348v7.566a1.352,1.352,0,0,0,1.352,1.352h16.48a1.352,1.352,0,0,0,1.351-1.352V626.648a1.352,1.352,0,0,1,1.352-1.352h12.634a1.351,1.351,0,0,0,1.168-2.025Zm-59.059,8.117a1.347,1.347,0,0,1-.955.408h-5.933a1.352,1.352,0,1,1,0-2.7h5.945a1.352,1.352,0,0,1,.956,2.307Zm38.9,0a1.347,1.347,0,0,1-.956.408h-5.929a1.352,1.352,0,1,1,0-2.7h5.953a1.351,1.351,0,0,1,.955,2.307Z" transform="translate(-780.275 -359.709)" fill="#2840f1" opacity="0.1"/>
        <path id="Path_856" data-name="Path 856" d="M371.678,732.727l7.815-4.6a18.837,18.837,0,0,0-4-4.781l-14.744,4.586,11.555-6.79A18.783,18.783,0,0,0,344.5,737.619c0,10.371,8.407,10.731,18.783,10.731s18.783-.359,18.783-10.731A18.7,18.7,0,0,0,380.453,730Z" transform="translate(-230.382 -460.055)" fill="#c2ccd3"/>
        <path id="Path_857" data-name="Path 857" d="M373.648,760.25a14.6,14.6,0,0,0-2.768-2.172,12.892,12.892,0,0,0-4.561-2.225,34.206,34.206,0,0,0-4.492-.131,10.477,10.477,0,0,1-6.864-3.144,21.439,21.439,0,0,0-3.189-3.3,7.014,7.014,0,0,0-4.781-.878,11.874,11.874,0,0,0-1.413.29,18.721,18.721,0,0,0-1.111,6.374c0,10.371,8.407,10.731,18.783,10.731,5.035,0,9.6-.086,12.976-1.356l-.563-1.053a14.863,14.863,0,0,0-2.017-3.132Z" transform="translate(-230.364 -477.497)" opacity="0.1"/>
      </g>
      <rect id="Rectangle_200" data-name="Rectangle 200" width="20.695" height="8.043" transform="translate(316.929 484.02)" fill="#fff"/>
    </g>
    <g id="noun_eat_1641218" transform="translate(519.274 172.425)">
      <g id="Group_56" data-name="Group 56" transform="translate(34.684 83.3)">
        <path id="Path_433" data-name="Path 433" d="M31.379,6.575v5.691a.391.391,0,1,1-.782,0l-.232-5.691h-.434l-.116,5.691a.391.391,0,1,1-.782,0l-.116-5.691h-.434l-.232,5.691a.391.391,0,1,1-.782,0V6.575h-.439l-.348,7.258a1.158,1.158,0,0,0,1.158,1.158h.607V28.5a.976.976,0,1,0,1.952,0V14.991h.607a1.158,1.158,0,0,0,1.158-1.158l-.348-7.257Z" transform="translate(-27.684 -6.575)" fill="#2840f1"/>
        <path id="Path_434" data-name="Path 434" d="M55.319,6.575H54.47a2.255,2.255,0,0,0-2.253,2.253V16.84a1.4,1.4,0,0,0,1.4,1.4h1.15V28.5a.976.976,0,1,0,1.952,0V7.978A1.4,1.4,0,0,0,55.319,6.575Z" transform="translate(-44.072 -6.575)" fill="#2840f1"/>
      </g>
    </g>
  </g>
</svg>
