<svg xmlns="http://www.w3.org/2000/svg" width="395.264" height="275.798" viewBox="0 0 395.264 275.798">
  <g id="Order" transform="translate(0)">
    <path id="Path_1" data-name="Path 1" d="M309.791,136a93.193,93.193,0,0,0-111.981-12.61C233.7,136.24,273.3,136.712,309.791,136Z" transform="translate(-152.158 -100.746)" fill="#ffd200" opacity="0.1"/>
    <path id="Path_2" data-name="Path 2" d="M911.729,617.752l-39.194-67.886a1.247,1.247,0,0,0-2.165,0l-39.194,67.886a1.247,1.247,0,0,0,1.081,1.889h11.692a1.255,1.255,0,0,1,1.251,1.251V635.38a1.251,1.251,0,0,0,1.247,1.251H861.7a1.251,1.251,0,0,0,1.251-1.251v-7a1.247,1.247,0,0,1,1.247-1.247h14.5a1.251,1.251,0,0,1,1.251,1.247v7a1.251,1.251,0,0,0,1.251,1.251h15.251a1.251,1.251,0,0,0,1.251-1.251v-14.5a1.251,1.251,0,0,1,1.251-1.251h11.692a1.251,1.251,0,0,0,1.081-1.874Zm-54.657,7.512a1.247,1.247,0,0,1-.884.378H850.7a1.251,1.251,0,0,1,0-2.5h5.5a1.251,1.251,0,0,1,.884,2.135Zm36,0a1.247,1.247,0,0,1-.884.378h-5.487a1.251,1.251,0,0,1,0-2.5h5.509a1.251,1.251,0,0,1,.884,2.135Z" transform="translate(-546.076 -373.837)" fill="#ffd200" opacity="0.1"/>
    <path id="Path_3" data-name="Path 3" d="M279.724,619.338,240.53,551.452a1.251,1.251,0,0,0-2.165,0L204.51,610.088a103.414,103.414,0,0,0,14.167,14.628h5.517a1.251,1.251,0,0,1,0,2.5h-2.328a60.575,60.575,0,0,0,9.069,5.642v-2.891a1.251,1.251,0,0,1,1.251-1.251h14.5a1.251,1.251,0,0,1,1.247,1.251v7a1.217,1.217,0,0,0,.117.525,1.251,1.251,0,0,0,1.134.726h15.255a1.225,1.225,0,0,0,.994-.5,1.2,1.2,0,0,0,.253-.756V622.467a1.251,1.251,0,0,1,1.251-1.251h11.692a1.251,1.251,0,0,0,1.092-1.878Zm-25.9,5.744a1.247,1.247,0,0,1,.884-.378h5.5a1.251,1.251,0,1,1,0,2.5H254.7a1.251,1.251,0,0,1-.884-2.135ZM229.2,599.961a1.251,1.251,0,0,1-1.251-1.251v-9.5a1.251,1.251,0,0,1,1.251-1.251h20.5a1.251,1.251,0,0,1,1.247,1.251v9.5a1.251,1.251,0,0,1-1.247,1.251Z" transform="translate(-156.326 -374.826)" fill="#ffd200" opacity="0.1"/>
    <path id="Path_4" data-name="Path 4" d="M562.026,367.013h-48.5v-10.49a2.509,2.509,0,0,0-2.509-2.509H496.774V342.84a1.58,1.58,0,0,0-1.58-1.58H476.848a1.58,1.58,0,0,0-1.579,1.58v11.17H458.524a2.509,2.509,0,0,0-2.509,2.509v10.49H409.766a.51.51,0,0,0-.506.51V506.78a.51.51,0,0,0,.506.51H440.5a.51.51,0,0,0,.51-.51V488.044a.514.514,0,0,1,.51-.51h12.984a.514.514,0,0,1,.51.51V506.78a.51.51,0,0,0,.506.51h60.744a.514.514,0,0,0,.51-.51V488.044a.51.51,0,0,1,.506-.51h12.984a.51.51,0,0,1,.51.51V506.78a.514.514,0,0,0,.51.51h30.737a.514.514,0,0,0,.51-.51V367.523A.514.514,0,0,0,562.026,367.013ZM435.511,481.027a.506.506,0,0,1-.506.506H416.02a.506.506,0,0,1-.51-.506v-6.473a.51.51,0,0,1,.51-.51h18.985a.51.51,0,0,1,.506.51Zm0-16.755a.506.506,0,0,1-.506.51H416.02a.506.506,0,0,1-.51-.51v-6.481a.506.506,0,0,1,.51-.51h18.985a.506.506,0,0,1,.506.51Zm0-16.751a.51.51,0,0,1-.506.51H416.02a.51.51,0,0,1-.51-.51v-6.484a.51.51,0,0,1,.51-.51h18.985a.51.51,0,0,1,.506.51Zm0-16.755a.506.506,0,0,1-.506.51H416.02a.506.506,0,0,1-.51-.51V424.3a.506.506,0,0,1,.51-.51h18.985a.506.506,0,0,1,.506.51Zm0-16.752a.51.51,0,0,1-.506.51H416.02a.51.51,0,0,1-.51-.51v-6.484a.506.506,0,0,1,.51-.506h18.985a.506.506,0,0,1,.506.506Zm0-16.751a.506.506,0,0,1-.506.506H416.02a.506.506,0,0,1-.51-.506v-6.484a.51.51,0,0,1,.51-.51h18.985a.51.51,0,0,1,.506.51Zm0-16.755a.506.506,0,0,1-.506.51H416.02a.506.506,0,0,1-.51-.51v-6.469a.506.506,0,0,1,.51-.51h18.985a.506.506,0,0,1,.506.51Zm45.009,100.516a.506.506,0,0,1-.51.506H461.026a.51.51,0,0,1-.51-.506v-6.469a.514.514,0,0,1,.51-.51h18.985a.51.51,0,0,1,.51.51Zm0-16.755a.506.506,0,0,1-.51.51H461.026a.51.51,0,0,1-.51-.51v-6.477a.51.51,0,0,1,.51-.51h18.985a.506.506,0,0,1,.51.51Zm0-16.752a.51.51,0,0,1-.51.51H461.026a.514.514,0,0,1-.51-.51v-6.481a.514.514,0,0,1,.51-.51h18.985a.51.51,0,0,1,.51.51Zm0-16.755a.506.506,0,0,1-.51.51H461.026a.51.51,0,0,1-.51-.51V424.3a.51.51,0,0,1,.51-.51h18.985a.506.506,0,0,1,.51.51Zm0-16.751a.51.51,0,0,1-.51.51H461.026a.514.514,0,0,1-.51-.51v-6.481a.51.51,0,0,1,.51-.506h18.985a.506.506,0,0,1,.51.506Zm0-16.751a.506.506,0,0,1-.51.506H461.026a.51.51,0,0,1-.51-.506v-6.481a.514.514,0,0,1,.51-.51h18.985a.51.51,0,0,1,.51.51Zm0-16.755a.506.506,0,0,1-.51.51H461.026a.51.51,0,0,1-.51-.51v-6.465a.51.51,0,0,1,.51-.51h18.985a.506.506,0,0,1,.51.51Zm30.756,100.516a.506.506,0,0,1-.51.506H491.782a.51.51,0,0,1-.51-.506v-6.465a.514.514,0,0,1,.51-.51h18.985a.51.51,0,0,1,.51.51Zm0-16.755a.506.506,0,0,1-.51.51H491.782a.51.51,0,0,1-.51-.51v-6.473a.51.51,0,0,1,.51-.51h18.985a.506.506,0,0,1,.51.51Zm0-16.751a.51.51,0,0,1-.51.51H491.782a.514.514,0,0,1-.51-.51v-6.477a.514.514,0,0,1,.51-.51h18.985a.51.51,0,0,1,.51.51Zm0-16.755a.506.506,0,0,1-.51.51H491.782a.51.51,0,0,1-.51-.51V424.3a.51.51,0,0,1,.51-.51h18.985a.506.506,0,0,1,.51.51Zm0-16.751a.51.51,0,0,1-.51.51H491.782a.514.514,0,0,1-.51-.51v-6.477a.51.51,0,0,1,.51-.506h18.985a.506.506,0,0,1,.51.506Zm0-16.752a.506.506,0,0,1-.51.506H491.782a.51.51,0,0,1-.51-.506v-6.477a.514.514,0,0,1,.51-.51h18.985a.51.51,0,0,1,.51.51Zm0-16.755a.506.506,0,0,1-.51.51H491.782a.51.51,0,0,1-.51-.51v-6.462a.51.51,0,0,1,.51-.51h18.985a.506.506,0,0,1,.51.51Zm45.009,100.516a.51.51,0,0,1-.51.506H536.791a.506.506,0,0,1-.51-.506v-6.462a.51.51,0,0,1,.51-.51H555.78a.514.514,0,0,1,.51.51Zm0-16.755a.51.51,0,0,1-.51.51H536.791a.506.506,0,0,1-.51-.51v-6.469a.506.506,0,0,1,.51-.51H555.78a.51.51,0,0,1,.51.51Zm0-16.751a.514.514,0,0,1-.51.51H536.791a.51.51,0,0,1-.51-.51v-6.473a.51.51,0,0,1,.51-.51H555.78a.514.514,0,0,1,.51.51Zm0-16.755a.51.51,0,0,1-.51.51H536.791a.506.506,0,0,1-.51-.51V424.3a.506.506,0,0,1,.51-.51H555.78a.51.51,0,0,1,.51.51Zm0-16.751a.514.514,0,0,1-.51.51H536.791a.51.51,0,0,1-.51-.51v-6.473a.506.506,0,0,1,.51-.506H555.78a.51.51,0,0,1,.51.506Zm0-16.751a.51.51,0,0,1-.506.518H536.791a.506.506,0,0,1-.51-.506v-6.484a.51.51,0,0,1,.51-.51H555.78a.514.514,0,0,1,.51.51Zm0-16.755a.51.51,0,0,1-.51.51H536.791a.506.506,0,0,1-.51-.51v-6.458a.506.506,0,0,1,.51-.51H555.78a.51.51,0,0,1,.51.51Z" transform="translate(-283.705 -244.451)" fill="#ffd200" opacity="0.1"/>
    <path id="Path_5" data-name="Path 5" d="M394.031,285.541a10.917,10.917,0,0,0-6.337.688,9.337,9.337,0,0,1-7.645-.019,10.664,10.664,0,0,0-8.948.178,5.574,5.574,0,0,1-2.577.642c-3.628,0-6.647-3.654-7.274-8.476a6.957,6.957,0,0,0,1.814-1.954c2.127-3.427,5.423-5.63,9.122-5.63s6.953,2.177,9.069,5.566a7,7,0,0,0,6.027,3.31h.094C390.294,279.846,392.8,282.163,394.031,285.541Z" transform="translate(-253.837 -200.722)" fill="#ffd200" opacity="0.1"/>
    <path id="Path_6" data-name="Path 6" d="M405.059,248.241l-5.865,3.718,3.56-6.473a5.8,5.8,0,0,0-3.548-1.266h-.094a6.86,6.86,0,0,1-1.217-.091l-1.98,1.262.854-1.549a7.066,7.066,0,0,1-3.477-2.645l-3.56,2.267,2.241-4.1A10.414,10.414,0,0,0,384,235.34c-3.7,0-6.995,2.2-9.122,5.627a6.821,6.821,0,0,1-6.046,3.254h-.2c-4.085,0-7.4,4.629-7.4,10.343s3.31,10.343,7.4,10.343a5.521,5.521,0,0,0,2.577-.646,10.664,10.664,0,0,1,8.948-.174,9.337,9.337,0,0,0,7.61,0,10.66,10.66,0,0,1,8.873.17,5.536,5.536,0,0,0,2.547.631c4.085,0,7.4-4.633,7.4-10.343a13.135,13.135,0,0,0-1.527-6.3Z" transform="translate(-253.831 -178.556)" fill="#ffd200" opacity="0.1"/>
    <path id="Path_7" data-name="Path 7" d="M871.262,475.228a7.675,7.675,0,0,0-4.436.48,6.526,6.526,0,0,1-5.328,0,7.467,7.467,0,0,0-6.265.125,3.885,3.885,0,0,1-1.8.45c-2.539,0-4.652-2.558-5.09-5.933a4.939,4.939,0,0,0,1.27-1.368,7.139,7.139,0,0,1,12.742-.045,4.89,4.89,0,0,0,4.217,2.316h.068C868.64,471.245,870.389,472.866,871.262,475.228Z" transform="translate(-556.865 -321.456)" fill="#ffd200" opacity="0.1"/>
    <path id="Path_8" data-name="Path 8" d="M878.954,449.119l-4.1,2.6,2.49-4.535a4.058,4.058,0,0,0-2.483-.884h-.064a4.872,4.872,0,0,1-.85-.064l-1.394.88.6-1.081a4.985,4.985,0,0,1-2.434-1.848l-2.5,1.572,1.572-2.861a7.255,7.255,0,0,0-5.578-2.823,7.631,7.631,0,0,0-6.386,3.941,4.769,4.769,0,0,1-4.221,2.267h-.125c-2.857,0-5.177,3.238-5.177,7.236s2.32,7.24,5.177,7.24a3.885,3.885,0,0,0,1.8-.45,7.452,7.452,0,0,1,6.265-.121,6.564,6.564,0,0,0,5.328,0,7.463,7.463,0,0,1,6.209.121,3.911,3.911,0,0,0,1.784.438c2.861,0,5.177-3.238,5.177-7.24A9.2,9.2,0,0,0,878.954,449.119Z" transform="translate(-556.84 -305.928)" fill="#ffd200" opacity="0.1"/>
    <path id="Path_9" data-name="Path 9" d="M315.62,411.2a7.679,7.679,0,0,1,4.436.48,6.515,6.515,0,0,0,5.324,0,7.467,7.467,0,0,1,6.265.125,3.9,3.9,0,0,0,1.8.45c2.539,0,4.656-2.558,5.094-5.933a4.886,4.886,0,0,1-1.27-1.368,7.139,7.139,0,0,0-12.75-.06,4.912,4.912,0,0,1-4.225,2.324h-.064C318.224,407.22,316.47,408.841,315.62,411.2Z" transform="translate(-225.45 -281.616)" fill="#ffd200" opacity="0.1"/>
    <path id="Path_10" data-name="Path 10" d="M293.354,385.113l4.1,2.592-2.494-4.535a4.066,4.066,0,0,1,2.483-.884h.068a4.915,4.915,0,0,0,.85-.064l1.391.88-.6-1.081a4.992,4.992,0,0,0,2.437-1.848l2.49,1.58-1.576-2.861a7.291,7.291,0,0,1,5.581-2.823,7.631,7.631,0,0,1,6.386,3.941,4.765,4.765,0,0,0,4.221,2.267h.136c2.861,0,5.177,3.238,5.177,7.236s-2.316,7.24-5.177,7.24a3.907,3.907,0,0,1-1.8-.45,7.452,7.452,0,0,0-6.265-.121,6.556,6.556,0,0,1-5.324,0,7.471,7.471,0,0,0-6.212.121,3.9,3.9,0,0,1-1.784.438c-2.857,0-5.177-3.238-5.177-7.24a9.2,9.2,0,0,1,1.085-4.391Z" transform="translate(-210.923 -266.106)" fill="#ffd200" opacity="0.1"/>
    <path id="Path_11" data-name="Path 11" d="M295.68,784.763c5.117,3.25,12.489-.038,17.639,3.163,1.33.824,2.4,2.037,3.779,2.785a12.212,12.212,0,0,0,5.472,1.134c15.727.608,31.719-3.779,47.054-.234,4.289.99,8.483,2.6,12.878,2.834,7.592.412,14.866-3.291,22.465-3.5,11.525-.31,22.85,7.4,33.972,4.361,3.658-1,7.013-3.136,10.789-3.5,4.206-.378,8.249,1.455,12.338,2.524,14.5,3.779,29.6-2.343,44.59-2.8,9.776-.3,19.457,1.833,29.225,2.324a174.543,174.543,0,0,0,20.844-.623c2.645-.185,5.415-.412,7.629-1.863s3.575-4.569,2.207-6.836Z" transform="translate(-213.045 -520.223)" fill="#3f3d56"/>
    <path id="Path_12" data-name="Path 12" d="M295.68,784.763c5.117,3.25,12.489-.038,17.639,3.163,1.33.824,2.4,2.037,3.779,2.785a12.212,12.212,0,0,0,5.472,1.134c15.727.608,31.719-3.779,47.054-.234,4.289.99,8.483,2.6,12.878,2.834,7.592.412,14.866-3.291,22.465-3.5,11.525-.31,22.85,7.4,33.972,4.361,3.658-1,7.013-3.136,10.789-3.5,4.206-.378,8.249,1.455,12.338,2.524,14.5,3.779,29.6-2.343,44.59-2.8,9.776-.3,19.457,1.833,29.225,2.324a174.543,174.543,0,0,0,20.844-.623c2.645-.185,5.415-.412,7.629-1.863s3.575-4.569,2.207-6.836Z" transform="translate(-213.045 -520.223)" opacity="0.1"/>
    <path id="Path_13" data-name="Path 13" d="M295.68,779.763c5.117,3.25,12.489-.038,17.639,3.163,1.33.824,2.4,2.037,3.779,2.785a12.212,12.212,0,0,0,5.472,1.134c15.727.608,31.719-3.779,47.054-.234,4.289.99,8.483,2.6,12.878,2.834,7.592.412,14.866-3.291,22.465-3.5,11.525-.31,22.85,7.4,33.972,4.361,3.658-1,7.013-3.136,10.789-3.5,4.206-.378,8.249,1.455,12.338,2.524,14.5,3.779,29.6-2.343,44.59-2.8,9.776-.3,19.457,1.833,29.225,2.324a174.543,174.543,0,0,0,20.844-.623c2.645-.185,5.415-.412,7.629-1.863s3.575-4.569,2.207-6.836Z" transform="translate(-213.045 -517.113)" fill="#3f3d56"/>
    <g id="Group_1" data-name="Group 1" transform="translate(12.231 78.663)" opacity="0.1">
      <path id="Path_14" data-name="Path 14" d="M180.095,628.9a9.239,9.239,0,0,1-1.221,4.678,9.576,9.576,0,0,1,0,9.356,8.6,8.6,0,0,1,.922,2.267,171.608,171.608,0,0,1-11.37-17h0a9.07,9.07,0,0,1,1.194-3.99,9.239,9.239,0,0,1-1.221-4.678,9.621,9.621,0,0,1,.552-3.254,8.083,8.083,0,0,1,.669-1.425,5.084,5.084,0,0,1,9.254,0,8.419,8.419,0,0,1,.654,1.379,9.685,9.685,0,0,1,.567,3.3,9.239,9.239,0,0,1-1.221,4.678,9.239,9.239,0,0,1,1.221,4.693Z" transform="translate(-146.092 -491.465)" fill="#3f3d56"/>
      <ellipse id="Ellipse_1" data-name="Ellipse 1" cx="5.846" cy="7.656" rx="5.846" ry="7.656" transform="translate(22.308 111.067)" fill="#3f3d56"/>
      <ellipse id="Ellipse_2" data-name="Ellipse 2" cx="5.846" cy="7.656" rx="5.846" ry="7.656" transform="translate(22.308 101.711)" fill="#3f3d56"/>
      <path id="Path_15" data-name="Path 15" d="M165.408,355.877a27.88,27.88,0,0,1-6,17.318A28.012,28.012,0,0,1,142.784,418c-.673.136-1.357.242-2.048.325a28.3,28.3,0,0,1-6.424.034q-1.066-.113-2.1-.314a27.7,27.7,0,0,1-8.691-3.178,279.083,279.083,0,0,1-13.154-31.663,27.884,27.884,0,0,1,5.022-10,28.035,28.035,0,0,1-4.535-26.3l21.267,7.138-19.945-10.362a28.126,28.126,0,0,1,3.193-5.109,28.012,28.012,0,1,1,46.264-31.345l-20.561,15.115,22.295-11.563a28.046,28.046,0,0,1-.537,22.193l-16.627-.125,15.365,2.524a28.123,28.123,0,0,1-2.18,3.2,27.888,27.888,0,0,1,6.023,17.3Z" transform="translate(-109.367 -293.239)" fill="#ffd200"/>
      <path id="Path_16" data-name="Path 16" d="M165.441,492.972a28.019,28.019,0,0,1-22.6,27.486c-.677.137-1.361.243-2.053.326a28.3,28.3,0,0,1-6.424.034q-1.066-.113-2.1-.314a27.7,27.7,0,0,1-8.691-3.178,279.07,279.07,0,0,1-13.173-31.678,27.884,27.884,0,0,1,5.022-10,27.9,27.9,0,0,1-6-17.333c0-3.144,53.78,12.553,50.024,17.318A27.88,27.88,0,0,1,165.441,492.972Z" transform="translate(-109.4 -395.683)" opacity="0.1"/>
    </g>
    <g id="Group_2" data-name="Group 2" transform="translate(357.219 108.732)" opacity="0.1">
      <path id="Path_17" data-name="Path 17" d="M1085.368,637.65c-1.1,3.5-2.267,6.972-3.469,10.365a9.688,9.688,0,0,1-.5-3.1C1081.4,641.538,1083.063,638.674,1085.368,637.65Z" transform="translate(-1059.075 -537.572)" fill="#3f3d56"/>
      <path id="Path_18" data-name="Path 18" d="M1060.366,412.593c0,6.632-1.338,17.11-3.779,29.1a319.563,319.563,0,0,1-7.992,31.2c-1.1,3.5-2.267,6.972-3.469,10.365-1.379,3.854-2.834,7.6-4.357,11.189a28.118,28.118,0,0,1-12.436-43.747,28.144,28.144,0,0,1-4.535-26.361l21.267,7.153L1025.121,421.1a28.214,28.214,0,0,1,3.193-5.12,28.114,28.114,0,0,1,11-43.173,48.2,48.2,0,0,1,18.422,24.158l-3.684,2.743,3.953-2.052a47.963,47.963,0,0,1,2.3,12.587H1059.2l1.134.185C1060.366,411.146,1060.366,411.864,1060.366,412.593Z" transform="translate(-1022.321 -372.81)" fill="#ffd200"/>
      <path id="Path_19" data-name="Path 19" d="M1056.667,540.672a319.594,319.594,0,0,1-7.992,31.2c-1.1,3.5-2.267,6.972-3.469,10.365-1.379,3.854-2.834,7.6-4.357,11.189a28.118,28.118,0,0,1-12.436-43.747,28,28,0,0,1-5.993-17.352C1022.42,530.435,1041.964,535.385,1056.667,540.672Z" transform="translate(-1022.383 -471.791)" opacity="0.1"/>
    </g>
    <path id="Path_20" data-name="Path 20" d="M472.215,269.913v-.178a47.962,47.962,0,0,0-2.3-12.587c-.076-.23-.151-.465-.23-.692a47.969,47.969,0,0,0-81.211-16.4,67.792,67.792,0,0,0-3.82-13.4,215.245,215.245,0,0,1-38.026,1.417,153.421,153.421,0,0,0,24.109,8.756l-.295,1.1a154.821,154.821,0,0,1-26.951-10.089l-2.611-1.266,2.895.189a215.313,215.313,0,0,0,40.433-1.16A68.178,68.178,0,0,0,372.3,206.674c-21.751-2.192-43.332-6.757-63.484-15.807l.465-1.032c19.616,8.816,40.637,13.347,61.859,15.576a67.928,67.928,0,0,0-107.972,11.476A93.3,93.3,0,0,0,240.022,164.4,217.892,217.892,0,0,1,204.21,175.25a216.583,216.583,0,0,1-55.979,4.455,153.42,153.42,0,0,0,24.109,8.756l-.295,1.1A154.822,154.822,0,0,1,145.1,179.467l-2.611-1.266,2.895.189a215.094,215.094,0,0,0,93.851-14.87q-1.682-1.84-3.461-3.6c-37.191.756-77.7.378-114.366-12.973A93.537,93.537,0,0,0,77,226.634c0,17.556,4.826,41.7,13.226,65.921A280.1,280.1,0,0,0,103.418,324.3c2.566,5.215,5.29,10.282,8.151,15.134h0a171.779,171.779,0,0,0,11.37,17q1.111,1.462,2.248,2.872A103.731,103.731,0,0,0,139.35,374h0q1.576,1.315,3.17,2.505a60.389,60.389,0,0,0,9.069,5.668,41.818,41.818,0,0,0,17.118,4.64c.469.019.941.03,1.41.03v.193H424.054v-.193h.189a12.848,12.848,0,0,0,4.293-.756c8.978-3.186,17.246-15.977,24.12-32.143,1.512-3.586,2.978-7.335,4.357-11.189,1.217-3.4,2.373-6.866,3.469-10.365a319.588,319.588,0,0,0,7.992-31.2c2.422-11.986,3.779-22.465,3.779-29.1C472.264,271.352,472.264,270.634,472.215,269.913Z" transform="translate(-77 -123.567)" fill="#ffd200" opacity="0.1"/>
    <path id="Path_21" data-name="Path 21" d="M369.652,731.691l7.233-4.255a17.433,17.433,0,0,0-3.7-4.425l-13.645,4.244,10.694-6.284A17.383,17.383,0,0,0,344.5,736.219c0,9.6,7.781,9.931,17.383,9.931s17.383-.333,17.383-9.931a17.3,17.3,0,0,0-1.493-7.055Z" transform="translate(-243.417 -479.346)" fill="#ffd200"/>
    <path id="Path_22" data-name="Path 22" d="M371.473,759.36a13.513,13.513,0,0,0-2.562-2.01,11.931,11.931,0,0,0-4.221-2.059,31.652,31.652,0,0,0-4.157-.121,9.7,9.7,0,0,1-6.352-2.91,19.845,19.845,0,0,0-2.951-3.057,6.492,6.492,0,0,0-4.425-.812,10.975,10.975,0,0,0-1.307.268,17.326,17.326,0,0,0-1.028,5.9c0,9.6,7.781,9.931,17.383,9.931,4.659,0,8.888-.079,12.009-1.255l-.521-.975A13.758,13.758,0,0,0,371.473,759.36Z" transform="translate(-243.398 -497.685)" opacity="0.1"/>
    <circle id="Ellipse_3" data-name="Ellipse 3" cx="13.509" cy="13.509" r="13.509" transform="translate(193.32 56.69)" fill="#3f3d56"/>
    <path id="Path_23" data-name="Path 23" d="M567.743,534.661c1.394,9.783-.306,19.759-2.955,29.278a21.742,21.742,0,0,1-1.954,5.151,54.922,54.922,0,0,1-3.3,4.455c-2.267,3.121-3.6,6.8-4.841,10.445a294.6,294.6,0,0,0-8.623,30.729,2.1,2.1,0,0,0,0,1.311c.329.756,1.326.854,2.146.85l10.6-.057c.378-.726-.321-1.512-.756-2.207-1.511-2.35-.06-5.4,1.273-7.864a84.548,84.548,0,0,0,7.474-18.894,51.229,51.229,0,0,1,2.494-8.211c1.425-3.167,3.658-5.891,5.472-8.854a74.163,74.163,0,0,0,5.173-10.932c2.131-5.207,4.281-10.479,5.12-16.041.79-5.222.4-10.543-.113-15.8a1,1,0,0,0-1.156-1.134l-14.227-.733c-2.932-.151-3.628-.794-3.182,2.086C566.7,530.391,567.433,532.484,567.743,534.661Z" transform="translate(-368.751 -359.373)" fill="#3f3d56"/>
    <path id="Path_24" data-name="Path 24" d="M567.743,534.661c1.394,9.783-.306,19.759-2.955,29.278a21.742,21.742,0,0,1-1.954,5.151,54.922,54.922,0,0,1-3.3,4.455c-2.267,3.121-3.6,6.8-4.841,10.445a294.6,294.6,0,0,0-8.623,30.729,2.1,2.1,0,0,0,0,1.311c.329.756,1.326.854,2.146.85l10.6-.057c.378-.726-.321-1.512-.756-2.207-1.511-2.35-.06-5.4,1.273-7.864a84.548,84.548,0,0,0,7.474-18.894,51.229,51.229,0,0,1,2.494-8.211c1.425-3.167,3.658-5.891,5.472-8.854a74.163,74.163,0,0,0,5.173-10.932c2.131-5.207,4.281-10.479,5.12-16.041.79-5.222.4-10.543-.113-15.8a1,1,0,0,0-1.156-1.134l-14.227-.733c-2.932-.151-3.628-.794-3.182,2.086C566.7,530.391,567.433,532.484,567.743,534.661Z" transform="translate(-368.751 -359.373)" opacity="0.1"/>
    <path id="Path_25" data-name="Path 25" d="M602.533,484.255c-2.891,4.157-5.921,8.941-4.962,13.917.729,3.779,3.609,6.707,6.326,9.447,10.86,10.906,21.539,23.021,25.235,37.966.952,3.862,1.413,7.826,2.233,11.714,1.489,7.066,4.157,13.823,6.8,20.538l7.089,17.893a10.717,10.717,0,0,0,10.241-6.8,4.485,4.485,0,0,1-2.687-1.727c-3.023-4.183-3.643-9.564-4.417-14.666-.858-5.638-2-11.231-3.152-16.819l-5.079-24.729c-.586-2.853-1.171-5.71-1.935-8.521-2.955-10.891-8.555-21.161-9.421-32.422-.128-1.655-.208-3.473-1.33-4.7-1.179-1.3-3.114-1.512-4.863-1.614C615.536,483.276,609.43,482.584,602.533,484.255Z" transform="translate(-400.745 -332.751)" fill="#3f3d56"/>
    <path id="Path_26" data-name="Path 26" d="M546.273,756.871a11.285,11.285,0,0,0-2.35-.3,4.882,4.882,0,0,0-3.839,2.1,9.541,9.541,0,0,0-1.032,2.267l-1.024,2.94a3.27,3.27,0,0,0-.147,2.645,2.8,2.8,0,0,0,1.375,1.062c2.479,1.1,5.29,1.164,7.973,1.428,2.622.257,5.222.718,7.811,1.2.892.17,1.78.34,2.683.431a31.966,31.966,0,0,0,6.069-.181l2.082-.2a7.5,7.5,0,0,0,2.048-.378,2.581,2.581,0,0,0,1.512-1.357,2.451,2.451,0,0,0-1.939-3.046c-.548-.106-1.134-.057-1.67-.129A7.889,7.889,0,0,1,564,764.8a36.472,36.472,0,0,1-7.7-3.752c-.65-.457-1.33-1.1-1.258-1.889a3.853,3.853,0,0,1,.336-.979,3.575,3.575,0,0,0,.03-2.528c-.128-.348-.378-.714-.729-.756-1-.121-.877,1.334-1.024,1.889-.2.756-.563.824-1.273.756C550.339,757.358,548.3,757.256,546.273,756.871Z" transform="translate(-363.579 -501.778)" fill="#f2f2f2"/>
    <path id="Path_27" data-name="Path 27" d="M718.274,764.83a6.67,6.67,0,0,0,1.443,4.062,3.159,3.159,0,0,0,1.028.828,4.126,4.126,0,0,0,1.889.3,15.135,15.135,0,0,0,5.249-1.062,15,15,0,0,1,1.814-.684,20.35,20.35,0,0,1,2.358-.34c3.125-.45,5.869-2.294,8.888-3.227a18.691,18.691,0,0,0,2.645-.869,12.124,12.124,0,0,0,3.11-2.43,5.581,5.581,0,0,0,2.041-5.147.979.979,0,0,0-.091-.533.794.794,0,0,0-.34-.268,4.933,4.933,0,0,0-3.023-.049,53.727,53.727,0,0,1-11.163.412,1.621,1.621,0,0,1-1.716-.979l-1.417-2.267c-.4-.65-1.047-1.394-1.78-1.171a1.45,1.45,0,0,0-.8,1.511,8.073,8.073,0,0,1,.094,1.829,2.5,2.5,0,0,1-1.209,1.572,7.719,7.719,0,0,1-1.889.725c-2.086.59-4.512,1.258-6.125,2.793C718.092,760.922,718.2,763.36,718.274,764.83Z" transform="translate(-475.923 -499.583)" fill="#f2f2f2"/>
    <path id="Path_28" data-name="Path 28" d="M692.413,363.21a8.755,8.755,0,0,0,2.063-2.245,9.147,9.147,0,0,0,.88-3.1l.593-3.749c.329-2.067.714-4.255,2.093-5.831s4.126-2.139,5.528-.582a4.849,4.849,0,0,1,1.005,2.509,18.267,18.267,0,0,1-4.467,15.115c-1.7,1.859-3.779,3.337-5.574,5.094-1.564,1.512-2.921,3.246-4.365,4.89A60.242,60.242,0,0,1,678.28,385.7c.053-2.811.412-5.827,0-8.619-.306-2.018-1.134-3.106.82-4.425C683.634,369.574,688.211,366.785,692.413,363.21Z" transform="translate(-450.795 -247.884)" fill="#fbbebe"/>
    <path id="Path_29" data-name="Path 29" d="M611.205,307.351a6.913,6.913,0,0,1-2.645,5.226q7.063,2.471,13.932,5.449a4.827,4.827,0,0,1-1.194-3.378,17.054,17.054,0,0,1,2.607-9.107,2.21,2.21,0,0,0,.427-1.2c-.053-.892-1.111-1.3-1.98-1.512a48.7,48.7,0,0,0-9.039-1.311c-1.3-.042-2.849-.453-2.555,1.205A18.243,18.243,0,0,1,611.205,307.351Z" transform="translate(-407.693 -219.679)" fill="#fbbebe"/>
    <circle id="Ellipse_4" data-name="Ellipse 4" cx="11.045" cy="11.045" r="11.045" transform="translate(201.573 66.658)" fill="#fbbebe"/>
    <path id="Path_30" data-name="Path 30" d="M624.2,340.694a13.363,13.363,0,0,0-1.4-2.35,48.9,48.9,0,0,0-6.628-8.128,41.261,41.261,0,0,0-6.292-4.621,14.28,14.28,0,0,0-3.938-1.889,15.405,15.405,0,0,0-2.528-.344l-2.868-.234a2.347,2.347,0,0,0-.756.023,1.629,1.629,0,0,0-.967,1.946,4.789,4.789,0,0,0,1.277,2.01c.128,5.853-2.475,11.627-2.827,17.473-.616,10.222,5.623,19.729,6.122,29.958a3.23,3.23,0,0,1-.144,1.372c-.083.212-.208.4-.3.612a5.981,5.981,0,0,0-.336,2.078,10.558,10.558,0,0,1-3.11,6.658,4.622,4.622,0,0,0,1.753,1.338,31.623,31.623,0,0,0,3.926.937c3.34.975,6.764,1.957,10.237,1.75a9.032,9.032,0,0,0,.79-2.974c.491-.306,1.058.348,1.134.922s-.034,1.243.378,1.659a1.555,1.555,0,0,0,1.436.287,63.482,63.482,0,0,0,6.235-1.462,11.629,11.629,0,0,1,6.322-.023,1.691,1.691,0,0,0-.1-1.852,8.273,8.273,0,0,1-.994-1.7,3.809,3.809,0,0,1-.121-1.115c0-3.231.665-6.5.034-9.666-.185-.93-.48-1.836-.669-2.77a23.886,23.886,0,0,1-.272-5.525c.049-1.848-.174-3.847-.212-5.721a18.247,18.247,0,0,0-.151-2.316c-.128-.8-.378-1.591-.446-2.4-.2-2.063.627-4.111.5-6.182C629.076,345.3,625.422,343.593,624.2,340.694Z" transform="translate(-400.643 -233.157)" fill="#ff6f61"/>
    <path id="Path_31" data-name="Path 31" d="M578.085,365.572c-2.675,7.1-3.983,14.624-5.29,22.1l-3.023,17.556a84.95,84.95,0,0,0-1.685,14.987,16.044,16.044,0,0,1-.28,4.217c-.484,1.791-1.685,3.284-2.6,4.912a16.166,16.166,0,0,0-1.738,10.932c.31,1.568,1.156,3.348,2.747,3.529,1.307.144,2.437-.9,3.2-1.969a25.357,25.357,0,0,0,3.4-8.355,189,189,0,0,0,5.241-29.131,28.362,28.362,0,0,1,.525-3.7,26.283,26.283,0,0,1,1.277-3.688q1.734-4.3,3.473-8.6c2.672-6.624,5.358-13.279,9.028-19.408-3.628-1.043-7.4-2.267-11.03-3.3A9.963,9.963,0,0,0,578.085,365.572Z" transform="translate(-379.459 -259.515)" fill="#fbbebe"/>
    <path id="Path_32" data-name="Path 32" d="M604.256,366.189a41.507,41.507,0,0,0-7.758-.442,1.674,1.674,0,0,1-1.043-.272c-.525-.45-.3-1.292-.038-1.931l1.255-3.023a4.4,4.4,0,0,1,1.005-1.67,4.263,4.263,0,0,1,2.384-.809,21.6,21.6,0,0,1,8.26.321,9.88,9.88,0,0,1,6.379,4.943,3.364,3.364,0,0,1,.068,3.306c-.982,1.41-3.186,2.985-4.829,2.214C607.97,367.893,606.463,366.658,604.256,366.189Z" transform="translate(-399.342 -254.74)" fill="#ff6f61"/>
    <path id="Path_33" data-name="Path 33" d="M597.792,232.582a11.155,11.155,0,0,0-6.159,1.776,13.509,13.509,0,0,0-13.264-3.106,7.72,7.72,0,1,0-8.918,8.933,13.509,13.509,0,1,0,25.93,7.592,12.093,12.093,0,0,0,2.422.246c5.328,0,9.651-3.458,9.651-7.72S603.112,232.582,597.792,232.582Z" transform="translate(-379.376 -172.034)" fill="#3f3d56"/>
    <path id="Path_34" data-name="Path 34" d="M653.191,270.951a11.752,11.752,0,0,1-2.422-.246A13.44,13.44,0,0,1,649,274.593a12.133,12.133,0,0,0,2.267.219c4.98,0,9.069-3.023,9.594-6.893A10.646,10.646,0,0,1,653.191,270.951Z" transform="translate(-432.852 -198.824)" opacity="0.1"/>
    <path id="Path_35" data-name="Path 35" d="M584.281,257.894a13.528,13.528,0,0,1-12.916-17.488,7.72,7.72,0,0,1-6.382-7.6,7.589,7.589,0,0,1,.125-1.383,7.72,7.72,0,0,0,4.331,12.848,13.509,13.509,0,1,0,25.806,8A13.483,13.483,0,0,1,584.281,257.894Z" transform="translate(-379.382 -176.117)" opacity="0.1"/>
    <rect id="Rectangle_1" data-name="Rectangle 1" width="0.253" height="2.093" rx="0.127" transform="matrix(0.814, 0.581, -0.581, 0.814, 254.045, 104.303)" fill="#3a3768"/>
    <rect id="Rectangle_2" data-name="Rectangle 2" width="0.144" height="0.688" rx="0.072" transform="matrix(0.814, 0.581, -0.581, 0.814, 248.13, 98.065)" fill="#3a3768"/>
    <rect id="Rectangle_3" data-name="Rectangle 3" width="0.159" height="1.198" rx="0.079" transform="matrix(0.814, 0.581, -0.581, 0.814, 247.388, 99.093)" fill="#3a3768"/>
    <rect id="Rectangle_4" data-name="Rectangle 4" width="0.151" height="1.209" rx="0.076" transform="matrix(0.814, 0.581, -0.581, 0.814, 246.454, 100.413)" fill="#3a3768"/>
    <rect id="Rectangle_5" data-name="Rectangle 5" width="8.495" height="17.265" rx="2.52" transform="matrix(0.814, 0.581, -0.581, 0.814, 249.869, 96.965)" fill="#3a3768"/>
    <rect id="Rectangle_6" data-name="Rectangle 6" width="8.495" height="17.265" rx="2.52" transform="matrix(0.814, 0.581, -0.581, 0.814, 249.869, 96.965)" opacity="0.1"/>
    <rect id="Rectangle_7" data-name="Rectangle 7" width="8.495" height="17.265" rx="2.52" transform="matrix(0.814, 0.581, -0.581, 0.814, 249.519, 96.26)" fill="#3a3768"/>
    <path id="Path_36" data-name="Path 36" d="M728.01,345.962l-.79-.567-.068.094a.552.552,0,0,1-.756.132l-2.524-1.8a.556.556,0,0,1-.129-.775l.068-.094-.756-.529a.673.673,0,0,0-.941.155L713.393,354.8a.676.676,0,0,0,.155.941l4.965,3.541a.673.673,0,0,0,.941-.159l8.721-12.221a.673.673,0,0,0-.166-.941Z" transform="translate(-472.834 -245.094)" fill="#ffd200"/>
    <rect id="Rectangle_8" data-name="Rectangle 8" width="1.187" height="0.242" rx="0.121" transform="matrix(0.814, 0.581, -0.581, 0.814, 252.007, 98.674)" fill="#e6e8ec"/>
    <circle id="Ellipse_5" data-name="Ellipse 5" cx="0.136" cy="0.136" r="0.136" transform="translate(253.007 99.519)" fill="#e6e8ec"/>
    <path id="Path_37" data-name="Path 37" d="M705.318,99A25.318,25.318,0,0,0,680,124.318c0,13.982,26.527,60.287,26.527,60.287s24.109-46.287,24.109-60.287A25.318,25.318,0,0,0,705.318,99Zm0,42.2a5.495,5.495,0,1,1,0,.011Z" transform="translate(-452.138 -93.736)" fill="#ffd200"/>
    <path id="Path_38" data-name="Path 38" d="M705.318,99A25.318,25.318,0,0,0,680,124.318c0,13.982,26.527,60.287,26.527,60.287s24.109-46.287,24.109-60.287A25.318,25.318,0,0,0,705.318,99Zm0,42.2a5.495,5.495,0,1,1,0,.011Z" transform="translate(-452.138 -93.736)" opacity="0.1"/>
    <path id="Path_39" data-name="Path 39" d="M705.318,85.07A25.318,25.318,0,0,0,680,110.388c0,13.982,26.527,65.562,26.527,65.562s24.109-51.573,24.109-65.559A25.319,25.319,0,0,0,705.314,85.07Zm0,42.2a13.264,13.264,0,1,1,13.264-13.264,13.264,13.264,0,0,1-13.264,13.264Z" transform="translate(-452.138 -85.07)" fill="#ffd200"/>
  </g>
</svg>
