<svg xmlns="http://www.w3.org/2000/svg" xmlns:xlink="http://www.w3.org/1999/xlink" width="200.156" height="155.552" viewBox="0 0 200.156 155.552">
  <defs>
    <linearGradient id="linear-gradient" x1="0.5" y1="1" x2="0.5" gradientUnits="objectBoundingBox">
      <stop offset="0" stop-color="gray" stop-opacity="0.251"/>
      <stop offset="0.54" stop-color="gray" stop-opacity="0.122"/>
      <stop offset="1" stop-color="gray" stop-opacity="0.102"/>
    </linearGradient>
    <linearGradient id="linear-gradient-2" x1="0.5" x2="0.5" xlink:href="#linear-gradient"/>
    <linearGradient id="linear-gradient-3" x1="0.5" x2="0.5" xlink:href="#linear-gradient"/>
    <linearGradient id="linear-gradient-4" x1="1.105" y1="1.163" x2="1.105" y2="0.163" xlink:href="#linear-gradient"/>
    <linearGradient id="linear-gradient-5" x1="0.5" x2="0.5" xlink:href="#linear-gradient"/>
    <linearGradient id="linear-gradient-6" x1="0.5" x2="0.5" xlink:href="#linear-gradient"/>
    <linearGradient id="linear-gradient-8" x1="0.5" x2="0.5" xlink:href="#linear-gradient"/>
    <linearGradient id="linear-gradient-9" x1="0.5" x2="0.5" xlink:href="#linear-gradient"/>
    <linearGradient id="linear-gradient-10" x1="7991.716" x2="7991.716" xlink:href="#linear-gradient"/>
  </defs>
  <g id="Group_81" data-name="Group 81" transform="translate(-733.844 -61)">
    <g id="Group_79" data-name="Group 79" transform="translate(733.844 61)">
      <g id="undraw_cloud_sync_2aph" transform="translate(20.399 6.789)">
        <g id="Group_3" data-name="Group 3" transform="translate(104.486 14.195)" opacity="0.8">
          <rect id="Rectangle_12" data-name="Rectangle 12" width="75.271" height="84.01" fill="url(#linear-gradient)"/>
        </g>
        <rect id="Rectangle_13" data-name="Rectangle 13" width="72.781" height="26.091" transform="translate(105.731 70.284)" fill="#fff"/>
        <circle id="Ellipse_8" data-name="Ellipse 8" cx="6.806" cy="6.806" r="6.806" transform="translate(161.403 76.266)" fill="#0093ff"/>
        <rect id="Rectangle_21" data-name="Rectangle 21" width="72.781" height="26.091" transform="translate(105.731 43.179)" fill="#fff"/>
        <circle id="Ellipse_9" data-name="Ellipse 9" cx="6.806" cy="6.806" r="6.806" transform="translate(161.403 49.161)" fill="#ff9300"/>
        <rect id="Rectangle_29" data-name="Rectangle 29" width="72.781" height="26.091" transform="translate(105.731 16.074)" fill="#fff"/>
        <circle id="Ellipse_10" data-name="Ellipse 10" cx="7.336" cy="7.336" r="7.336" transform="translate(160.873 21.526)" fill="none"/>
        <circle id="Ellipse_11" data-name="Ellipse 11" cx="7.336" cy="7.336" r="7.336" transform="translate(160.873 48.814)" fill="none"/>
        <circle id="Ellipse_12" data-name="Ellipse 12" cx="7.336" cy="7.336" r="7.336" transform="translate(160.873 75.917)" fill="#f55f44"/>
        <circle id="Ellipse_13" data-name="Ellipse 13" cx="6.806" cy="6.806" r="6.806" transform="translate(161.403 22.056)" fill="#3ad29f"/>
        <path id="Path_75" data-name="Path 75" d="M295.058,561.049a13.973,13.973,0,0,0-27.7-2.6L224.41,557.28l.471,7.38s-6.123,14.13,26.06,17.9v14.288h37.208V573.1A13.965,13.965,0,0,0,295.058,561.049Z" transform="translate(-211.805 -451.026)" fill="url(#linear-gradient-2)"/>
        <path id="Path_76" data-name="Path 76" d="M232.123,606.765s-5.863,13.531,24.959,17.141v13.683h35.632V601.356L231.67,599.71Z" transform="translate(-217.572 -492.833)" fill="#fbbebe"/>
        <path id="Path_77" data-name="Path 77" d="M199.883,272.14h0a6.569,6.569,0,0,1-9.034,2.057L171.717,261.59a6.569,6.569,0,0,1-2.057-9.034h0a6.569,6.569,0,0,1,9.034-2.057l19.133,12.607a6.569,6.569,0,0,1,2.057,9.034Z" transform="translate(-167.524 -214.671)" fill="url(#linear-gradient-3)"/>
        <path id="Path_78" data-name="Path 78" d="M203.212,274.914h0a6.108,6.108,0,0,1-8.4,1.909L177.028,265.1a6.108,6.108,0,0,1-1.909-8.4h0a6.108,6.108,0,0,1,8.4-1.909L201.3,266.516A6.108,6.108,0,0,1,203.212,274.914Z" transform="translate(-171.916 -218.134)" fill="#fbbebe"/>
        <circle id="Ellipse_14" data-name="Ellipse 14" cx="13.381" cy="13.381" r="13.381" transform="translate(54.995 97.096)" fill="#fbbebe"/>
        <rect id="Rectangle_37" data-name="Rectangle 37" width="55.475" height="100.135" rx="10.24" transform="translate(12.597 22.219)" fill="url(#linear-gradient-4)"/>
        <rect id="Rectangle_38" data-name="Rectangle 38" width="53.977" height="97.43" rx="13.64" transform="translate(13.347 23.573)" fill="#fff"/>
        <path id="Path_79" data-name="Path 79" d="M273.748,206.638a4.376,4.376,0,0,1-4.32,3.722H250.793a4.376,4.376,0,0,1-4.32-3.722H236.6a2.057,2.057,0,0,0-2.057,2.057v88.443A2.057,2.057,0,0,0,236.6,299.2h47.174a2.057,2.057,0,0,0,2.057-2.057V208.687a2.057,2.057,0,0,0-2.057-2.057Z" transform="translate(-219.851 -180.622)" fill="#2942f8"/>
        <rect id="Rectangle_39" data-name="Rectangle 39" width="12.029" height="0.751" rx="0.375" transform="translate(34.398 27.181)" fill="#dbdbdb"/>
        <circle id="Ellipse_15" data-name="Ellipse 15" cx="0.451" cy="0.451" r="0.451" transform="translate(48.531 27.031)" fill="#dbdbdb"/>
        <path id="Path_80" data-name="Path 80" d="M473.656,445.206h0c-3.882.9-6.548-1.634-7.447-5.518l-8.918-33.131a7.266,7.266,0,0,1,5.427-8.692h0a7.266,7.266,0,0,1,8.688,5.437l7.281,33.981C479.585,441.158,477.538,444.309,473.656,445.206Z" transform="translate(-396.629 -332.37)" fill="url(#linear-gradient-5)"/>
        <rect id="Rectangle_40" data-name="Rectangle 40" width="12.179" height="48.628" rx="6.09" transform="translate(60.534 68.544) rotate(-13.01)" fill="#fbbebe"/>
        <path id="Path_81" data-name="Path 81" d="M188.686,462h0a6.491,6.491,0,0,1-8.925,2.029l-12.829-8.3A6.491,6.491,0,0,1,164.9,446.8h0a6.491,6.491,0,0,1,8.925-2.029l12.829,8.3A6.491,6.491,0,0,1,188.686,462Z" transform="translate(-163.755 -368.986)" fill="url(#linear-gradient-6)"/>
        <path id="Path_82" data-name="Path 82" d="M191.477,556.74h0a6.548,6.548,0,0,1-9,2.047l-7.947-5.8a6.548,6.548,0,0,1-2.047-9h0a6.548,6.548,0,0,1,9-2.047l7.947,5.8a6.548,6.548,0,0,1,2.047,9Z" transform="translate(-169.765 -446.154)" fill="url(#linear-gradient)"/>
        <g id="Group_22" data-name="Group 22" transform="translate(24.86 56.812)" opacity="0.5">
          <circle id="Ellipse_16" data-name="Ellipse 16" cx="15.475" cy="15.475" r="15.475" fill="url(#linear-gradient-8)"/>
        </g>
        <circle id="Ellipse_17" data-name="Ellipse 17" cx="14.566" cy="14.566" r="14.566" transform="translate(25.769 57.722)" fill="#69f0ae"/>
        <path id="Path_83" data-name="Path 83" d="M156.585,318.324l5.462,5.005,7.738-11.379,2.732,2.275-10.47,13.656-7.738-8.649Z" transform="translate(-122.572 -247.978)" fill="#fff"/>
        <path id="Path_84" data-name="Path 84" d="M193.583,558.762h0a6.108,6.108,0,0,1-8.4,1.909l-7.406-5.4a6.108,6.108,0,0,1-1.909-8.4h0a6.108,6.108,0,0,1,8.4-1.909l7.406,5.4A6.108,6.108,0,0,1,193.583,558.762Z" transform="translate(-172.512 -448.608)" fill="#fbbebe"/>
        <path id="Path_85" data-name="Path 85" d="M190.919,463.944h0a6.108,6.108,0,0,1-8.4,1.909l-12.072-7.818a6.108,6.108,0,0,1-1.909-8.4h0a6.108,6.108,0,0,1,8.408-1.9l12.072,7.818a6.108,6.108,0,0,1,1.9,8.392Z" transform="translate(-166.69 -371.38)" fill="#fbbebe"/>
        <path id="Path_86" data-name="Path 86" d="M191.392,368.008h0a6.52,6.52,0,0,1-8.966,2.039l-16.253-10.587a6.52,6.52,0,0,1-2.039-8.966h0a6.52,6.52,0,0,1,8.966-2.039l16.253,10.587A6.52,6.52,0,0,1,191.392,368.008Z" transform="translate(-163.142 -292.48)" fill="url(#linear-gradient-9)"/>
        <path id="Path_87" data-name="Path 87" d="M194.1,370.326h0a6.108,6.108,0,0,1-8.4,1.909l-15.224-9.916a6.108,6.108,0,0,1-1.909-8.4h0a6.108,6.108,0,0,1,8.4-1.909l15.224,9.916a6.108,6.108,0,0,1,1.905,8.4Z" transform="translate(-166.714 -295.354)" fill="#fbbebe"/>
        <path id="Path_88" data-name="Path 88" d="M207.36,19.516V1h81.469V12.109" transform="translate(-164.708 -1)" fill="none" stroke="#3ad29f" stroke-miterlimit="10" stroke-width="2" stroke-dasharray="12"/>
        <path id="Path_89" data-name="Path 89" d="M441.36,514.516h35.18V496" transform="translate(-350.567 -394.164)" fill="none" stroke="#3ad29f" stroke-miterlimit="10" stroke-width="2" stroke-dasharray="12"/>
      </g>
      <g id="undraw_Jogging_t14q">
        <path id="Path_162" data-name="Path 162" d="M248.392,212.611a2.238,2.238,0,0,0-2.921.272,2.29,2.29,0,0,0,.091,3.191l2.794,2.777a.465.465,0,0,0,.66,0l2.786-2.8a2.29,2.29,0,0,0,.074-3.191,2.247,2.247,0,0,0-2.925-.255A.469.469,0,0,1,248.392,212.611Z" transform="translate(-234.549 -183.177)" fill="#ffd200"/>
        <path id="Path_163" data-name="Path 163" d="M122.392,487.611a2.238,2.238,0,0,0-2.921.272,2.29,2.29,0,0,0,.091,3.191l2.794,2.777a.465.465,0,0,0,.66,0l2.786-2.8a2.29,2.29,0,0,0,.074-3.191,2.247,2.247,0,0,0-2.925-.255A.469.469,0,0,1,122.392,487.611Z" transform="translate(-26.668 -447.068)" fill="#f55f44"/>
        <rect id="Rectangle_58" data-name="Rectangle 58" width="0.617" height="3.497" transform="translate(118.334 13.761)" fill="#3ad29f"/>
        <rect id="Rectangle_59" data-name="Rectangle 59" width="0.617" height="3.497" transform="translate(120.391 15.201) rotate(90)" fill="#3ad29f"/>
        <rect id="Rectangle_60" data-name="Rectangle 60" width="0.617" height="3.497" transform="translate(109.487 83.709)" fill="#3ad29f"/>
        <rect id="Rectangle_61" data-name="Rectangle 61" width="0.617" height="3.497" transform="translate(111.545 85.149) rotate(90)" fill="#3ad29f"/>
        <rect id="Rectangle_62" data-name="Rectangle 62" width="0.617" height="3.497" transform="translate(4.153 98.522)" fill="#3ad29f"/>
        <rect id="Rectangle_63" data-name="Rectangle 63" width="0.617" height="3.497" transform="translate(6.211 99.962) rotate(90)" fill="#3ad29f"/>
        <rect id="Rectangle_64" data-name="Rectangle 64" width="0.617" height="3.497" transform="translate(9.914 13.761)" fill="#3ad29f"/>
        <rect id="Rectangle_65" data-name="Rectangle 65" width="0.617" height="3.497" transform="translate(11.971 15.201) rotate(90)" fill="#3ad29f"/>
        <rect id="Rectangle_66" data-name="Rectangle 66" width="0.617" height="3.497" transform="translate(37.07 19.316)" fill="#3ad29f"/>
        <rect id="Rectangle_67" data-name="Rectangle 67" width="0.617" height="3.497" transform="translate(39.128 20.756) rotate(90)" fill="#3ad29f"/>
        <path id="Path_165" data-name="Path 165" d="M302.24,345.592a.755.755,0,0,1-.422-.913.38.38,0,0,0,.016-.084h0a.379.379,0,0,0-.681-.251h0a.377.377,0,0,0-.041.074.757.757,0,0,1-.913.422.409.409,0,0,0-.084-.016h0a.379.379,0,0,0-.251.681h0a.325.325,0,0,0,.074.041.759.759,0,0,1,.422.915.278.278,0,0,0-.016.082h0a.379.379,0,0,0,.681.251h0a.43.43,0,0,0,.041-.074.755.755,0,0,1,.913-.411.382.382,0,0,0,.084.016h0a.381.381,0,0,0,.251-.683h0A.428.428,0,0,0,302.24,345.592Z" transform="translate(-299.711 -291.73)" fill="#f55f44"/>
        <path id="Path_166" data-name="Path 166" d="M869.279,65.592a.755.755,0,0,1-.411-.913.382.382,0,0,0,.016-.084h0a.379.379,0,0,0-.681-.251h0a.374.374,0,0,0-.041.074.757.757,0,0,1-.913.411.411.411,0,0,0-.084-.016h0a.379.379,0,0,0-.251.681h0a.326.326,0,0,0,.074.041.759.759,0,0,1,.422.915.275.275,0,0,0-.016.082h0a.379.379,0,0,0,.681.251h0a.43.43,0,0,0,.041-.074.755.755,0,0,1,.913-.411.383.383,0,0,0,.084.016h0a.381.381,0,0,0,.251-.683h0A.429.429,0,0,0,869.279,65.592Z" transform="translate(-752.571 46.08)" fill="#3ad29f"/>
        <path id="Path_167" data-name="Path 167" d="M517.279,81.592a.755.755,0,0,1-.411-.913.382.382,0,0,0,.016-.084h0a.379.379,0,0,0-.681-.251h0a.371.371,0,0,0-.041.074.757.757,0,0,1-.913.411.41.41,0,0,0-.084-.016h0a.379.379,0,0,0-.251.681h0a.326.326,0,0,0,.074.041.759.759,0,0,1,.422.915.277.277,0,0,0-.016.082h0a.379.379,0,0,0,.681.251h0a.437.437,0,0,0,.041-.074.755.755,0,0,1,.913-.411.382.382,0,0,0,.084.016h0a.381.381,0,0,0,.251-.683h0A.425.425,0,0,0,517.279,81.592Z" transform="translate(-467.845 -80.191)" fill="#f55f44"/>
        <path id="Path_168" data-name="Path 168" d="M332.24,455.592a.755.755,0,0,1-.422-.913.384.384,0,0,0,.016-.084h0a.379.379,0,0,0-.681-.251h0a.374.374,0,0,0-.041.074.757.757,0,0,1-.913.422.409.409,0,0,0-.084-.016h0a.379.379,0,0,0-.251.681h0a.325.325,0,0,0,.074.041.759.759,0,0,1,.422.916.278.278,0,0,0-.016.082h0a.379.379,0,0,0,.681.251h0a.429.429,0,0,0,.041-.074.755.755,0,0,1,.913-.411.383.383,0,0,0,.084.016h0a.381.381,0,0,0,.251-.683h0a.425.425,0,0,0-.074-.049Z" transform="translate(-318.396 -381.569)" fill="#f55f44"/>
        <path id="Path_169" data-name="Path 169" d="M774.279,327.592a.755.755,0,0,1-.411-.913.382.382,0,0,0,.016-.084h0a.379.379,0,0,0-.681-.251h0a.375.375,0,0,0-.041.074.757.757,0,0,1-.913.422.41.41,0,0,0-.084-.016h0a.379.379,0,0,0-.251.681h0a.326.326,0,0,0,.074.041.759.759,0,0,1,.422.915.275.275,0,0,0-.016.082h0a.379.379,0,0,0,.681.251h0a.426.426,0,0,0,.041-.074.755.755,0,0,1,.913-.411.384.384,0,0,0,.084.016h0a.381.381,0,0,0,.251-.683h0A.433.433,0,0,0,774.279,327.592Z" transform="translate(-653.045 -273.73)" fill="#f55f44"/>
        <path id="Path_170" data-name="Path 170" d="M1070.279,223.592a.755.755,0,0,1-.411-.913.375.375,0,0,0,.016-.084h0a.379.379,0,0,0-.681-.251h0a.367.367,0,0,0-.041.074.757.757,0,0,1-.914.422.41.41,0,0,0-.084-.016h0a.379.379,0,0,0-.251.681h0a.326.326,0,0,0,.074.041.759.759,0,0,1,.411.916.279.279,0,0,0-.016.082h0a.379.379,0,0,0,.681.251h0a.422.422,0,0,0,.041-.074.755.755,0,0,1,.913-.411.383.383,0,0,0,.084.016h0a.381.381,0,0,0,.251-.683h0a.43.43,0,0,0-.074-.049Z" transform="translate(-956.245 -192.772)" fill="#f55f44"/>
        <path id="Path_171" data-name="Path 171" d="M749.73,402.78l.033.1A.548.548,0,0,1,749.73,402.78Z" transform="translate(-635.546 -334.562)" fill="url(#linear-gradient-10)"/>
        <path id="Path_196" data-name="Path 196" d="M290.072,788c-.237.607-.165,1.31.823,1.915,2.29,1.409,20.789,5.814,20.789,5.814a9.167,9.167,0,0,0,.5-.856,9.487,9.487,0,0,1-.681,1.21s-18.5-4.409-20.791-5.82A1.486,1.486,0,0,1,290.072,788Z" transform="translate(-270.223 -640.531)" fill="#fff" opacity="0.5"/>
      </g>
      <g id="pasta" transform="translate(183.854 31.376)">
        <path id="Path_415" data-name="Path 415" d="M19.406,10.642a.413.413,0,0,0-.123-.291l-.235-.235a.436.436,0,0,0-.292-.123.348.348,0,0,0-.25.1l-1.572,1.628c-.029,0-.059,0-.089-.005a2.193,2.193,0,0,0-4.286,0,2.125,2.125,0,0,0-1.989,2.048h-.454a.118.118,0,0,0-.118.118,4.707,4.707,0,0,0,3.356,4.5,1.6,1.6,0,0,0-.271.894.118.118,0,0,0,.118.118h3a.118.118,0,0,0,.118-.118,1.6,1.6,0,0,0-.27-.894,4.707,4.707,0,0,0,3.355-4.5.118.118,0,0,0-.118-.118h-.454a2.122,2.122,0,0,0-.924-1.684L19.3,10.892A.348.348,0,0,0,19.406,10.642Zm-4.7-.414a1.96,1.96,0,0,1,1.9,1.491,2.117,2.117,0,0,0-.546.1,1.4,1.4,0,0,0-2.707,0,2.116,2.116,0,0,0-.548-.1A1.963,1.963,0,0,1,14.7,10.228Zm.79,1.872a.84.84,0,0,0-1.577,0,2.125,2.125,0,0,0-.345-.2,1.168,1.168,0,0,1,2.266,0A2.125,2.125,0,0,0,15.493,12.1Zm-.2.159a2.127,2.127,0,0,0-.591.889,2.127,2.127,0,0,0-.59-.887.605.605,0,0,1,1.181,0Zm-2.6-.31a1.891,1.891,0,0,1,1.888,1.82H14.1a1.435,1.435,0,0,0-2.867,0h-.429A1.891,1.891,0,0,1,12.694,11.949Zm.671,1.82a.7.7,0,0,0-1.394,0h-.5a1.2,1.2,0,0,1,2.4,0Zm-.239,0H12.21a.463.463,0,0,1,.917,0Zm2.954,5.4H13.325a1.366,1.366,0,0,1,.267-.7s0,0,0-.007a4.683,4.683,0,0,0,2.214,0A1.363,1.363,0,0,1,16.081,19.164ZM14.7,18.35a4.474,4.474,0,0,1-4.343-3.419l.533.336a.118.118,0,0,0,.125,0l.684-.431.684.431a.117.117,0,0,0,.125,0l.684-.431.684.431a.118.118,0,0,0,.125,0l.684-.431.684.431a.118.118,0,0,0,.125,0l.685-.431.684.431a.118.118,0,0,0,.125,0l.685-.431.685.431a.117.117,0,0,0,.125,0l.562-.353A4.474,4.474,0,0,1,14.7,18.35Zm4.41-3.753h0l-.685.431-.685-.431a.117.117,0,0,0-.125,0l-.685.431-.684-.431a.118.118,0,0,0-.125,0l-.685.431-.684-.431a.118.118,0,0,0-.125,0l-.684.431-.684-.431a.118.118,0,0,0-.125,0l-.684.431-.684-.431a.118.118,0,0,0-.125,0l-.684.431-.66-.416A4.46,4.46,0,0,1,10.237,14h8.933A4.461,4.461,0,0,1,19.113,14.6Zm-1.7-.828a.7.7,0,0,0-1.394,0h-.5a1.2,1.2,0,0,1,2.4,0Zm-.239,0h-.917a.463.463,0,0,1,.917,0Zm1.43,0h-.455a1.435,1.435,0,0,0-2.867,0h-.455a1.889,1.889,0,0,1,3.776,0Zm.544-3.05L17.7,11.958a2.112,2.112,0,0,0-.485-.182l1.462-1.515a.114.114,0,0,1,.082-.033.178.178,0,0,1,.124.054l.235.235a.177.177,0,0,1,.054.124A.113.113,0,0,1,19.144,10.718Z" transform="translate(-10 -9.993)" fill="#fff" stroke="#fff" stroke-width="1"/>
      </g>
      <g id="noun_Pizza_2291140" transform="translate(183.271 57.604)">
        <path id="Path_403" data-name="Path 403" d="M62.352,24.849a.581.581,0,0,0-.994-.044l-1.8,2.7a.15.15,0,0,0,.125.234h.011l3.179-.23a.581.581,0,0,0,.468-.859Zm.723,2.218a.276.276,0,0,1-.226.145l-2.873.208,1.632-2.448a.279.279,0,0,1,.233-.125h.013a.279.279,0,0,1,.234.146l.987,1.8a.276.276,0,0,1,0,.269Z" transform="translate(-52.781 -23.091)" fill="#fff" stroke="#fff" stroke-width="1"/>
        <path id="Path_404" data-name="Path 404" d="M25.1,20.013H20.214l2.315-4.3a.15.15,0,0,0-.061-.2,5.284,5.284,0,1,0,2.779,4.653.15.15,0,0,0-.15-.15Zm-5.134,5.134a4.983,4.983,0,1,1,2.229-9.44l-2.362,4.386a.151.151,0,0,0,.133.222h4.981a4.989,4.989,0,0,1-4.981,4.833Z" transform="translate(-14.677 -14.878)" fill="#fff" stroke="#fff" stroke-width="1"/>
        <path id="Path_405" data-name="Path 405" d="M49.555,68.388a.766.766,0,0,0,1.531,0,.15.15,0,1,0-.3,0,.464.464,0,1,1-.341-.448.15.15,0,0,0,.08-.29.766.766,0,0,0-.969.738Z" transform="translate(-44.306 -59.685)" fill="#fff" stroke="#fff" stroke-width="1"/>
        <path id="Path_406" data-name="Path 406" d="M66.772,57.728a.151.151,0,0,0,.053-.206.464.464,0,1,1,.521.212.151.151,0,0,0,.04.3.156.156,0,0,0,.04-.005.766.766,0,1,0-.86-.35A.151.151,0,0,0,66.772,57.728Z" transform="translate(-58.668 -50.254)" fill="#fff" stroke="#fff" stroke-width="1"/>
        <path id="Path_407" data-name="Path 407" d="M33.454,47.474a.766.766,0,0,0-.3,1.5l.029,0a.151.151,0,0,0,.029-.3.464.464,0,1,1,.506-.248.15.15,0,0,0,.269.135.766.766,0,0,0-.536-1.094Z" transform="translate(-29.852 -42.556)" fill="#fff" stroke="#fff" stroke-width="1"/>
        <path id="Path_408" data-name="Path 408" d="M45.477,24a.766.766,0,0,0,.719-1.026.151.151,0,1,0-.283.1.464.464,0,1,1-.473-.305.151.151,0,1,0-.024-.3A.766.766,0,0,0,45.477,24Z" transform="translate(-40.191 -21.327)" fill="#fff" stroke="#fff" stroke-width="1"/>
        <path id="Path_409" data-name="Path 409" d="M27.721,33.024a.672.672,0,1,0-1.342.063.15.15,0,1,0,.3-.014.372.372,0,0,1,.353-.388.362.362,0,0,1,.267.1.371.371,0,0,1-.331.636.15.15,0,1,0-.066.294.669.669,0,0,0,.147.016h.032a.672.672,0,0,0,.64-.7Z" transform="translate(-24.617 -29.75)" fill="#fff" stroke="#fff" stroke-width="1"/>
        <path id="Path_410" data-name="Path 410" d="M33.981,66.479a.7.7,0,0,0-1.276.187.669.669,0,0,0,.067.512.681.681,0,0,0,.592.335.707.707,0,0,0,.354-.1.15.15,0,1,0-.15-.261.391.391,0,0,1-.536-.131A.37.37,0,0,1,33,66.744a.4.4,0,0,1,.189-.244.392.392,0,0,1,.536.131.366.366,0,0,1,.038.093.151.151,0,1,0,.292-.075A.668.668,0,0,0,33.981,66.479Z" transform="translate(-29.972 -58.432)" fill="#fff" stroke="#fff" stroke-width="1"/>
        <path id="Path_411" data-name="Path 411" d="M21.182,48.167a.469.469,0,1,0,.469.469A.469.469,0,0,0,21.182,48.167Zm0,.638a.168.168,0,1,1,.168-.168.168.168,0,0,1-.168.168Z" transform="translate(-19.805 -43.158)" fill="#fff" stroke="#fff" stroke-width="1"/>
        <path id="Path_412" data-name="Path 412" d="M48.238,57.556a.469.469,0,1,0,.469-.469A.469.469,0,0,0,48.238,57.556Zm.469-.168a.168.168,0,1,1-.168.168A.168.168,0,0,1,48.708,57.388Z" transform="translate(-43.188 -50.736)" fill="#fff" stroke="#fff" stroke-width="1"/>
        <path id="Path_413" data-name="Path 413" d="M43.067,37.693a.469.469,0,1,0,.47.469.469.469,0,0,0-.47-.469Zm0,.638a.168.168,0,1,1,.169-.168A.168.168,0,0,1,43.067,38.331Z" transform="translate(-38.396 -34.26)" fill="#fff" stroke="#fff" stroke-width="1"/>
      </g>
      <g id="noun_Burger_2401940" transform="translate(184.138 84.967)">
        <g id="Group_46" data-name="Group 46" transform="translate(0 0)">
          <g id="Group_45" data-name="Group 45" transform="translate(0 0)">
            <g id="Group_44" data-name="Group 44">
              <g id="Group_36" data-name="Group 36" transform="translate(0.651)">
                <path id="Path_386" data-name="Path 386" d="M113.684,49.907H106.13a.13.13,0,0,1-.13-.13v-.625A3.155,3.155,0,0,1,109.152,46h1.511a3.155,3.155,0,0,1,3.152,3.152v.625A.13.13,0,0,1,113.684,49.907Zm-7.424-.26h7.294v-.495a2.9,2.9,0,0,0-2.891-2.891h-1.511a2.9,2.9,0,0,0-2.891,2.891Z" transform="translate(-106 -46)" fill="#fff" stroke="#fff" stroke-width="1"/>
              </g>
              <g id="Group_37" data-name="Group 37" transform="translate(0.651 7.294)">
                <path id="Path_387" data-name="Path 387" d="M111.092,328.852h-2.37A2.725,2.725,0,0,1,106,326.13a.13.13,0,0,1,.13-.13h7.554a.13.13,0,0,1,.13.13A2.725,2.725,0,0,1,111.092,328.852Zm-4.829-2.592a2.465,2.465,0,0,0,2.458,2.331h2.37a2.465,2.465,0,0,0,2.458-2.331Z" transform="translate(-106 -326)" fill="#fff" stroke="#fff" stroke-width="1"/>
              </g>
              <g id="Group_38" data-name="Group 38" transform="translate(0 5.731)">
                <path id="Path_388" data-name="Path 388" d="M89.6,267.042H81.521a.521.521,0,1,1,0-1.042H89.6a.521.521,0,1,1,0,1.042Zm-8.075-.781a.26.26,0,1,0,0,.521H89.6a.26.26,0,1,0,0-.521Z" transform="translate(-81 -266)" fill="#fff" stroke="#fff" stroke-width="1"/>
              </g>
              <g id="Group_39" data-name="Group 39" transform="translate(0.651 4.457)">
                <path id="Path_389" data-name="Path 389" d="M107.549,217.832a.8.8,0,0,1-.567-.27.542.542,0,0,0-.4-.193.551.551,0,0,0-.349.183.13.13,0,0,1-.2-.165.81.81,0,0,1,.538-.279.787.787,0,0,1,.6.269.542.542,0,0,0,.4.193.55.55,0,0,0,.349-.183.13.13,0,0,1,.2.165.81.81,0,0,1-.538.279Z" transform="translate(-106 -217.108)" fill="#fff" stroke="#fff" stroke-width="1"/>
              </g>
              <g id="Group_40" data-name="Group 40" transform="translate(2.54 4.457)">
                <path id="Path_390" data-name="Path 390" d="M180.049,217.832a.8.8,0,0,1-.567-.27.542.542,0,0,0-.4-.193.551.551,0,0,0-.349.183.13.13,0,0,1-.2-.165.81.81,0,0,1,.538-.279.787.787,0,0,1,.6.269.542.542,0,0,0,.4.193.55.55,0,0,0,.349-.183.13.13,0,0,1,.2.165.81.81,0,0,1-.538.279Z" transform="translate(-178.5 -217.108)" fill="#fff" stroke="#fff" stroke-width="1"/>
              </g>
              <g id="Group_41" data-name="Group 41" transform="translate(4.428 4.457)">
                <path id="Path_391" data-name="Path 391" d="M252.549,217.833a.8.8,0,0,1-.567-.27.543.543,0,0,0-.4-.193.55.55,0,0,0-.349.183.13.13,0,0,1-.2-.165.81.81,0,0,1,.538-.279.788.788,0,0,1,.6.269.543.543,0,0,0,.4.193.55.55,0,0,0,.349-.183.13.13,0,0,1,.2.165.81.81,0,0,1-.538.279Z" transform="translate(-251 -217.109)" fill="#fff" stroke="#fff" stroke-width="1"/>
              </g>
              <g id="Group_42" data-name="Group 42" transform="translate(6.317 4.457)">
                <path id="Path_392" data-name="Path 392" d="M325.049,217.833a.8.8,0,0,1-.567-.27.543.543,0,0,0-.4-.193.55.55,0,0,0-.349.183.13.13,0,0,1-.2-.165.81.81,0,0,1,.538-.279.788.788,0,0,1,.6.269.543.543,0,0,0,.4.193.55.55,0,0,0,.349-.183.13.13,0,0,1,.2.165.81.81,0,0,1-.538.279Z" transform="translate(-323.5 -217.109)" fill="#fff" stroke="#fff" stroke-width="1"/>
              </g>
            </g>
            <path id="Path_394" data-name="Path 394" d="M151.26,121.021h0a.26.26,0,0,1-.26-.26h0a.26.26,0,0,1,.26-.26h0a.26.26,0,0,1,.26.26h0A.26.26,0,0,1,151.26,121.021Z" transform="translate(-149.177 -118.559)" fill="#fff" stroke="#fff" stroke-width="1"/>
            <path id="Path_395" data-name="Path 395" d="M201.26,141.021h0a.26.26,0,0,1-.26-.26h0a.26.26,0,0,1,.26-.26h0a.261.261,0,0,1,.26.26h0A.26.26,0,0,1,201.26,141.021Z" transform="translate(-197.874 -138.038)" fill="#fff" stroke="#fff" stroke-width="1"/>
            <path id="Path_396" data-name="Path 396" d="M281.26,91.021h0a.26.26,0,0,1-.26-.26h0a.261.261,0,0,1,.26-.26h0a.261.261,0,0,1,.26.26h0A.261.261,0,0,1,281.26,91.021Z" transform="translate(-275.79 -89.341)" fill="#fff" stroke="#fff" stroke-width="1"/>
            <path id="Path_397" data-name="Path 397" d="M301.26,141.021h0a.261.261,0,0,1-.26-.26h0a.261.261,0,0,1,.26-.26h0a.261.261,0,0,1,.26.26h0A.26.26,0,0,1,301.26,141.021Z" transform="translate(-295.269 -138.038)" fill="#fff" stroke="#fff" stroke-width="1"/>
            <path id="Path_398" data-name="Path 398" d="M251.26,151.021h0a.26.26,0,0,1-.26-.26h0a.26.26,0,0,1,.26-.26h0a.261.261,0,0,1,.26.26h0A.26.26,0,0,1,251.26,151.021Z" transform="translate(-246.572 -147.778)" fill="#fff" stroke="#fff" stroke-width="1"/>
            <path id="Path_399" data-name="Path 399" d="M211.26,81.021h0a.26.26,0,0,1-.26-.26h0a.26.26,0,0,1,.26-.26h0a.26.26,0,0,1,.26.26h0A.26.26,0,0,1,211.26,81.021Z" transform="translate(-207.614 -79.601)" fill="#fff" stroke="#fff" stroke-width="1"/>
            <path id="Path_400" data-name="Path 400" d="M351.26,131.021h0a.261.261,0,0,1-.26-.26h0a.261.261,0,0,1,.26-.26h0a.26.26,0,0,1,.26.26h0A.26.26,0,0,1,351.26,131.021Z" transform="translate(-343.967 -128.299)" fill="#fff" stroke="#fff" stroke-width="1"/>
          </g>
        </g>
      </g>
      <g id="noun_Five_Stars_2188235" data-name="noun_Five Stars_2188235" transform="translate(136.024 33.123)">
        <g id="Group_49" data-name="Group 49" transform="translate(0 0)">
          <g id="Group_48" data-name="Group 48">
            <path id="Path_416" data-name="Path 416" d="M9.03,43.994a.509.509,0,0,1-.142.531L7.827,45.551,8.075,47a.465.465,0,0,1-.106.425.568.568,0,0,1-.389.177.656.656,0,0,1-.248-.071l-1.309-.672-1.274.672a.5.5,0,0,1-.637-.142A.465.465,0,0,1,4,46.967l.248-1.451L3.191,44.49a.509.509,0,0,1-.142-.531.609.609,0,0,1,.425-.354l1.451-.212.637-1.309a.552.552,0,0,1,.46-.283.474.474,0,0,1,.46.283l.637,1.309L8.57,43.6A.5.5,0,0,1,9.03,43.994Z" transform="translate(-3.022 -41.8)" fill="#ffd200"/>
            <path id="Path_417" data-name="Path 417" d="M47.465,43.994a.509.509,0,0,1-.142.531l-1.062,1.026L46.51,47a.465.465,0,0,1-.106.425.586.586,0,0,1-.425.177.656.656,0,0,1-.248-.071l-1.274-.672-1.309.672a.5.5,0,0,1-.637-.142.465.465,0,0,1-.106-.425l.248-1.451L41.591,44.49a.509.509,0,0,1-.142-.531.548.548,0,0,1,.425-.354l1.451-.212.637-1.309a.552.552,0,0,1,.46-.283.474.474,0,0,1,.46.283l.637,1.309,1.451.212A.579.579,0,0,1,47.465,43.994Z" transform="translate(-27.832 -41.8)" fill="#ffd200"/>
            <path id="Path_418" data-name="Path 418" d="M28.265,43.994a.509.509,0,0,1-.142.531l-1.062,1.026L27.31,47a.593.593,0,0,1-.106.425.568.568,0,0,1-.389.177.656.656,0,0,1-.248-.071l-1.309-.672-1.309.672a.5.5,0,0,1-.637-.142.465.465,0,0,1-.106-.425l.248-1.451L22.391,44.49a.509.509,0,0,1-.142-.531.548.548,0,0,1,.425-.354l1.451-.212.637-1.309a.515.515,0,0,1,.92,0l.637,1.309,1.451.212A.579.579,0,0,1,28.265,43.994Z" transform="translate(-15.427 -41.8)" fill="#ffd200"/>
            <path id="Path_419" data-name="Path 419" d="M66.73,43.994a.509.509,0,0,1-.142.531l-1.062,1.026L65.775,47a.465.465,0,0,1-.106.425.586.586,0,0,1-.425.177A.656.656,0,0,1,65,47.533l-1.309-.672-1.239.672a.5.5,0,0,1-.637-.142.465.465,0,0,1-.106-.425l.248-1.451L60.891,44.49a.509.509,0,0,1-.142-.531.548.548,0,0,1,.425-.354l1.451-.212.637-1.309a.51.51,0,0,1,.46-.283.474.474,0,0,1,.46.283l.637,1.309,1.451.212A.532.532,0,0,1,66.73,43.994Z" transform="translate(-40.302 -41.8)" fill="#ffd200"/>
            <path id="Path_420" data-name="Path 420" d="M85.824,44.525l-1.062,1.026L85.01,47a.465.465,0,0,1-.106.425.586.586,0,0,1-.425.177.656.656,0,0,1-.248-.071l-1.309-.672-1.274.672a.5.5,0,0,1-.637-.142.465.465,0,0,1-.106-.425l.248-1.451L80.091,44.49a.509.509,0,0,1-.142-.531.548.548,0,0,1,.425-.354l1.451-.212.637-1.309a.51.51,0,0,1,.46-.283.474.474,0,0,1,.46.283l.637,1.309,1.451.212a.548.548,0,0,1,.425.354A.473.473,0,0,1,85.824,44.525Z" transform="translate(-52.707 -41.8)" fill="#ffd200"/>
          </g>
        </g>
      </g>
      <g id="noun_Five_Stars_2188235-2" data-name="noun_Five Stars_2188235" transform="translate(136.024 87.024)">
        <g id="Group_49-2" data-name="Group 49" transform="translate(0 0)">
          <g id="Group_48-2" data-name="Group 48">
            <path id="Path_416-2" data-name="Path 416" d="M9.03,43.994a.509.509,0,0,1-.142.531L7.827,45.551,8.075,47a.465.465,0,0,1-.106.425.568.568,0,0,1-.389.177.656.656,0,0,1-.248-.071l-1.309-.672-1.274.672a.5.5,0,0,1-.637-.142A.465.465,0,0,1,4,46.967l.248-1.451L3.191,44.49a.509.509,0,0,1-.142-.531.609.609,0,0,1,.425-.354l1.451-.212.637-1.309a.552.552,0,0,1,.46-.283.474.474,0,0,1,.46.283l.637,1.309L8.57,43.6A.5.5,0,0,1,9.03,43.994Z" transform="translate(-3.022 -41.8)" fill="#ffd200"/>
            <path id="Path_417-2" data-name="Path 417" d="M47.465,43.994a.509.509,0,0,1-.142.531l-1.062,1.026L46.51,47a.465.465,0,0,1-.106.425.586.586,0,0,1-.425.177.656.656,0,0,1-.248-.071l-1.274-.672-1.309.672a.5.5,0,0,1-.637-.142.465.465,0,0,1-.106-.425l.248-1.451L41.591,44.49a.509.509,0,0,1-.142-.531.548.548,0,0,1,.425-.354l1.451-.212.637-1.309a.552.552,0,0,1,.46-.283.474.474,0,0,1,.46.283l.637,1.309,1.451.212A.579.579,0,0,1,47.465,43.994Z" transform="translate(-27.832 -41.8)" fill="#ffd200"/>
            <path id="Path_418-2" data-name="Path 418" d="M28.265,43.994a.509.509,0,0,1-.142.531l-1.062,1.026L27.31,47a.593.593,0,0,1-.106.425.568.568,0,0,1-.389.177.656.656,0,0,1-.248-.071l-1.309-.672-1.309.672a.5.5,0,0,1-.637-.142.465.465,0,0,1-.106-.425l.248-1.451L22.391,44.49a.509.509,0,0,1-.142-.531.548.548,0,0,1,.425-.354l1.451-.212.637-1.309a.515.515,0,0,1,.92,0l.637,1.309,1.451.212A.579.579,0,0,1,28.265,43.994Z" transform="translate(-15.427 -41.8)" fill="#ffd200"/>
            <path id="Path_419-2" data-name="Path 419" d="M66.73,43.994a.509.509,0,0,1-.142.531l-1.062,1.026L65.775,47a.465.465,0,0,1-.106.425.586.586,0,0,1-.425.177A.656.656,0,0,1,65,47.533l-1.309-.672-1.239.672a.5.5,0,0,1-.637-.142.465.465,0,0,1-.106-.425l.248-1.451L60.891,44.49a.509.509,0,0,1-.142-.531.548.548,0,0,1,.425-.354l1.451-.212.637-1.309a.51.51,0,0,1,.46-.283.474.474,0,0,1,.46.283l.637,1.309,1.451.212A.532.532,0,0,1,66.73,43.994Z" transform="translate(-40.302 -41.8)" fill="#ffd200"/>
            <path id="Path_420-2" data-name="Path 420" d="M85.824,44.525l-1.062,1.026L85.01,47a.465.465,0,0,1-.106.425.586.586,0,0,1-.425.177.656.656,0,0,1-.248-.071l-1.309-.672-1.274.672a.5.5,0,0,1-.637-.142.465.465,0,0,1-.106-.425l.248-1.451L80.091,44.49a.509.509,0,0,1-.142-.531.548.548,0,0,1,.425-.354l1.451-.212.637-1.309a.51.51,0,0,1,.46-.283.474.474,0,0,1,.46.283l.637,1.309,1.451.212a.548.548,0,0,1,.425.354A.473.473,0,0,1,85.824,44.525Z" transform="translate(-52.707 -41.8)" fill="#ffd200"/>
          </g>
        </g>
      </g>
      <g id="noun_Five_Stars_2188235-3" data-name="noun_Five Stars_2188235" transform="translate(136.024 60.069)">
        <g id="Group_49-3" data-name="Group 49" transform="translate(0 0)">
          <g id="Group_48-3" data-name="Group 48">
            <path id="Path_416-3" data-name="Path 416" d="M9.03,43.994a.509.509,0,0,1-.142.531L7.827,45.551,8.075,47a.465.465,0,0,1-.106.425.568.568,0,0,1-.389.177.656.656,0,0,1-.248-.071l-1.309-.672-1.274.672a.5.5,0,0,1-.637-.142A.465.465,0,0,1,4,46.967l.248-1.451L3.191,44.49a.509.509,0,0,1-.142-.531.609.609,0,0,1,.425-.354l1.451-.212.637-1.309a.552.552,0,0,1,.46-.283.474.474,0,0,1,.46.283l.637,1.309L8.57,43.6A.5.5,0,0,1,9.03,43.994Z" transform="translate(-3.022 -41.8)" fill="#ffd200"/>
            <path id="Path_417-3" data-name="Path 417" d="M47.465,43.994a.509.509,0,0,1-.142.531l-1.062,1.026L46.51,47a.465.465,0,0,1-.106.425.586.586,0,0,1-.425.177.656.656,0,0,1-.248-.071l-1.274-.672-1.309.672a.5.5,0,0,1-.637-.142.465.465,0,0,1-.106-.425l.248-1.451L41.591,44.49a.509.509,0,0,1-.142-.531.548.548,0,0,1,.425-.354l1.451-.212.637-1.309a.552.552,0,0,1,.46-.283.474.474,0,0,1,.46.283l.637,1.309,1.451.212A.579.579,0,0,1,47.465,43.994Z" transform="translate(-27.832 -41.8)" fill="#ffd200"/>
            <path id="Path_418-3" data-name="Path 418" d="M28.265,43.994a.509.509,0,0,1-.142.531l-1.062,1.026L27.31,47a.593.593,0,0,1-.106.425.568.568,0,0,1-.389.177.656.656,0,0,1-.248-.071l-1.309-.672-1.309.672a.5.5,0,0,1-.637-.142.465.465,0,0,1-.106-.425l.248-1.451L22.391,44.49a.509.509,0,0,1-.142-.531.548.548,0,0,1,.425-.354l1.451-.212.637-1.309a.515.515,0,0,1,.92,0l.637,1.309,1.451.212A.579.579,0,0,1,28.265,43.994Z" transform="translate(-15.427 -41.8)" fill="#ffd200"/>
            <path id="Path_419-3" data-name="Path 419" d="M66.73,43.994a.509.509,0,0,1-.142.531l-1.062,1.026L65.775,47a.465.465,0,0,1-.106.425.586.586,0,0,1-.425.177A.656.656,0,0,1,65,47.533l-1.309-.672-1.239.672a.5.5,0,0,1-.637-.142.465.465,0,0,1-.106-.425l.248-1.451L60.891,44.49a.509.509,0,0,1-.142-.531.548.548,0,0,1,.425-.354l1.451-.212.637-1.309a.51.51,0,0,1,.46-.283.474.474,0,0,1,.46.283l.637,1.309,1.451.212A.532.532,0,0,1,66.73,43.994Z" transform="translate(-40.302 -41.8)" fill="#ffd200"/>
            <path id="Path_420-3" data-name="Path 420" d="M85.824,44.525l-1.062,1.026L85.01,47a.465.465,0,0,1-.106.425.586.586,0,0,1-.425.177.656.656,0,0,1-.248-.071l-1.309-.672-1.274.672a.5.5,0,0,1-.637-.142.465.465,0,0,1-.106-.425l.248-1.451L80.091,44.49a.509.509,0,0,1-.142-.531.548.548,0,0,1,.425-.354l1.451-.212.637-1.309a.51.51,0,0,1,.46-.283.474.474,0,0,1,.46.283l.637,1.309,1.451.212a.548.548,0,0,1,.425.354A.473.473,0,0,1,85.824,44.525Z" transform="translate(-52.707 -41.8)" fill="#ffd200"/>
          </g>
        </g>
      </g>
    </g>
  </g>
</svg>
