<svg xmlns="http://www.w3.org/2000/svg" xmlns:xlink="http://www.w3.org/1999/xlink" width="400.978" height="311.623" viewBox="0 0 400.978 311.623">
  <defs>
    <linearGradient id="linear-gradient" x1="0.5" y1="1" x2="0.5" gradientUnits="objectBoundingBox">
      <stop offset="0" stop-color="gray" stop-opacity="0.251"/>
      <stop offset="0.54" stop-color="gray" stop-opacity="0.122"/>
      <stop offset="1" stop-color="gray" stop-opacity="0.102"/>
    </linearGradient>
    <linearGradient id="linear-gradient-2" x1="0.5" x2="0.5" xlink:href="#linear-gradient"/>
    <linearGradient id="linear-gradient-3" x1="0.5" x2="0.5" xlink:href="#linear-gradient"/>
    <linearGradient id="linear-gradient-4" x1="1.105" y1="1.163" x2="1.105" y2="0.163" xlink:href="#linear-gradient"/>
    <linearGradient id="linear-gradient-5" x1="0.5" x2="0.5" xlink:href="#linear-gradient"/>
    <linearGradient id="linear-gradient-6" x1="0.5" x2="0.5" xlink:href="#linear-gradient"/>
    <linearGradient id="linear-gradient-8" x1="0.5" x2="0.5" xlink:href="#linear-gradient"/>
    <linearGradient id="linear-gradient-9" x1="0.5" x2="0.5" xlink:href="#linear-gradient"/>
    <linearGradient id="linear-gradient-10" x1="7991.716" x2="7991.716" xlink:href="#linear-gradient"/>
  </defs>
  <g id="Group_84" data-name="Group 84" transform="translate(-733.844 -61)">
    <g id="Group_79" data-name="Group 79" transform="translate(179 -76)">
      <g id="undraw_cloud_sync_2aph" transform="translate(595.711 150.601)">
        <g id="Group_3" data-name="Group 3" transform="translate(209.32 28.438)" opacity="0.8">
          <rect id="Rectangle_12" data-name="Rectangle 12" width="150.792" height="168.3" fill="url(#linear-gradient)"/>
        </g>
        <rect id="Rectangle_13" data-name="Rectangle 13" width="145.805" height="52.268" transform="translate(211.813 140.801)" fill="#fff"/>
        <circle id="Ellipse_8" data-name="Ellipse 8" cx="13.634" cy="13.634" r="13.634" transform="translate(323.344 152.786)" fill="#0093ff"/>
        <rect id="Rectangle_21" data-name="Rectangle 21" width="145.805" height="52.268" transform="translate(211.813 86.501)" fill="#fff"/>
        <circle id="Ellipse_9" data-name="Ellipse 9" cx="13.634" cy="13.634" r="13.634" transform="translate(323.344 98.486)" fill="#ff9300"/>
        <rect id="Rectangle_29" data-name="Rectangle 29" width="145.805" height="52.268" transform="translate(211.813 32.201)" fill="#fff"/>
        <circle id="Ellipse_10" data-name="Ellipse 10" cx="14.697" cy="14.697" r="14.697" transform="translate(322.281 43.123)" fill="none"/>
        <circle id="Ellipse_11" data-name="Ellipse 11" cx="14.697" cy="14.697" r="14.697" transform="translate(322.281 97.79)" fill="none"/>
        <circle id="Ellipse_12" data-name="Ellipse 12" cx="14.697" cy="14.697" r="14.697" transform="translate(322.281 152.086)" fill="#f55f44"/>
        <circle id="Ellipse_13" data-name="Ellipse 13" cx="13.634" cy="13.634" r="13.634" transform="translate(323.344 44.186)" fill="#3ad29f"/>
        <path id="Path_75" data-name="Path 75" d="M365.941,575.07a27.993,27.993,0,0,0-55.5-5.218l-86.035-2.333.944,14.784s-12.265,28.306,52.206,35.857v28.623H352.1V599.209A27.976,27.976,0,0,0,365.941,575.07Z" transform="translate(-199.158 -354.659)" fill="url(#linear-gradient-2)"/>
        <path id="Path_76" data-name="Path 76" d="M232.577,613.842s-11.746,27.107,50,34.34v27.412h71.384V603.007l-122.292-3.3Z" transform="translate(-203.426 -385.601)" fill="#fbbebe"/>
        <path id="Path_77" data-name="Path 77" d="M231.211,294.856h0a13.16,13.16,0,0,1-18.1,4.121l-38.33-25.256a13.16,13.16,0,0,1-4.121-18.1h0a13.16,13.16,0,0,1,18.1-4.121l38.33,25.256a13.16,13.16,0,0,1,4.121,18.1Z" transform="translate(-166.385 -179.727)" fill="url(#linear-gradient-3)"/>
        <path id="Path_78" data-name="Path 78" d="M232.331,296.039h0a12.237,12.237,0,0,1-16.824,3.825l-35.63-23.492a12.237,12.237,0,0,1-3.825-16.824h0a12.237,12.237,0,0,1,16.824-3.825l35.63,23.492A12.237,12.237,0,0,1,232.331,296.039Z" transform="translate(-169.636 -182.291)" fill="#fbbebe"/>
        <circle id="Ellipse_14" data-name="Ellipse 14" cx="26.806" cy="26.806" r="26.806" transform="translate(110.174 194.516)" fill="#fbbebe"/>
        <rect id="Rectangle_37" data-name="Rectangle 37" width="111.135" height="200.604" rx="10.24" transform="translate(25.235 44.512)" fill="url(#linear-gradient-4)"/>
        <rect id="Rectangle_38" data-name="Rectangle 38" width="108.135" height="195.184" rx="13.64" transform="translate(26.739 47.224)" fill="#fff"/>
        <path id="Path_79" data-name="Path 79" d="M313.087,206.646a8.766,8.766,0,0,1-8.655,7.456H267.1a8.766,8.766,0,0,1-8.655-7.456H238.661a4.121,4.121,0,0,0-4.121,4.121V387.949a4.121,4.121,0,0,0,4.121,4.121h94.5a4.121,4.121,0,0,0,4.121-4.121v-177.2a4.121,4.121,0,0,0-4.121-4.121Z" transform="translate(-205.113 -154.527)" fill="#2942f8"/>
        <rect id="Rectangle_39" data-name="Rectangle 39" width="24.098" height="1.504" rx="0.752" transform="translate(68.91 54.453)" fill="#dbdbdb"/>
        <circle id="Ellipse_15" data-name="Ellipse 15" cx="0.903" cy="0.903" r="0.903" transform="translate(97.224 54.152)" fill="#dbdbdb"/>
        <path id="Path_80" data-name="Path 80" d="M490.261,492.888h0c-7.777,1.8-13.119-3.272-14.92-11.054l-17.867-66.372a14.557,14.557,0,0,1,10.872-17.413h0a14.557,14.557,0,0,1,17.4,10.893l14.586,68.074C502.139,484.777,498.038,491.091,490.261,492.888Z" transform="translate(-335.95 -266.838)" fill="url(#linear-gradient-5)"/>
        <rect id="Rectangle_40" data-name="Rectangle 40" width="24.399" height="97.419" rx="12.2" transform="translate(121.27 137.316) rotate(-13.01)" fill="#fbbebe"/>
        <path id="Path_81" data-name="Path 81" d="M213.539,480.274h0a13,13,0,0,1-17.879,4.064l-25.7-16.63a13,13,0,0,1-4.064-17.879h0a13,13,0,0,1,17.879-4.064l25.7,16.63a13,13,0,0,1,4.064,17.879Z" transform="translate(-163.596 -293.939)" fill="url(#linear-gradient-6)"/>
        <path id="Path_82" data-name="Path 82" d="M211.541,572.593h0a13.119,13.119,0,0,1-18.04,4.1L177.58,565.08a13.119,13.119,0,0,1-4.1-18.04h0a13.119,13.119,0,0,1,18.04-4.1l15.921,11.627a13.119,13.119,0,0,1,4.1,18.027Z" transform="translate(-168.044 -351.052)" fill="url(#linear-gradient)"/>
        <g id="Group_22" data-name="Group 22" transform="translate(49.803 113.814)" opacity="0.5">
          <circle id="Ellipse_16" data-name="Ellipse 16" cx="31.002" cy="31.002" r="31.002" fill="url(#linear-gradient-8)"/>
        </g>
        <circle id="Ellipse_17" data-name="Ellipse 17" cx="29.18" cy="29.18" r="29.18" transform="translate(51.625 115.636)" fill="#69f0ae"/>
        <path id="Path_83" data-name="Path 83" d="M158.868,324.718l10.942,10.027,15.5-22.8,5.473,4.558-20.974,27.358-15.5-17.327Z" transform="translate(-90.729 -183.793)" fill="#fff"/>
        <path id="Path_84" data-name="Path 84" d="M212.288,573.543h0a12.237,12.237,0,0,1-16.824,3.825l-14.837-10.827a12.237,12.237,0,0,1-3.825-16.824h0a12.237,12.237,0,0,1,16.824-3.825l14.837,10.827A12.237,12.237,0,0,1,212.288,573.543Z" transform="translate(-170.077 -352.868)" fill="#fbbebe"/>
        <path id="Path_85" data-name="Path 85" d="M214.306,481.147h0a12.237,12.237,0,0,1-16.824,3.825L173.3,469.31a12.237,12.237,0,0,1-3.825-16.824h0a12.237,12.237,0,0,1,16.844-3.812L210.5,464.336a12.237,12.237,0,0,1,3.8,16.811Z" transform="translate(-165.768 -295.711)" fill="#fbbebe"/>
        <path id="Path_86" data-name="Path 86" d="M219.737,388.622h0a13.061,13.061,0,0,1-17.961,4.084L169.216,371.5a13.061,13.061,0,0,1-4.084-17.961h0a13.061,13.061,0,0,1,17.961-4.084l32.559,21.209A13.061,13.061,0,0,1,219.737,388.622Z" transform="translate(-163.142 -237.315)" fill="url(#linear-gradient-9)"/>
        <path id="Path_87" data-name="Path 87" d="M220.65,389.636h0a12.237,12.237,0,0,1-16.824,3.825l-30.5-19.865a12.237,12.237,0,0,1-3.825-16.824h0a12.237,12.237,0,0,1,16.832-3.825l30.5,19.865a12.237,12.237,0,0,1,3.816,16.824Z" transform="translate(-165.786 -239.442)" fill="#fbbebe"/>
        <path id="Path_88" data-name="Path 88" d="M207.36,38.093V1H370.57V23.256" transform="translate(-121.915 -1)" fill="none" stroke="#3ad29f" stroke-miterlimit="10" stroke-width="2" stroke-dasharray="12"/>
        <path id="Path_89" data-name="Path 89" d="M441.36,533.093h70.477V496" transform="translate(-259.473 -291.988)" fill="none" stroke="#3ad29f" stroke-miterlimit="10" stroke-width="2" stroke-dasharray="12"/>
      </g>
      <g id="undraw_Jogging_t14q" transform="translate(554.844 137)">
        <path id="Path_162" data-name="Path 162" d="M251.928,213.039a4.484,4.484,0,0,0-5.852.544,4.587,4.587,0,0,0,.181,6.392l5.6,5.564a.931.931,0,0,0,1.323,0l5.58-5.6a4.587,4.587,0,0,0,.148-6.392,4.5,4.5,0,0,0-5.861-.511A.94.94,0,0,1,251.928,213.039Z" transform="translate(-224.196 -154.074)" fill="#ffd200"/>
        <path id="Path_163" data-name="Path 163" d="M125.928,488.039a4.484,4.484,0,0,0-5.852.544,4.587,4.587,0,0,0,.181,6.392l5.6,5.564a.931.931,0,0,0,1.323,0l5.58-5.6a4.587,4.587,0,0,0,.148-6.392,4.5,4.5,0,0,0-5.861-.511A.94.94,0,0,1,125.928,488.039Z" transform="translate(65.838 -406.819)" fill="#f55f44"/>
        <rect id="Rectangle_58" data-name="Rectangle 58" width="1.236" height="7.006" transform="translate(237.061 27.568)" fill="#3ad29f"/>
        <rect id="Rectangle_59" data-name="Rectangle 59" width="1.236" height="7.006" transform="translate(241.183 30.453) rotate(90)" fill="#3ad29f"/>
        <rect id="Rectangle_60" data-name="Rectangle 60" width="1.236" height="7.006" transform="translate(219.339 167.697)" fill="#3ad29f"/>
        <rect id="Rectangle_61" data-name="Rectangle 61" width="1.236" height="7.006" transform="translate(223.46 170.582) rotate(90)" fill="#3ad29f"/>
        <rect id="Rectangle_62" data-name="Rectangle 62" width="1.236" height="7.006" transform="translate(8.321 197.372)" fill="#3ad29f"/>
        <rect id="Rectangle_63" data-name="Rectangle 63" width="1.236" height="7.006" transform="translate(12.442 200.257) rotate(90)" fill="#3ad29f"/>
        <rect id="Rectangle_64" data-name="Rectangle 64" width="1.236" height="7.006" transform="translate(19.861 27.568)" fill="#3ad29f"/>
        <rect id="Rectangle_65" data-name="Rectangle 65" width="1.236" height="7.006" transform="translate(23.982 30.453) rotate(90)" fill="#3ad29f"/>
        <rect id="Rectangle_66" data-name="Rectangle 66" width="1.236" height="7.006" transform="translate(74.264 38.696)" fill="#3ad29f"/>
        <rect id="Rectangle_67" data-name="Rectangle 67" width="1.236" height="7.006" transform="translate(78.385 41.581) rotate(90)" fill="#3ad29f"/>
        <path id="Path_165" data-name="Path 165" d="M304.776,347a1.513,1.513,0,0,1-.845-1.83.763.763,0,0,0,.033-.169h0a.758.758,0,0,0-1.364-.5h0a.75.75,0,0,0-.082.148,1.517,1.517,0,0,1-1.83.845.823.823,0,0,0-.169-.033h0a.758.758,0,0,0-.5,1.364h0a.65.65,0,0,0,.148.082,1.521,1.521,0,0,1,.845,1.834.558.558,0,0,0-.033.165h0a.758.758,0,0,0,1.364.5h0a.857.857,0,0,0,.082-.148,1.513,1.513,0,0,1,1.83-.824.768.768,0,0,0,.169.033h0a.762.762,0,0,0,.5-1.368h0a.858.858,0,0,0-.148-.1Z" transform="translate(-299.711 -239.094)" fill="#f55f44"/>
        <path id="Path_166" data-name="Path 166" d="M871.806,67a1.513,1.513,0,0,1-.824-1.83.763.763,0,0,0,.033-.169h0a.758.758,0,0,0-1.364-.5h0a.75.75,0,0,0-.082.148,1.517,1.517,0,0,1-1.83.824.824.824,0,0,0-.169-.033h0a.758.758,0,0,0-.5,1.364h0a.65.65,0,0,0,.148.082,1.521,1.521,0,0,1,.845,1.834.554.554,0,0,0-.033.165h0a.758.758,0,0,0,1.364.5h0a.856.856,0,0,0,.082-.148,1.513,1.513,0,0,1,1.83-.824.766.766,0,0,0,.169.033h0a.762.762,0,0,0,.5-1.368h0A.86.86,0,0,0,871.806,67Z" transform="translate(-638 156.718)" fill="#3ad29f"/>
        <path id="Path_167" data-name="Path 167" d="M519.806,83a1.513,1.513,0,0,1-.824-1.83.766.766,0,0,0,.033-.169h0a.758.758,0,0,0-1.364-.5h0a.743.743,0,0,0-.082.148,1.517,1.517,0,0,1-1.83.824.823.823,0,0,0-.169-.033h0a.758.758,0,0,0-.5,1.364h0a.651.651,0,0,0,.148.082,1.521,1.521,0,0,1,.845,1.834.558.558,0,0,0-.033.165h0a.758.758,0,0,0,1.364.5h0a.865.865,0,0,0,.082-.148,1.513,1.513,0,0,1,1.83-.824.766.766,0,0,0,.169.033h0a.762.762,0,0,0,.5-1.368h0A.857.857,0,0,0,519.806,83Z" transform="translate(-420.772 -80.191)" fill="#f55f44"/>
        <path id="Path_168" data-name="Path 168" d="M334.776,457a1.513,1.513,0,0,1-.845-1.83.766.766,0,0,0,.033-.169h0a.758.758,0,0,0-1.364-.5h0a.748.748,0,0,0-.082.148,1.517,1.517,0,0,1-1.83.845.823.823,0,0,0-.169-.033h0a.758.758,0,0,0-.5,1.364h0a.651.651,0,0,0,.148.082,1.521,1.521,0,0,1,.845,1.834.556.556,0,0,0-.033.165h0a.758.758,0,0,0,1.364.5h0a.856.856,0,0,0,.082-.148,1.513,1.513,0,0,1,1.83-.824.767.767,0,0,0,.169.033h0a.762.762,0,0,0,.5-1.368h0a.86.86,0,0,0-.148-.1Z" transform="translate(-307.043 -308.704)" fill="#f55f44"/>
        <path id="Path_169" data-name="Path 169" d="M776.806,329a1.512,1.512,0,0,1-.824-1.83.77.77,0,0,0,.033-.169h0a.758.758,0,0,0-1.364-.5h0a.751.751,0,0,0-.082.148,1.517,1.517,0,0,1-1.83.845.824.824,0,0,0-.169-.033h0a.758.758,0,0,0-.5,1.364h0a.653.653,0,0,0,.148.082,1.521,1.521,0,0,1,.845,1.834.556.556,0,0,0-.033.165h0a.758.758,0,0,0,1.364.5h0a.855.855,0,0,0,.082-.148,1.513,1.513,0,0,1,1.83-.824.769.769,0,0,0,.169.033h0a.762.762,0,0,0,.5-1.368h0A.862.862,0,0,0,776.806,329Z" transform="translate(-533.933 -221.094)" fill="#f55f44"/>
        <path id="Path_170" data-name="Path 170" d="M1072.806,225a1.513,1.513,0,0,1-.824-1.83.759.759,0,0,0,.033-.169h0a.758.758,0,0,0-1.364-.5h0a.743.743,0,0,0-.082.148,1.517,1.517,0,0,1-1.83.845.823.823,0,0,0-.169-.033h0a.758.758,0,0,0-.5,1.364h0a.656.656,0,0,0,.148.082,1.521,1.521,0,0,1,.824,1.834.556.556,0,0,0-.033.165h0a.758.758,0,0,0,1.364.5h0a.853.853,0,0,0,.082-.148,1.513,1.513,0,0,1,1.83-.824.767.767,0,0,0,.169.033h0a.762.762,0,0,0,.5-1.368h0a.859.859,0,0,0-.148-.1Z" transform="translate(-844.358 -163.255)" fill="#f55f44"/>
        <path id="Path_171" data-name="Path 171" d="M749.73,402.78l.066.206A1.1,1.1,0,0,1,749.73,402.78Z" transform="translate(-520.982 -266.117)" fill="url(#linear-gradient-10)"/>
        <path id="Path_196" data-name="Path 196" d="M290.363,788c-.474,1.216-.33,2.625,1.649,3.837,4.587,2.823,41.647,11.647,41.647,11.647a18.373,18.373,0,0,0,1.01-1.714,19.006,19.006,0,0,1-1.364,2.423s-37.064-8.832-41.651-11.66C289.283,791.079,289.551,789.335,290.363,788Z" transform="translate(-250.599 -492.571)" fill="#fff" opacity="0.5"/>
      </g>
      <g id="pasta" transform="translate(923.165 199.857)">
        <path id="Path_415" data-name="Path 415" d="M28.843,11.294a.827.827,0,0,0-.246-.583l-.471-.471a.873.873,0,0,0-.584-.246.7.7,0,0,0-.5.209l-3.149,3.261c-.059-.006-.119-.006-.178-.01a4.393,4.393,0,0,0-8.586,0,4.257,4.257,0,0,0-3.984,4.1h-.909a.235.235,0,0,0-.236.236,9.43,9.43,0,0,0,6.723,9.018A3.207,3.207,0,0,0,16.18,28.6a.235.235,0,0,0,.236.236h6.012a.235.235,0,0,0,.236-.236,3.2,3.2,0,0,0-.541-1.791,9.43,9.43,0,0,0,6.721-9.017.235.235,0,0,0-.236-.236H27.7a4.252,4.252,0,0,0-1.851-3.373l2.788-2.391A.7.7,0,0,0,28.843,11.294Zm-9.422-.83a3.926,3.926,0,0,1,3.808,2.987,4.24,4.24,0,0,0-1.095.2,2.812,2.812,0,0,0-5.424,0,4.24,4.24,0,0,0-1.1-.2A3.932,3.932,0,0,1,19.422,10.464ZM21,14.214a1.683,1.683,0,0,0-3.16,0,4.257,4.257,0,0,0-.691-.4,2.341,2.341,0,0,1,4.539,0A4.256,4.256,0,0,0,21,14.214Zm-.4.318a4.262,4.262,0,0,0-1.185,1.78,4.262,4.262,0,0,0-1.182-1.778,1.212,1.212,0,0,1,2.367,0ZM15.4,13.911a3.789,3.789,0,0,1,3.782,3.646h-.962a2.875,2.875,0,0,0-5.743,0h-.859A3.789,3.789,0,0,1,15.4,13.911Zm1.345,3.646a1.4,1.4,0,0,0-2.792,0h-1a2.4,2.4,0,0,1,4.8,0Zm-.478,0H14.428a.928.928,0,0,1,1.836,0Zm5.919,10.808H16.661a2.736,2.736,0,0,1,.534-1.412s0-.01.007-.014a9.382,9.382,0,0,0,4.435,0A2.731,2.731,0,0,1,22.182,28.365Zm-2.761-1.631a8.963,8.963,0,0,1-8.7-6.849l1.068.672a.235.235,0,0,0,.251,0l1.371-.863,1.37.863a.235.235,0,0,0,.251,0l1.37-.863,1.371.863a.235.235,0,0,0,.251,0l1.371-.863,1.371.863a.235.235,0,0,0,.251,0l1.371-.863,1.371.863a.235.235,0,0,0,.251,0l1.372-.863,1.373.863a.235.235,0,0,0,.251,0l1.126-.708A8.964,8.964,0,0,1,19.422,26.735Zm8.835-7.519h0l-1.373.863-1.373-.863a.235.235,0,0,0-.251,0l-1.372.863-1.371-.863a.235.235,0,0,0-.251,0l-1.371.863-1.371-.863a.235.235,0,0,0-.251,0L17.9,20.08l-1.371-.863a.235.235,0,0,0-.251,0l-1.37.863-1.37-.863a.236.236,0,0,0-.251,0l-1.371.863-1.322-.833a8.935,8.935,0,0,1-.117-1.219H28.369A8.937,8.937,0,0,1,28.256,19.216Zm-3.414-1.659a1.4,1.4,0,0,0-2.792,0h-1a2.4,2.4,0,0,1,4.8,0Zm-.478,0H22.528a.928.928,0,0,1,1.836,0Zm2.864,0h-.911a2.875,2.875,0,0,0-5.743,0h-.911a3.784,3.784,0,0,1,7.564,0Zm1.09-6.111-2.9,2.483a4.231,4.231,0,0,0-.972-.365l2.93-3.034a.227.227,0,0,1,.165-.066.357.357,0,0,1,.248.108l.471.471a.354.354,0,0,1,.108.248A.225.225,0,0,1,28.318,11.446Z" transform="translate(-10 -9.993)" fill="#fff" stroke="#fff" stroke-width="1"/>
      </g>
      <g id="noun_Pizza_2291140" transform="translate(921.997 252.401)">
        <path id="Path_403" data-name="Path 403" d="M65.183,25.152a1.165,1.165,0,0,0-1.991-.087l-3.611,5.416a.3.3,0,0,0,.251.469h.022l6.369-.461a1.165,1.165,0,0,0,.938-1.72Zm1.448,4.443a.553.553,0,0,1-.453.291l-5.755.417,3.27-4.9a.558.558,0,0,1,.467-.25h.025a.558.558,0,0,1,.469.292l1.977,3.615a.553.553,0,0,1,0,.538Z" transform="translate(-46.009 -21.632)" fill="#fff" stroke="#fff" stroke-width="1"/>
        <path id="Path_404" data-name="Path 404" d="M35.548,25.164h-9.78l4.637-8.612a.3.3,0,0,0-.122-.408,10.586,10.586,0,1,0,5.566,9.321.3.3,0,0,0-.3-.3ZM25.264,35.449A9.983,9.983,0,1,1,29.73,16.536L25,25.323a.3.3,0,0,0,.266.444h9.978a9.995,9.995,0,0,1-9.978,9.681Z" transform="translate(-14.677 -14.878)" fill="#fff" stroke="#fff" stroke-width="1"/>
        <path id="Path_405" data-name="Path 405" d="M49.555,69.156a1.534,1.534,0,0,0,3.068,0,.3.3,0,1,0-.6,0,.929.929,0,1,1-.684-.9.3.3,0,1,0,.16-.581,1.534,1.534,0,0,0-1.94,1.479Z" transform="translate(-39.041 -51.722)" fill="#fff" stroke="#fff" stroke-width="1"/>
        <path id="Path_406" data-name="Path 406" d="M67.085,58.94a.3.3,0,0,0,.107-.413.929.929,0,1,1,1.044.426.3.3,0,0,0,.079.592.314.314,0,0,0,.08-.011,1.534,1.534,0,1,0-1.723-.7A.3.3,0,0,0,67.085,58.94Z" transform="translate(-50.85 -43.967)" fill="#fff" stroke="#fff" stroke-width="1"/>
        <path id="Path_407" data-name="Path 407" d="M34.371,47.488a1.534,1.534,0,0,0-.6,3.009.311.311,0,0,0,.059.006.3.3,0,0,0,.058-.6.93.93,0,1,1,1.013-.5.3.3,0,0,0,.539.27,1.534,1.534,0,0,0-1.074-2.191Z" transform="translate(-27.155 -37.637)" fill="#fff" stroke="#fff" stroke-width="1"/>
        <path id="Path_408" data-name="Path 408" d="M46.246,25.533a1.534,1.534,0,0,0,1.441-2.056.3.3,0,1,0-.567.205.929.929,0,1,1-.948-.611.3.3,0,1,0-.048-.6,1.534,1.534,0,0,0,.122,3.063Z" transform="translate(-35.657 -20.181)" fill="#fff" stroke="#fff" stroke-width="1"/>
        <path id="Path_409" data-name="Path 409" d="M29.069,33.667a1.346,1.346,0,1,0-2.689.126.3.3,0,1,0,.6-.028.744.744,0,0,1,.708-.777.725.725,0,0,1,.535.193.744.744,0,0,1-.664,1.275.3.3,0,1,0-.132.588,1.339,1.339,0,0,0,.294.033h.065a1.346,1.346,0,0,0,1.281-1.407Z" transform="translate(-22.851 -27.107)" fill="#fff" stroke="#fff" stroke-width="1"/>
        <path id="Path_410" data-name="Path 410" d="M35.284,66.813a1.407,1.407,0,0,0-2.556.375,1.34,1.34,0,0,0,.135,1.025,1.365,1.365,0,0,0,1.186.672,1.417,1.417,0,0,0,.71-.191.3.3,0,0,0-.3-.522.784.784,0,0,1-1.074-.262.741.741,0,0,1-.074-.567.8.8,0,0,1,.379-.489.784.784,0,0,1,1.074.262.733.733,0,0,1,.077.187.3.3,0,0,0,.584-.15A1.338,1.338,0,0,0,35.284,66.813Z" transform="translate(-27.254 -50.691)" fill="#fff" stroke="#fff" stroke-width="1"/>
        <path id="Path_411" data-name="Path 411" d="M21.653,48.167a.94.94,0,1,0,.94.94A.94.94,0,0,0,21.653,48.167Zm0,1.278a.338.338,0,1,1,.337-.337.338.338,0,0,1-.337.337Z" transform="translate(-18.893 -38.132)" fill="#fff" stroke="#fff" stroke-width="1"/>
        <path id="Path_412" data-name="Path 412" d="M48.238,58.027a.94.94,0,1,0,.94-.94.94.94,0,0,0-.94.94Zm.94-.337a.338.338,0,1,1-.337.337A.338.338,0,0,1,49.179,57.69Z" transform="translate(-38.121 -44.363)" fill="#fff" stroke="#fff" stroke-width="1"/>
        <path id="Path_413" data-name="Path 413" d="M43.538,37.693a.94.94,0,1,0,.941.941.94.94,0,0,0-.941-.941Zm0,1.278a.338.338,0,1,1,.338-.337.338.338,0,0,1-.338.337Z" transform="translate(-34.181 -30.816)" fill="#fff" stroke="#fff" stroke-width="1"/>
      </g>
      <g id="noun_Burger_2401940" transform="translate(923.734 307.216)">
        <g id="Group_46" data-name="Group 46" transform="translate(0 0)">
          <g id="Group_45" data-name="Group 45" transform="translate(0 0)">
            <g id="Group_44" data-name="Group 44">
              <g id="Group_36" data-name="Group 36" transform="translate(1.305)">
                <path id="Path_386" data-name="Path 386" d="M121.394,53.828H106.261a.261.261,0,0,1-.261-.261V52.314A6.321,6.321,0,0,1,112.314,46h3.027a6.321,6.321,0,0,1,6.314,6.314v1.252A.261.261,0,0,1,121.394,53.828Zm-14.872-.522h14.612v-.991a5.8,5.8,0,0,0-5.792-5.792h-3.027a5.8,5.8,0,0,0-5.792,5.792Z" transform="translate(-106 -46)" fill="#fff" stroke="#fff" stroke-width="1"/>
              </g>
              <g id="Group_37" data-name="Group 37" transform="translate(1.305 14.612)">
                <path id="Path_387" data-name="Path 387" d="M116.2,331.714h-4.749A5.459,5.459,0,0,1,106,326.261a.261.261,0,0,1,.261-.261h15.133a.261.261,0,0,1,.261.261A5.459,5.459,0,0,1,116.2,331.714Zm-9.673-5.192a4.937,4.937,0,0,0,4.925,4.67H116.2a4.937,4.937,0,0,0,4.925-4.67Z" transform="translate(-106 -326)" fill="#fff" stroke="#fff" stroke-width="1"/>
              </g>
              <g id="Group_38" data-name="Group 38" transform="translate(0 11.48)">
                <path id="Path_388" data-name="Path 388" d="M98.221,268.087H82.044a1.044,1.044,0,0,1,0-2.087H98.221a1.044,1.044,0,0,1,0,2.087Zm-16.177-1.566a.522.522,0,1,0,0,1.044H98.221a.522.522,0,1,0,0-1.044Z" transform="translate(-81 -266)" fill="#fff" stroke="#fff" stroke-width="1"/>
              </g>
              <g id="Group_39" data-name="Group 39" transform="translate(1.305 8.929)">
                <path id="Path_389" data-name="Path 389" d="M109.1,218.558a1.605,1.605,0,0,1-1.136-.541,1.086,1.086,0,0,0-.806-.386,1.1,1.1,0,0,0-.7.367.261.261,0,1,1-.4-.33,1.623,1.623,0,0,1,1.077-.558,1.576,1.576,0,0,1,1.2.539,1.085,1.085,0,0,0,.806.386,1.1,1.1,0,0,0,.7-.367.261.261,0,1,1,.4.33,1.623,1.623,0,0,1-1.077.558Z" transform="translate(-106 -217.108)" fill="#fff" stroke="#fff" stroke-width="1"/>
              </g>
              <g id="Group_40" data-name="Group 40" transform="translate(5.088 8.929)">
                <path id="Path_390" data-name="Path 390" d="M181.6,218.558a1.605,1.605,0,0,1-1.136-.541,1.086,1.086,0,0,0-.806-.386,1.1,1.1,0,0,0-.7.367.261.261,0,0,1-.4-.33,1.623,1.623,0,0,1,1.077-.558,1.576,1.576,0,0,1,1.2.539,1.086,1.086,0,0,0,.806.386,1.1,1.1,0,0,0,.7-.367.261.261,0,0,1,.4.33,1.623,1.623,0,0,1-1.077.558Z" transform="translate(-178.5 -217.108)" fill="#fff" stroke="#fff" stroke-width="1"/>
              </g>
              <g id="Group_41" data-name="Group 41" transform="translate(8.871 8.929)">
                <path id="Path_391" data-name="Path 391" d="M254.1,218.559a1.605,1.605,0,0,1-1.136-.541,1.088,1.088,0,0,0-.806-.386,1.1,1.1,0,0,0-.7.367.261.261,0,0,1-.4-.33,1.623,1.623,0,0,1,1.077-.558,1.578,1.578,0,0,1,1.2.539,1.087,1.087,0,0,0,.806.386,1.1,1.1,0,0,0,.7-.367.261.261,0,0,1,.4.33,1.623,1.623,0,0,1-1.077.558Z" transform="translate(-251 -217.109)" fill="#fff" stroke="#fff" stroke-width="1"/>
              </g>
              <g id="Group_42" data-name="Group 42" transform="translate(12.655 8.929)">
                <path id="Path_392" data-name="Path 392" d="M326.6,218.559a1.605,1.605,0,0,1-1.136-.541,1.088,1.088,0,0,0-.806-.386,1.1,1.1,0,0,0-.7.367.261.261,0,0,1-.4-.33,1.623,1.623,0,0,1,1.077-.558,1.578,1.578,0,0,1,1.2.539,1.087,1.087,0,0,0,.806.386,1.1,1.1,0,0,0,.7-.367.261.261,0,0,1,.4.33,1.623,1.623,0,0,1-1.077.558Z" transform="translate(-323.5 -217.109)" fill="#fff" stroke="#fff" stroke-width="1"/>
              </g>
            </g>
            <path id="Path_394" data-name="Path 394" d="M151.522,121.544h0a.522.522,0,0,1-.522-.522h0a.522.522,0,0,1,.522-.522h0a.522.522,0,0,1,.522.522h0A.522.522,0,0,1,151.522,121.544Z" transform="translate(-147.347 -116.612)" fill="#fff" stroke="#fff" stroke-width="1"/>
            <path id="Path_395" data-name="Path 395" d="M201.522,141.544h0a.522.522,0,0,1-.522-.522h0a.522.522,0,0,1,.522-.522h0a.522.522,0,0,1,.522.522h0A.522.522,0,0,1,201.522,141.544Z" transform="translate(-194.738 -135.569)" fill="#fff" stroke="#fff" stroke-width="1"/>
            <path id="Path_396" data-name="Path 396" d="M281.522,91.544h0a.522.522,0,0,1-.522-.522h0a.522.522,0,0,1,.522-.522h0a.522.522,0,0,1,.522.522h0A.522.522,0,0,1,281.522,91.544Z" transform="translate(-270.563 -88.178)" fill="#fff" stroke="#fff" stroke-width="1"/>
            <path id="Path_397" data-name="Path 397" d="M301.522,141.544h0a.522.522,0,0,1-.522-.522h0a.522.522,0,0,1,.522-.522h0a.522.522,0,0,1,.522.522h0A.522.522,0,0,1,301.522,141.544Z" transform="translate(-289.52 -135.569)" fill="#fff" stroke="#fff" stroke-width="1"/>
            <path id="Path_398" data-name="Path 398" d="M251.522,151.544h0a.522.522,0,0,1-.522-.522h0a.522.522,0,0,1,.522-.522h0a.522.522,0,0,1,.522.522h0A.522.522,0,0,1,251.522,151.544Z" transform="translate(-242.129 -145.047)" fill="#fff" stroke="#fff" stroke-width="1"/>
            <path id="Path_399" data-name="Path 399" d="M211.522,81.544h0a.522.522,0,0,1-.522-.522h0a.522.522,0,0,1,.522-.522h0a.522.522,0,0,1,.522.522h0A.522.522,0,0,1,211.522,81.544Z" transform="translate(-204.216 -78.7)" fill="#fff" stroke="#fff" stroke-width="1"/>
            <path id="Path_400" data-name="Path 400" d="M351.522,131.544h0a.522.522,0,0,1-.522-.522h0a.522.522,0,0,1,.522-.522h0a.522.522,0,0,1,.522.522h0A.522.522,0,0,1,351.522,131.544Z" transform="translate(-336.91 -126.09)" fill="#fff" stroke="#fff" stroke-width="1"/>
          </g>
        </g>
      </g>
      <g id="noun_Five_Stars_2188235" data-name="noun_Five Stars_2188235" transform="translate(827.345 203.355)">
        <g id="Group_49" data-name="Group 49" transform="translate(0 0)">
          <g id="Group_48" data-name="Group 48">
            <path id="Path_416" data-name="Path 416" d="M15.059,46.2a1.02,1.02,0,0,1-.284,1.063l-2.127,2.056.5,2.907a.932.932,0,0,1-.213.851,1.138,1.138,0,0,1-.78.354,1.314,1.314,0,0,1-.5-.142L9.032,51.938,6.48,53.285A.994.994,0,0,1,5.2,53a.932.932,0,0,1-.213-.851l.5-2.907L3.361,47.188a1.02,1.02,0,0,1-.284-1.063,1.221,1.221,0,0,1,.851-.709l2.907-.425,1.276-2.623a1.106,1.106,0,0,1,.922-.567.95.95,0,0,1,.922.567L11.23,44.99l2.907.425A.991.991,0,0,1,15.059,46.2Z" transform="translate(-3.022 -41.8)" fill="#ffd200"/>
            <path id="Path_417" data-name="Path 417" d="M53.529,46.2a1.02,1.02,0,0,1-.284,1.063l-2.127,2.056.5,2.907a.932.932,0,0,1-.213.851,1.174,1.174,0,0,1-.851.354,1.314,1.314,0,0,1-.5-.142L47.5,51.938,44.88,53.285A.994.994,0,0,1,43.6,53a.932.932,0,0,1-.213-.851l.5-2.907-2.127-2.056a1.02,1.02,0,0,1-.284-1.063,1.1,1.1,0,0,1,.851-.709l2.907-.425,1.276-2.623a1.106,1.106,0,0,1,.922-.567.95.95,0,0,1,.922.567L49.63,44.99l2.907.425A1.159,1.159,0,0,1,53.529,46.2Z" transform="translate(-14.198 -41.8)" fill="#ffd200"/>
            <path id="Path_418" data-name="Path 418" d="M34.329,46.2a1.02,1.02,0,0,1-.284,1.063l-2.127,2.056.5,2.907a1.188,1.188,0,0,1-.213.851,1.138,1.138,0,0,1-.78.354,1.314,1.314,0,0,1-.5-.142L28.3,51.938,25.68,53.285A.994.994,0,0,1,24.4,53a.932.932,0,0,1-.213-.851l.5-2.907-2.127-2.056a1.02,1.02,0,0,1-.284-1.063,1.1,1.1,0,0,1,.851-.709l2.907-.425,1.276-2.623a1.032,1.032,0,0,1,1.843,0L30.43,44.99l2.907.425A1.159,1.159,0,0,1,34.329,46.2Z" transform="translate(-8.61 -41.8)" fill="#ffd200"/>
            <path id="Path_419" data-name="Path 419" d="M72.759,46.2a1.02,1.02,0,0,1-.284,1.063l-2.127,2.056.5,2.907a.932.932,0,0,1-.213.851,1.174,1.174,0,0,1-.851.354,1.314,1.314,0,0,1-.5-.142l-2.623-1.347L64.18,53.285A.994.994,0,0,1,62.9,53a.932.932,0,0,1-.213-.851l.5-2.907-2.127-2.056a1.02,1.02,0,0,1-.284-1.063,1.1,1.1,0,0,1,.851-.709l2.907-.425,1.276-2.623a1.022,1.022,0,0,1,.922-.567.95.95,0,0,1,.922.567L68.93,44.99l2.907.425A1.066,1.066,0,0,1,72.759,46.2Z" transform="translate(-19.815 -41.8)" fill="#ffd200"/>
            <path id="Path_420" data-name="Path 420" d="M91.746,47.259l-2.127,2.056.5,2.907a.932.932,0,0,1-.213.851,1.174,1.174,0,0,1-.851.354,1.314,1.314,0,0,1-.5-.142l-2.623-1.347L83.38,53.285A.994.994,0,0,1,82.1,53a.932.932,0,0,1-.213-.851l.5-2.907-2.127-2.056a1.02,1.02,0,0,1-.284-1.063,1.1,1.1,0,0,1,.851-.709l2.907-.425,1.276-2.623a1.022,1.022,0,0,1,.922-.567.95.95,0,0,1,.922.567L88.13,44.99l2.907.425a1.1,1.1,0,0,1,.851.709A.948.948,0,0,1,91.746,47.259Z" transform="translate(-25.403 -41.8)" fill="#ffd200"/>
          </g>
        </g>
      </g>
      <g id="noun_Five_Stars_2188235-2" data-name="noun_Five Stars_2188235" transform="translate(827.345 311.337)">
        <g id="Group_49-2" data-name="Group 49" transform="translate(0 0)">
          <g id="Group_48-2" data-name="Group 48">
            <path id="Path_416-2" data-name="Path 416" d="M15.059,46.2a1.02,1.02,0,0,1-.284,1.063l-2.127,2.056.5,2.907a.932.932,0,0,1-.213.851,1.138,1.138,0,0,1-.78.354,1.314,1.314,0,0,1-.5-.142L9.032,51.938,6.48,53.285A.994.994,0,0,1,5.2,53a.932.932,0,0,1-.213-.851l.5-2.907L3.361,47.188a1.02,1.02,0,0,1-.284-1.063,1.221,1.221,0,0,1,.851-.709l2.907-.425,1.276-2.623a1.106,1.106,0,0,1,.922-.567.95.95,0,0,1,.922.567L11.23,44.99l2.907.425A.991.991,0,0,1,15.059,46.2Z" transform="translate(-3.022 -41.8)" fill="#ffd200"/>
            <path id="Path_417-2" data-name="Path 417" d="M53.529,46.2a1.02,1.02,0,0,1-.284,1.063l-2.127,2.056.5,2.907a.932.932,0,0,1-.213.851,1.174,1.174,0,0,1-.851.354,1.314,1.314,0,0,1-.5-.142L47.5,51.938,44.88,53.285A.994.994,0,0,1,43.6,53a.932.932,0,0,1-.213-.851l.5-2.907-2.127-2.056a1.02,1.02,0,0,1-.284-1.063,1.1,1.1,0,0,1,.851-.709l2.907-.425,1.276-2.623a1.106,1.106,0,0,1,.922-.567.95.95,0,0,1,.922.567L49.63,44.99l2.907.425A1.159,1.159,0,0,1,53.529,46.2Z" transform="translate(-14.198 -41.8)" fill="#ffd200"/>
            <path id="Path_418-2" data-name="Path 418" d="M34.329,46.2a1.02,1.02,0,0,1-.284,1.063l-2.127,2.056.5,2.907a1.188,1.188,0,0,1-.213.851,1.138,1.138,0,0,1-.78.354,1.314,1.314,0,0,1-.5-.142L28.3,51.938,25.68,53.285A.994.994,0,0,1,24.4,53a.932.932,0,0,1-.213-.851l.5-2.907-2.127-2.056a1.02,1.02,0,0,1-.284-1.063,1.1,1.1,0,0,1,.851-.709l2.907-.425,1.276-2.623a1.032,1.032,0,0,1,1.843,0L30.43,44.99l2.907.425A1.159,1.159,0,0,1,34.329,46.2Z" transform="translate(-8.61 -41.8)" fill="#ffd200"/>
            <path id="Path_419-2" data-name="Path 419" d="M72.759,46.2a1.02,1.02,0,0,1-.284,1.063l-2.127,2.056.5,2.907a.932.932,0,0,1-.213.851,1.174,1.174,0,0,1-.851.354,1.314,1.314,0,0,1-.5-.142l-2.623-1.347L64.18,53.285A.994.994,0,0,1,62.9,53a.932.932,0,0,1-.213-.851l.5-2.907-2.127-2.056a1.02,1.02,0,0,1-.284-1.063,1.1,1.1,0,0,1,.851-.709l2.907-.425,1.276-2.623a1.022,1.022,0,0,1,.922-.567.95.95,0,0,1,.922.567L68.93,44.99l2.907.425A1.066,1.066,0,0,1,72.759,46.2Z" transform="translate(-19.815 -41.8)" fill="#ffd200"/>
            <path id="Path_420-2" data-name="Path 420" d="M91.746,47.259l-2.127,2.056.5,2.907a.932.932,0,0,1-.213.851,1.174,1.174,0,0,1-.851.354,1.314,1.314,0,0,1-.5-.142l-2.623-1.347L83.38,53.285A.994.994,0,0,1,82.1,53a.932.932,0,0,1-.213-.851l.5-2.907-2.127-2.056a1.02,1.02,0,0,1-.284-1.063,1.1,1.1,0,0,1,.851-.709l2.907-.425,1.276-2.623a1.022,1.022,0,0,1,.922-.567.95.95,0,0,1,.922.567L88.13,44.99l2.907.425a1.1,1.1,0,0,1,.851.709A.948.948,0,0,1,91.746,47.259Z" transform="translate(-25.403 -41.8)" fill="#ffd200"/>
          </g>
        </g>
      </g>
      <g id="noun_Five_Stars_2188235-3" data-name="noun_Five Stars_2188235" transform="translate(827.345 257.337)">
        <g id="Group_49-3" data-name="Group 49" transform="translate(0 0)">
          <g id="Group_48-3" data-name="Group 48">
            <path id="Path_416-3" data-name="Path 416" d="M15.059,46.2a1.02,1.02,0,0,1-.284,1.063l-2.127,2.056.5,2.907a.932.932,0,0,1-.213.851,1.138,1.138,0,0,1-.78.354,1.314,1.314,0,0,1-.5-.142L9.032,51.938,6.48,53.285A.994.994,0,0,1,5.2,53a.932.932,0,0,1-.213-.851l.5-2.907L3.361,47.188a1.02,1.02,0,0,1-.284-1.063,1.221,1.221,0,0,1,.851-.709l2.907-.425,1.276-2.623a1.106,1.106,0,0,1,.922-.567.95.95,0,0,1,.922.567L11.23,44.99l2.907.425A.991.991,0,0,1,15.059,46.2Z" transform="translate(-3.022 -41.8)" fill="#ffd200"/>
            <path id="Path_417-3" data-name="Path 417" d="M53.529,46.2a1.02,1.02,0,0,1-.284,1.063l-2.127,2.056.5,2.907a.932.932,0,0,1-.213.851,1.174,1.174,0,0,1-.851.354,1.314,1.314,0,0,1-.5-.142L47.5,51.938,44.88,53.285A.994.994,0,0,1,43.6,53a.932.932,0,0,1-.213-.851l.5-2.907-2.127-2.056a1.02,1.02,0,0,1-.284-1.063,1.1,1.1,0,0,1,.851-.709l2.907-.425,1.276-2.623a1.106,1.106,0,0,1,.922-.567.95.95,0,0,1,.922.567L49.63,44.99l2.907.425A1.159,1.159,0,0,1,53.529,46.2Z" transform="translate(-14.198 -41.8)" fill="#ffd200"/>
            <path id="Path_418-3" data-name="Path 418" d="M34.329,46.2a1.02,1.02,0,0,1-.284,1.063l-2.127,2.056.5,2.907a1.188,1.188,0,0,1-.213.851,1.138,1.138,0,0,1-.78.354,1.314,1.314,0,0,1-.5-.142L28.3,51.938,25.68,53.285A.994.994,0,0,1,24.4,53a.932.932,0,0,1-.213-.851l.5-2.907-2.127-2.056a1.02,1.02,0,0,1-.284-1.063,1.1,1.1,0,0,1,.851-.709l2.907-.425,1.276-2.623a1.032,1.032,0,0,1,1.843,0L30.43,44.99l2.907.425A1.159,1.159,0,0,1,34.329,46.2Z" transform="translate(-8.61 -41.8)" fill="#ffd200"/>
            <path id="Path_419-3" data-name="Path 419" d="M72.759,46.2a1.02,1.02,0,0,1-.284,1.063l-2.127,2.056.5,2.907a.932.932,0,0,1-.213.851,1.174,1.174,0,0,1-.851.354,1.314,1.314,0,0,1-.5-.142l-2.623-1.347L64.18,53.285A.994.994,0,0,1,62.9,53a.932.932,0,0,1-.213-.851l.5-2.907-2.127-2.056a1.02,1.02,0,0,1-.284-1.063,1.1,1.1,0,0,1,.851-.709l2.907-.425,1.276-2.623a1.022,1.022,0,0,1,.922-.567.95.95,0,0,1,.922.567L68.93,44.99l2.907.425A1.066,1.066,0,0,1,72.759,46.2Z" transform="translate(-19.815 -41.8)" fill="#ffd200"/>
            <path id="Path_420-3" data-name="Path 420" d="M91.746,47.259l-2.127,2.056.5,2.907a.932.932,0,0,1-.213.851,1.174,1.174,0,0,1-.851.354,1.314,1.314,0,0,1-.5-.142l-2.623-1.347L83.38,53.285A.994.994,0,0,1,82.1,53a.932.932,0,0,1-.213-.851l.5-2.907-2.127-2.056a1.02,1.02,0,0,1-.284-1.063,1.1,1.1,0,0,1,.851-.709l2.907-.425,1.276-2.623a1.022,1.022,0,0,1,.922-.567.95.95,0,0,1,.922.567L88.13,44.99l2.907.425a1.1,1.1,0,0,1,.851.709A.948.948,0,0,1,91.746,47.259Z" transform="translate(-25.403 -41.8)" fill="#ffd200"/>
          </g>
        </g>
      </g>
    </g>
  </g>
</svg>
